<?xml version="1.0" encoding="UTF-8" standalone="no"?>
<!DOCTYPE svg PUBLIC "-//W3C//DTD SVG 1.1//EN"
 "http://www.w3.org/Graphics/SVG/1.1/DTD/svg11.dtd">
<!-- Generated by graphviz version 7.0.2 (0)
 -->
<!-- Title: conn_states Pages: 1 -->
<svg width="740pt" height="465pt"
 viewBox="0.00 0.00 739.94 465.00" xmlns="http://www.w3.org/2000/svg" xmlns:xlink="http://www.w3.org/1999/xlink">
<g id="graph0" class="graph" transform="scale(1 1) rotate(0) translate(4 461)">
<title>conn_states</title>
<polygon fill="white" stroke="none" points="-4,4 -4,-461 735.94,-461 735.94,4 -4,4"/>
<!-- StandAllone -->
<g id="node1" class="node">
<title>StandAllone</title>
<ellipse fill="none" stroke="black" cx="66.94" cy="-439" rx="66.89" ry="18"/>
<text text-anchor="middle" x="66.94" y="-435.3" font-family="Times,serif" font-size="14.00">StandAllone</text>
</g>
<!-- WFConnection -->
<g id="node2" class="node">
<title>WFConnection</title>
<ellipse fill="none" stroke="black" cx="333.94" cy="-352" rx="78.79" ry="18"/>
<text text-anchor="middle" x="333.94" y="-348.3" font-family="Times,serif" font-size="14.00">WFConnection</text>
</g>
<!-- StandAllone&#45;&gt;WFConnection -->
<g id="edge1" class="edge">
<title>StandAllone&#45;&gt;WFConnection</title>
<path fill="none" stroke="black" d="M108.96,-424.63C154.79,-410.03 228.35,-386.62 278.8,-370.56"/>
<polygon fill="black" stroke="black" points="279.6,-373.97 288.07,-367.61 277.48,-367.3 279.6,-373.97"/>
<text text-anchor="middle" x="266.94" y="-391.8" font-family="Times,serif" font-size="14.00">ioctl_set_net()</text>
</g>
<!-- Unconnected -->
<g id="node3" class="node">
<title>Unconnected</title>
<ellipse fill="none" stroke="black" cx="307.94" cy="-265" rx="71.49" ry="18"/>
<text text-anchor="middle" x="307.94" y="-261.3" font-family="Times,serif" font-size="14.00">Unconnected</text>
</g>
<!-- WFConnection&#45;&gt;Unconnected -->
<g id="edge2" class="edge">
<title>WFConnection&#45;&gt;Unconnected</title>
<path fill="none" stroke="black" d="M318.71,-333.98C314.78,-328.6 311.06,-322.38 308.94,-316 306.7,-309.24 305.8,-301.68 305.6,-294.53"/>
<polygon fill="black" stroke="black" points="309.09,-294.67 305.79,-284.6 302.1,-294.53 309.09,-294.67"/>
<text text-anchor="middle" x="365.94" y="-304.8" font-family="Times,serif" font-size="14.00">unable to bind()</text>
</g>
<!-- WFReportParams -->
<g id="node4" class="node">
<title>WFReportParams</title>
<ellipse fill="none" stroke="black" cx="118.94" cy="-265" rx="92.88" ry="18"/>
<text text-anchor="middle" x="118.94" y="-261.3" font-family="Times,serif" font-size="14.00">WFReportParams</text>
</g>
<!-- WFConnection&#45;&gt;WFReportParams -->
<g id="edge3" class="edge">
<title>WFConnection&#45;&gt;WFReportParams</title>
<path fill="none" stroke="black" d="M274.45,-339.9C263.32,-337.89 251.78,-335.85 240.94,-334 215.66,-329.69 145.1,-334.12 126.94,-316 121.26,-310.33 118.61,-302.33 117.56,-294.4"/>
<polygon fill="black" stroke="black" points="121.07,-294.42 117.07,-284.6 114.07,-294.77 121.07,-294.42"/>
<text text-anchor="middle" x="214.44" y="-304.8" font-family="Times,serif" font-size="14.00">in connect() after accept</text>
</g>
<!-- WFReportParams&#45;&gt;StandAllone -->
<g id="edge4" class="edge">
<title>WFReportParams&#45;&gt;StandAllone</title>
<path fill="none" stroke="black" d="M98,-282.87C84.28,-295.35 67.54,-313.65 59.94,-334 50.81,-358.46 54.2,-388.38 58.89,-409.84"/>
<polygon fill="black" stroke="black" points="55.44,-410.45 61.2,-419.33 62.24,-408.79 55.44,-410.45"/>
<text text-anchor="middle" x="152.94" y="-348.3" font-family="Times,serif" font-size="14.00">checks in receive_param()</text>
</g>
<!-- Connected -->
<g id="node5" class="node">
<title>Connected</title>
<ellipse fill="none" stroke="black" cx="367.94" cy="-18" rx="59.59" ry="18"/>
<text text-anchor="middle" x="367.94" y="-14.3" font-family="Times,serif" font-size="14.00">Connected</text>
</g>
<!-- WFReportParams&#45;&gt;Connected -->
<g id="edge5" class="edge">
<title>WFReportParams&#45;&gt;Connected</title>
<path fill="none" stroke="black" d="M196.93,-254.91C215.31,-249.7 233.67,-241.58 247.94,-229 284.72,-196.58 266.09,-169.83 289.94,-127 306.61,-97.08 330.09,-65.63 346.93,-44.44"/>
<polygon fill="black" stroke="black" points="349.44,-46.91 352.98,-36.92 343.98,-42.52 349.44,-46.91"/>
<text text-anchor="middle" x="356.44" y="-130.8" font-family="Times,serif" font-size="14.00">in receive_param()</text>
</g>
<!-- WFBitMapS -->
<g id="node6" class="node">
<title>WFBitMapS</title>
<ellipse fill="none" stroke="black" cx="118.94" cy="-178" rx="66.89" ry="18"/>
<text text-anchor="middle" x="118.94" y="-174.3" font-family="Times,serif" font-size="14.00">WFBitMapS</text>
</g>
<!-- WFReportParams&#45;&gt;WFBitMapS -->
<g id="edge6" class="edge">
<title>WFReportParams&#45;&gt;WFBitMapS</title>
<path fill="none" stroke="black" d="M118.94,-246.8C118.94,-235.58 118.94,-220.67 118.94,-207.69"/>
<polygon fill="black" stroke="black" points="122.44,-207.98 118.94,-197.98 115.44,-207.98 122.44,-207.98"/>
<text text-anchor="middle" x="182.44" y="-217.8" font-family="Times,serif" font-size="14.00">sync_handshake()</text>
</g>
<!-- WFBitMapT -->
<g id="node7" class="node">
<title>WFBitMapT</title>
<ellipse fill="none" stroke="black" cx="653.94" cy="-178" rx="66.09" ry="18"/>
<text text-anchor="middle" x="653.94" y="-174.3" font-family="Times,serif" font-size="14.00">WFBitMapT</text>
</g>
<!-- WFReportParams&#45;&gt;WFBitMapT -->
<g id="edge7" class="edge">
<title>WFReportParams&#45;&gt;WFBitMapT</title>
<path fill="none" stroke="black" d="M189.29,-252.94C202.15,-250.94 215.45,-248.9 227.94,-247 381.63,-223.69 420.96,-223.5 573.94,-196 580.21,-194.87 586.74,-193.62 593.24,-192.32"/>
<polygon fill="black" stroke="black" points="593.53,-195.83 602.63,-190.4 592.13,-188.97 593.53,-195.83"/>
<text text-anchor="middle" x="523.44" y="-217.8" font-family="Times,serif" font-size="14.00">sync_handshake()</text>
</g>
<!-- Connected&#45;&gt;WFConnection -->
<g id="edge16" class="edge">
<title>Connected&#45;&gt;WFConnection</title>
<path fill="none" stroke="black" d="M396.81,-34.18C415.71,-46.42 436.94,-65.59 436.94,-90 436.94,-266 436.94,-266 436.94,-266 436.94,-289.08 438.41,-298.87 422.94,-316 416.23,-323.43 407.75,-329.3 398.69,-333.94"/>
<polygon fill="black" stroke="black" points="397.32,-330.71 389.67,-338.04 400.22,-337.09 397.32,-330.71"/>
<text text-anchor="middle" x="503.44" y="-174.3" font-family="Times,serif" font-size="14.00">* on network error</text>
</g>
<!-- SyncSource -->
<g id="node8" class="node">
<title>SyncSource</title>
<ellipse fill="none" stroke="black" cx="143.94" cy="-91" rx="65.79" ry="18"/>
<text text-anchor="middle" x="143.94" y="-87.3" font-family="Times,serif" font-size="14.00">SyncSource</text>
</g>
<!-- WFBitMapS&#45;&gt;SyncSource -->
<g id="edge8" class="edge">
<title>WFBitMapS&#45;&gt;SyncSource</title>
<path fill="none" stroke="black" d="M116.9,-159.94C116.3,-150.08 116.55,-137.58 119.94,-127 120.88,-124.08 122.15,-121.18 123.62,-118.37"/>
<polygon fill="black" stroke="black" points="126.49,-120.38 128.77,-110.03 120.54,-116.7 126.49,-120.38"/>
<text text-anchor="middle" x="179.94" y="-130.8" font-family="Times,serif" font-size="14.00">receive_bitmap()</text>
</g>
<!-- SyncTarget -->
<g id="node9" class="node">
<title>SyncTarget</title>
<ellipse fill="none" stroke="black" cx="559.94" cy="-91" rx="63.89" ry="18"/>
<text text-anchor="middle" x="559.94" y="-87.3" font-family="Times,serif" font-size="14.00">SyncTarget</text>
</g>
<!-- WFBitMapT&#45;&gt;SyncTarget -->
<g id="edge9" class="edge">
<title>WFBitMapT&#45;&gt;SyncTarget</title>
<path fill="none" stroke="black" d="M635.82,-160.61C621.87,-147.99 602.37,-130.36 586.63,-116.13"/>
<polygon fill="black" stroke="black" points="589.22,-113.75 579.46,-109.64 584.53,-118.95 589.22,-113.75"/>
<text text-anchor="middle" x="671.94" y="-130.8" font-family="Times,serif" font-size="14.00">receive_bitmap()</text>
</g>
<!-- SyncSource&#45;&gt;Connected -->
<g id="edge10" class="edge">
<title>SyncSource&#45;&gt;Connected</title>
<path fill="none" stroke="black" d="M182.81,-76.04C202.29,-69.17 226.28,-60.9 247.94,-54 269.59,-47.1 293.6,-39.99 314.42,-34"/>
<polygon fill="black" stroke="black" points="315.2,-37.42 323.85,-31.3 313.27,-30.69 315.2,-37.42"/>
</g>
<!-- PausedSyncS -->
<g id="node10" class="node">
<title>PausedSyncS</title>
<ellipse fill="none" stroke="black" cx="143.94" cy="-18" rx="72.59" ry="18"/>
<text text-anchor="middle" x="143.94" y="-14.3" font-family="Times,serif" font-size="14.00">PausedSyncS</text>
</g>
<!-- SyncSource&#45;&gt;PausedSyncS -->
<g id="edge12" class="edge">
<title>SyncSource&#45;&gt;PausedSyncS</title>
<path fill="none" stroke="black" d="M138.07,-72.81C137.26,-65.14 137.01,-55.89 137.32,-47.24"/>
<polygon fill="black" stroke="black" points="140.79,-47.75 137.98,-37.54 133.81,-47.28 140.79,-47.75"/>
</g>
<!-- SyncTarget&#45;&gt;Connected -->
<g id="edge11" class="edge">
<title>SyncTarget&#45;&gt;Connected</title>
<path fill="none" stroke="black" d="M522.47,-76.14C491.88,-64.83 448.47,-48.78 415.44,-36.56"/>
<polygon fill="black" stroke="black" points="416.69,-33.29 406.09,-33.11 414.26,-39.86 416.69,-33.29"/>
</g>
<!-- PausedSyncT -->
<g id="node11" class="node">
<title>PausedSyncT</title>
<ellipse fill="none" stroke="black" cx="559.94" cy="-18" rx="72.29" ry="18"/>
<text text-anchor="middle" x="559.94" y="-14.3" font-family="Times,serif" font-size="14.00">PausedSyncT</text>
</g>
<!-- SyncTarget&#45;&gt;PausedSyncT -->
<g id="edge13" class="edge">
<title>SyncTarget&#45;&gt;PausedSyncT</title>
<path fill="none" stroke="black" d="M554.07,-72.81C553.26,-65.14 553.01,-55.89 553.32,-47.24"/>
<polygon fill="black" stroke="black" points="556.79,-47.75 553.98,-37.54 549.81,-47.28 556.79,-47.75"/>
</g>
<!-- PausedSyncS&#45;&gt;SyncSource -->
<g id="edge14" class="edge">
<title>PausedSyncS&#45;&gt;SyncSource</title>
<path fill="none" stroke="black" d="M149.81,-36.03C150.62,-43.68 150.87,-52.92 150.57,-61.58"/>
<polygon fill="black" stroke="black" points="147.1,-61.09 149.92,-71.3 154.08,-61.56 147.1,-61.09"/>
</g>
<!-- PausedSyncT&#45;&gt;SyncTarget -->
<g id="edge15" class="edge">
<title>PausedSyncT&#45;&gt;SyncTarget</title>
<path fill="none" stroke="black" d="M565.81,-36.03C566.62,-43.68 566.87,-52.92 566.57,-61.58"/>
<polygon fill="black" stroke="black" points="563.1,-61.09 565.92,-71.3 570.08,-61.56 563.1,-61.09"/>
</g>
</g>
</svg>
