<?xml version="1.0" encoding="UTF-8" standalone="no"?>
<!DOCTYPE svg PUBLIC "-//W3C//DTD SVG 1.1//EN"
 "http://www.w3.org/Graphics/SVG/1.1/DTD/svg11.dtd">
<!-- Generated by graphviz version 7.0.2 (0)
 -->
<!-- Title: disk_states Pages: 1 -->
<svg width="938pt" height="479pt"
 viewBox="0.00 0.00 937.95 479.00" xmlns="http://www.w3.org/2000/svg" xmlns:xlink="http://www.w3.org/1999/xlink">
<g id="graph0" class="graph" transform="scale(1 1) rotate(0) translate(4 475)">
<title>disk_states</title>
<polygon fill="white" stroke="none" points="-4,4 -4,-475 933.95,-475 933.95,4 -4,4"/>
<!-- Diskless -->
<g id="node1" class="node">
<title>Diskless</title>
<ellipse fill="none" stroke="black" cx="304.95" cy="-453" rx="49.29" ry="18"/>
<text text-anchor="middle" x="304.95" y="-449.3" font-family="Times,serif" font-size="14.00">Diskless</text>
</g>
<!-- Inconsistent -->
<g id="node2" class="node">
<title>Inconsistent</title>
<ellipse fill="none" stroke="black" cx="193.95" cy="-192" rx="67.69" ry="18"/>
<text text-anchor="middle" x="193.95" y="-188.3" font-family="Times,serif" font-size="14.00">Inconsistent</text>
</g>
<!-- Diskless&#45;&gt;Inconsistent -->
<g id="edge1" class="edge">
<title>Diskless&#45;&gt;Inconsistent</title>
<path fill="none" stroke="black" d="M278.86,-437.27C246.95,-417.57 194.52,-379.32 172.95,-330 157.37,-294.38 169.81,-249.16 181.12,-220.64"/>
<polygon fill="black" stroke="black" points="184.26,-222.2 184.91,-211.62 177.81,-219.49 184.26,-222.2"/>
<text text-anchor="middle" x="225.95" y="-318.8" font-family="Times,serif" font-size="14.00">ioctl_set_disk()</text>
</g>
<!-- Consistent -->
<g id="node3" class="node">
<title>Consistent</title>
<ellipse fill="none" stroke="black" cx="434.95" cy="-366" rx="60.39" ry="18"/>
<text text-anchor="middle" x="434.95" y="-362.3" font-family="Times,serif" font-size="14.00">Consistent</text>
</g>
<!-- Diskless&#45;&gt;Consistent -->
<g id="edge2" class="edge">
<title>Diskless&#45;&gt;Consistent</title>
<path fill="none" stroke="black" d="M328.19,-436.8C348.51,-423.52 378.27,-404.06 401.21,-389.05"/>
<polygon fill="black" stroke="black" points="402.86,-392.16 409.31,-383.76 399.03,-386.3 402.86,-392.16"/>
<text text-anchor="middle" x="429.95" y="-405.8" font-family="Times,serif" font-size="14.00">ioctl_set_disk()</text>
</g>
<!-- Outdated -->
<g id="node4" class="node">
<title>Outdated</title>
<ellipse fill="none" stroke="black" cx="53.95" cy="-279" rx="53.89" ry="18"/>
<text text-anchor="middle" x="53.95" y="-275.3" font-family="Times,serif" font-size="14.00">Outdated</text>
</g>
<!-- Diskless&#45;&gt;Outdated -->
<g id="edge3" class="edge">
<title>Diskless&#45;&gt;Outdated</title>
<path fill="none" stroke="black" d="M258.81,-446.14C193.74,-436.82 80.2,-416.29 55.95,-384 39.78,-362.48 41.76,-330.77 46.24,-308.03"/>
<polygon fill="black" stroke="black" points="49.59,-309.06 48.39,-298.53 42.76,-307.51 49.59,-309.06"/>
<text text-anchor="middle" x="108.95" y="-362.3" font-family="Times,serif" font-size="14.00">ioctl_set_disk()</text>
</g>
<!-- UpToDate -->
<g id="node5" class="node">
<title>UpToDate</title>
<ellipse fill="none" stroke="black" cx="389.95" cy="-105" rx="57.39" ry="18"/>
<text text-anchor="middle" x="389.95" y="-101.3" font-family="Times,serif" font-size="14.00">UpToDate</text>
</g>
<!-- Inconsistent&#45;&gt;UpToDate -->
<g id="edge9" class="edge">
<title>Inconsistent&#45;&gt;UpToDate</title>
<path fill="none" stroke="black" d="M193.89,-173.75C194.82,-162.8 197.92,-149.21 206.95,-141 225.6,-124.04 294.23,-127.94 318.95,-123 324.18,-121.95 329.62,-120.79 335.06,-119.58"/>
<polygon fill="black" stroke="black" points="335.68,-123.02 344.65,-117.38 334.12,-116.2 335.68,-123.02"/>
<text text-anchor="middle" x="270.45" y="-144.8" font-family="Times,serif" font-size="14.00">resync completed</text>
</g>
<!-- Failed -->
<g id="node6" class="node">
<title>Failed</title>
<ellipse fill="none" stroke="black" cx="389.95" cy="-18" rx="38.99" ry="18"/>
<text text-anchor="middle" x="389.95" y="-14.3" font-family="Times,serif" font-size="14.00">Failed</text>
</g>
<!-- Inconsistent&#45;&gt;Failed -->
<g id="edge13" class="edge">
<title>Inconsistent&#45;&gt;Failed</title>
<path fill="none" stroke="black" d="M186.34,-173.69C177.84,-151.42 167.52,-112.56 185.95,-87 220.63,-38.88 290.85,-24.3 339.13,-20.16"/>
<polygon fill="black" stroke="black" points="339.36,-23.65 349.08,-19.44 338.86,-16.67 339.36,-23.65"/>
<text text-anchor="middle" x="254.95" y="-101.3" font-family="Times,serif" font-size="14.00">io completion error</text>
</g>
<!-- Consistent&#45;&gt;Inconsistent -->
<g id="edge6" class="edge">
<title>Consistent&#45;&gt;Inconsistent</title>
<path fill="none" stroke="black" d="M433.96,-347.86C432.51,-337.24 429.05,-323.96 420.95,-315 406.22,-298.72 394.74,-306.49 374.95,-297 322.38,-271.78 264.4,-237.19 228.57,-214.96"/>
<polygon fill="black" stroke="black" points="230.7,-212.16 220.36,-209.84 226.99,-218.1 230.7,-212.16"/>
<text text-anchor="middle" x="418.45" y="-275.3" font-family="Times,serif" font-size="14.00">start resync</text>
</g>
<!-- Consistent&#45;&gt;Outdated -->
<g id="edge4" class="edge">
<title>Consistent&#45;&gt;Outdated</title>
<path fill="none" stroke="black" d="M385.3,-355.36C360.79,-349.65 331.14,-341.3 305.95,-330 294.81,-325.01 294.35,-319.35 282.95,-315 229.84,-294.72 165.57,-286.16 118.65,-282.57"/>
<polygon fill="black" stroke="black" points="119.14,-279.1 108.92,-281.88 118.65,-286.08 119.14,-279.1"/>
<text text-anchor="middle" x="363.45" y="-318.8" font-family="Times,serif" font-size="14.00">receive_param()</text>
</g>
<!-- Consistent&#45;&gt;UpToDate -->
<g id="edge5" class="edge">
<title>Consistent&#45;&gt;UpToDate</title>
<path fill="none" stroke="black" d="M443.82,-347.94C450.28,-334.5 458.49,-315.09 461.95,-297 468.46,-262.95 480.34,-170.39 461.95,-141 457.18,-133.38 450.22,-127.37 442.49,-122.66"/>
<polygon fill="black" stroke="black" points="444.2,-119.6 433.72,-118.05 440.94,-125.8 444.2,-119.6"/>
<text text-anchor="middle" x="527.45" y="-231.8" font-family="Times,serif" font-size="14.00">receive_param()</text>
</g>
<!-- Consistent&#45;&gt;Failed -->
<g id="edge10" class="edge">
<title>Consistent&#45;&gt;Failed</title>
<path fill="none" stroke="black" d="M492.36,-359.97C542.04,-352.1 605.95,-331.88 605.95,-280 605.95,-280 605.95,-280 605.95,-104 605.95,-67.88 500.06,-40.67 436.56,-27.6"/>
<polygon fill="black" stroke="black" points="437.59,-24.24 427.1,-25.7 436.21,-31.1 437.59,-24.24"/>
<text text-anchor="middle" x="674.95" y="-188.3" font-family="Times,serif" font-size="14.00">io completion error</text>
</g>
<!-- Outdated&#45;&gt;Inconsistent -->
<g id="edge7" class="edge">
<title>Outdated&#45;&gt;Inconsistent</title>
<path fill="none" stroke="black" d="M57.17,-260.97C60.07,-250.11 65.4,-236.54 74.95,-228 88.11,-216.22 105.06,-208.4 122.01,-203.21"/>
<polygon fill="black" stroke="black" points="122.94,-206.58 131.66,-200.56 121.09,-199.83 122.94,-206.58"/>
<text text-anchor="middle" x="118.45" y="-231.8" font-family="Times,serif" font-size="14.00">start resync</text>
</g>
<!-- Outdated&#45;&gt;Failed -->
<g id="edge11" class="edge">
<title>Outdated&#45;&gt;Failed</title>
<path fill="none" stroke="black" d="M45.29,-261.01C32.68,-233.66 13.12,-179.06 35.95,-141 78.18,-70.58 121.41,-81.06 198.95,-54 245.49,-37.76 301.17,-28.65 340.37,-23.83"/>
<polygon fill="black" stroke="black" points="340.7,-27.31 350.23,-22.67 339.89,-20.36 340.7,-27.31"/>
<text text-anchor="middle" x="104.95" y="-144.8" font-family="Times,serif" font-size="14.00">io completion error</text>
</g>
<!-- UpToDate&#45;&gt;Inconsistent -->
<g id="edge8" class="edge">
<title>UpToDate&#45;&gt;Inconsistent</title>
<path fill="none" stroke="black" d="M376.64,-122.77C367.02,-133.8 353.1,-147.68 337.95,-156 315.85,-168.13 289.57,-176.1 265.55,-181.32"/>
<polygon fill="black" stroke="black" points="264.92,-177.88 255.82,-183.3 266.31,-184.74 264.92,-177.88"/>
<text text-anchor="middle" x="408.45" y="-144.8" font-family="Times,serif" font-size="14.00">ioctl_replicate</text>
</g>
<!-- UpToDate&#45;&gt;Failed -->
<g id="edge12" class="edge">
<title>UpToDate&#45;&gt;Failed</title>
<path fill="none" stroke="black" d="M389.95,-86.8C389.95,-75.58 389.95,-60.67 389.95,-47.69"/>
<polygon fill="black" stroke="black" points="393.45,-47.98 389.95,-37.98 386.45,-47.98 393.45,-47.98"/>
<text text-anchor="middle" x="458.95" y="-57.8" font-family="Times,serif" font-size="14.00">io completion error</text>
</g>
<!-- Failed&#45;&gt;Diskless -->
<g id="edge14" class="edge">
<title>Failed&#45;&gt;Diskless</title>
<path fill="none" stroke="black" d="M429.03,-19.48C526.39,-21.72 771.95,-34.28 771.95,-104 771.95,-367 771.95,-367 771.95,-367 771.95,-408.01 489.65,-436.63 364.02,-447.34"/>
<polygon fill="black" stroke="black" points="363.91,-443.84 354.24,-448.16 364.49,-450.81 363.91,-443.84"/>
<text text-anchor="middle" x="850.95" y="-231.8" font-family="Times,serif" font-size="14.00">sending notify to peer</text>
</g>
</g>
</svg>
