<?xml version="1.0" encoding="UTF-8" standalone="no"?>
<!DOCTYPE svg PUBLIC "-//W3C//DTD SVG 1.1//EN"
 "http://www.w3.org/Graphics/SVG/1.1/DTD/svg11.dtd">
<!-- Generated by graphviz version 7.0.2 (0)
 -->
<!-- Title: layer_data_flow Pages: 1 -->
<svg width="415pt" height="98pt"
 viewBox="0.00 0.00 415.00 98.00" xmlns="http://www.w3.org/2000/svg" xmlns:xlink="http://www.w3.org/1999/xlink">
<g id="graph0" class="graph" transform="scale(1 1) rotate(0) translate(4 94)">
<title>layer_data_flow</title>
<polygon fill="white" stroke="none" points="-4,4 -4,-94 411,-94 411,4 -4,4"/>
<!-- Layer&#45;0/1 -->
<g id="node1" class="node">
<title>Layer&#45;0/1</title>
<polygon fill="none" stroke="black" points="84,-90 0,-90 0,-54 84,-54 84,-90"/>
<text text-anchor="middle" x="42" y="-68.3" font-family="Times,serif" font-size="14.00">Layer&#45;0/1</text>
</g>
<!-- Scaler&#45;0 -->
<g id="node2" class="node">
<title>Scaler&#45;0</title>
<polygon fill="none" stroke="black" points="195,-90 120,-90 120,-54 195,-54 195,-90"/>
<text text-anchor="middle" x="157.5" y="-68.3" font-family="Times,serif" font-size="14.00">Scaler&#45;0</text>
</g>
<!-- Layer&#45;0/1&#45;&gt;Scaler&#45;0 -->
<g id="edge1" class="edge">
<title>Layer&#45;0/1&#45;&gt;Scaler&#45;0</title>
<path fill="none" stroke="black" d="M84.3,-72C92.05,-72 100.21,-72 108.16,-72"/>
<polygon fill="black" stroke="black" points="108.04,-75.5 118.04,-72 108.04,-68.5 108.04,-75.5"/>
</g>
<!-- Merger -->
<g id="node3" class="node">
<title>Merger</title>
<polygon fill="none" stroke="black" points="301,-63 231,-63 231,-27 301,-27 301,-63"/>
<text text-anchor="middle" x="266" y="-41.3" font-family="Times,serif" font-size="14.00">Merger</text>
</g>
<!-- Scaler&#45;0&#45;&gt;Merger -->
<g id="edge2" class="edge">
<title>Scaler&#45;0&#45;&gt;Merger</title>
<path fill="none" stroke="black" d="M195.45,-62.63C203.21,-60.67 211.48,-58.57 219.51,-56.53"/>
<polygon fill="black" stroke="black" points="220.32,-59.94 229.15,-54.09 218.6,-53.15 220.32,-59.94"/>
</g>
<!-- Compiz -->
<g id="node6" class="node">
<title>Compiz</title>
<polygon fill="none" stroke="black" points="407,-63 337,-63 337,-27 407,-27 407,-63"/>
<text text-anchor="middle" x="372" y="-41.3" font-family="Times,serif" font-size="14.00">Compiz</text>
</g>
<!-- Merger&#45;&gt;Compiz -->
<g id="edge5" class="edge">
<title>Merger&#45;&gt;Compiz</title>
<path fill="none" stroke="black" d="M301.34,-45C308.97,-45 317.18,-45 325.19,-45"/>
<polygon fill="black" stroke="black" points="325.18,-48.5 335.18,-45 325.18,-41.5 325.18,-48.5"/>
</g>
<!-- Layer&#45;2/3 -->
<g id="node4" class="node">
<title>Layer&#45;2/3</title>
<polygon fill="none" stroke="black" points="84,-36 0,-36 0,0 84,0 84,-36"/>
<text text-anchor="middle" x="42" y="-14.3" font-family="Times,serif" font-size="14.00">Layer&#45;2/3</text>
</g>
<!-- Scaler&#45;1 -->
<g id="node5" class="node">
<title>Scaler&#45;1</title>
<polygon fill="none" stroke="black" points="195,-36 120,-36 120,0 195,0 195,-36"/>
<text text-anchor="middle" x="157.5" y="-14.3" font-family="Times,serif" font-size="14.00">Scaler&#45;1</text>
</g>
<!-- Layer&#45;2/3&#45;&gt;Scaler&#45;1 -->
<g id="edge3" class="edge">
<title>Layer&#45;2/3&#45;&gt;Scaler&#45;1</title>
<path fill="none" stroke="black" d="M84.3,-18C92.05,-18 100.21,-18 108.16,-18"/>
<polygon fill="black" stroke="black" points="108.04,-21.5 118.04,-18 108.04,-14.5 108.04,-21.5"/>
</g>
<!-- Scaler&#45;1&#45;&gt;Merger -->
<g id="edge4" class="edge">
<title>Scaler&#45;1&#45;&gt;Merger</title>
<path fill="none" stroke="black" d="M195.45,-27.37C203.21,-29.33 211.48,-31.43 219.51,-33.47"/>
<polygon fill="black" stroke="black" points="218.6,-36.85 229.15,-35.91 220.32,-30.06 218.6,-36.85"/>
</g>
</g>
</svg>
