<?xml version="1.0" encoding="UTF-8" standalone="no"?>
<!DOCTYPE svg PUBLIC "-//W3C//DTD SVG 1.1//EN"
 "http://www.w3.org/Graphics/SVG/1.1/DTD/svg11.dtd">
<!-- Generated by graphviz version 7.0.2 (0)
 -->
<!-- Title: Output Pipeline Pages: 1 -->
<svg width="600pt" height="362pt"
 viewBox="0.00 0.00 600.00 362.00" xmlns="http://www.w3.org/2000/svg" xmlns:xlink="http://www.w3.org/1999/xlink">
<g id="graph0" class="graph" transform="scale(1 1) rotate(0) translate(4 358)">
<title>Output Pipeline</title>
<polygon fill="white" stroke="none" points="-4,4 -4,-358 596,-358 596,4 -4,4"/>
<g id="clust2" class="cluster">
<title>cluster_internal</title>
<polygon fill="none" stroke="black" stroke-dasharray="5,2" points="137,-91 137,-310 564,-310 564,-91 137,-91"/>
<text text-anchor="middle" x="350.5" y="-294.8" font-family="Times,serif" font-size="14.00">Internal Pipeline</text>
</g>
<g id="clust5" class="cluster">
<title>cluster_output</title>
<polygon fill="none" stroke="black" stroke-dasharray="5,2" points="8,-8 8,-83 584,-83 584,-8 8,-8"/>
<text text-anchor="middle" x="296" y="-67.8" font-family="Times,serif" font-size="14.00">Outputs</text>
</g>
<!-- drm_crtc -->
<g id="node1" class="node">
<title>drm_crtc</title>
<polygon fill="lightgrey" stroke="black" points="391,-354 311,-354 311,-318 391,-318 391,-354"/>
<text text-anchor="middle" x="351" y="-332.3" font-family="Times,serif" font-size="14.00">drm_crtc</text>
</g>
<!-- drm_encoder A -->
<g id="node2" class="node">
<title>drm_encoder A</title>
<polygon fill="lightgrey" stroke="black" points="556,-279 432,-279 432,-243 556,-243 556,-279"/>
<text text-anchor="middle" x="494" y="-257.3" font-family="Times,serif" font-size="14.00">drm_encoder A</text>
</g>
<!-- drm_crtc&#45;&gt;drm_encoder A -->
<g id="edge4" class="edge">
<title>drm_crtc&#45;&gt;drm_encoder A</title>
<path fill="none" stroke="black" d="M391.37,-323.05C401.89,-319.38 413.06,-314.98 423,-310 436.54,-303.22 450.54,-294.24 462.49,-285.89"/>
<polygon fill="black" stroke="black" points="464.26,-288.92 470.36,-280.25 460.19,-283.23 464.26,-288.92"/>
</g>
<!-- drm_encoder B -->
<g id="node3" class="node">
<title>drm_encoder B</title>
<polygon fill="lightgrey" stroke="black" points="413.5,-279 288.5,-279 288.5,-243 413.5,-243 413.5,-279"/>
<text text-anchor="middle" x="351" y="-257.3" font-family="Times,serif" font-size="14.00">drm_encoder B</text>
</g>
<!-- drm_crtc&#45;&gt;drm_encoder B -->
<g id="edge5" class="edge">
<title>drm_crtc&#45;&gt;drm_encoder B</title>
<path fill="none" stroke="black" d="M351,-317.7C351,-309.67 351,-299.9 351,-290.8"/>
<polygon fill="black" stroke="black" points="354.5,-290.94 351,-280.94 347.5,-290.94 354.5,-290.94"/>
</g>
<!-- drm_encoder C -->
<g id="node4" class="node">
<title>drm_encoder C</title>
<polygon fill="lightgrey" stroke="black" points="270.5,-279 145.5,-279 145.5,-243 270.5,-243 270.5,-279"/>
<text text-anchor="middle" x="208" y="-257.3" font-family="Times,serif" font-size="14.00">drm_encoder C</text>
</g>
<!-- drm_crtc&#45;&gt;drm_encoder C -->
<g id="edge6" class="edge">
<title>drm_crtc&#45;&gt;drm_encoder C</title>
<path fill="none" stroke="black" d="M310.84,-322.82C300.58,-319.18 289.7,-314.85 280,-310 266.32,-303.17 252.14,-294.18 240.01,-285.83"/>
<polygon fill="black" stroke="black" points="242.21,-283.09 232.02,-280.2 238.17,-288.82 242.21,-283.09"/>
</g>
<!-- drm_connector A -->
<g id="node8" class="node">
<title>drm_connector A</title>
<polygon fill="none" stroke="black" points="575.5,-52 438.5,-52 438.5,-16 575.5,-16 575.5,-52"/>
<text text-anchor="middle" x="507" y="-30.3" font-family="Times,serif" font-size="14.00">drm_connector A</text>
</g>
<!-- drm_encoder A&#45;&gt;drm_connector A -->
<g id="edge7" class="edge">
<title>drm_encoder A&#45;&gt;drm_connector A</title>
<path fill="none" stroke="black" d="M495,-242.72C497.22,-204.19 502.61,-110.93 505.35,-63.59"/>
<polygon fill="black" stroke="black" points="508.83,-64.04 505.91,-53.85 501.84,-63.63 508.83,-64.04"/>
</g>
<!-- drm_bridge B -->
<g id="node5" class="node">
<title>drm_bridge B</title>
<polygon fill="lightgrey" stroke="black" points="408,-207 294,-207 294,-171 408,-171 408,-207"/>
<text text-anchor="middle" x="351" y="-185.3" font-family="Times,serif" font-size="14.00">drm_bridge B</text>
</g>
<!-- drm_encoder B&#45;&gt;drm_bridge B -->
<g id="edge1" class="edge">
<title>drm_encoder B&#45;&gt;drm_bridge B</title>
<path fill="none" stroke="black" d="M351,-242.7C351,-235.41 351,-226.73 351,-218.54"/>
<polygon fill="black" stroke="black" points="354.5,-218.62 351,-208.62 347.5,-218.62 354.5,-218.62"/>
</g>
<!-- drm_bridge C1 -->
<g id="node6" class="node">
<title>drm_bridge C1</title>
<polygon fill="lightgrey" stroke="black" points="268.5,-207 145.5,-207 145.5,-171 268.5,-171 268.5,-207"/>
<text text-anchor="middle" x="207" y="-185.3" font-family="Times,serif" font-size="14.00">drm_bridge C1</text>
</g>
<!-- drm_encoder C&#45;&gt;drm_bridge C1 -->
<g id="edge2" class="edge">
<title>drm_encoder C&#45;&gt;drm_bridge C1</title>
<path fill="none" stroke="black" d="M207.75,-242.7C207.65,-235.41 207.52,-226.73 207.41,-218.54"/>
<polygon fill="black" stroke="black" points="210.91,-218.57 207.27,-208.62 203.91,-218.67 210.91,-218.57"/>
</g>
<!-- drm_connector B -->
<g id="node9" class="node">
<title>drm_connector B</title>
<polygon fill="none" stroke="black" points="420,-52 282,-52 282,-16 420,-16 420,-52"/>
<text text-anchor="middle" x="351" y="-30.3" font-family="Times,serif" font-size="14.00">drm_connector B</text>
</g>
<!-- drm_bridge B&#45;&gt;drm_connector B -->
<g id="edge8" class="edge">
<title>drm_bridge B&#45;&gt;drm_connector B</title>
<path fill="none" stroke="black" d="M351,-170.75C351,-144.81 351,-95.44 351,-63.93"/>
<polygon fill="black" stroke="black" points="354.5,-63.94 351,-53.94 347.5,-63.94 354.5,-63.94"/>
</g>
<!-- drm_bridge C2 -->
<g id="node7" class="node">
<title>drm_bridge C2</title>
<polygon fill="lightgrey" stroke="black" points="268.5,-135 145.5,-135 145.5,-99 268.5,-99 268.5,-135"/>
<text text-anchor="middle" x="207" y="-113.3" font-family="Times,serif" font-size="14.00">drm_bridge C2</text>
</g>
<!-- drm_bridge C1&#45;&gt;drm_bridge C2 -->
<g id="edge3" class="edge">
<title>drm_bridge C1&#45;&gt;drm_bridge C2</title>
<path fill="none" stroke="black" d="M207,-170.7C207,-163.41 207,-154.73 207,-146.54"/>
<polygon fill="black" stroke="black" points="210.5,-146.62 207,-136.62 203.5,-146.62 210.5,-146.62"/>
</g>
<!-- drm_connector C -->
<g id="node10" class="node">
<title>drm_connector C</title>
<polygon fill="none" stroke="black" points="264,-52 126,-52 126,-16 264,-16 264,-52"/>
<text text-anchor="middle" x="195" y="-30.3" font-family="Times,serif" font-size="14.00">drm_connector C</text>
</g>
<!-- drm_bridge C2&#45;&gt;drm_connector C -->
<g id="edge9" class="edge">
<title>drm_bridge C2&#45;&gt;drm_connector C</title>
<path fill="none" stroke="black" d="M204.46,-98.82C202.94,-88.58 200.97,-75.33 199.23,-63.55"/>
<polygon fill="black" stroke="black" points="202.73,-63.31 197.8,-53.93 195.81,-64.33 202.73,-63.31"/>
</g>
<!-- drm_panel -->
<g id="node11" class="node">
<title>drm_panel</title>
<polygon fill="none" stroke="black" points="108,-52 16,-52 16,-16 108,-16 108,-52"/>
<text text-anchor="middle" x="62" y="-30.3" font-family="Times,serif" font-size="14.00">drm_panel</text>
</g>
</g>
</svg>
