<?xml version="1.0" encoding="UTF-8" standalone="no"?>
<!DOCTYPE svg PUBLIC "-//W3C//DTD SVG 1.1//EN"
 "http://www.w3.org/Graphics/SVG/1.1/DTD/svg11.dtd">
<!-- Generated by graphviz version 7.0.2 (0)
 -->
<!-- Title: writeback_data_flow Pages: 1 -->
<svg width="521pt" height="98pt"
 viewBox="0.00 0.00 521.00 98.00" xmlns="http://www.w3.org/2000/svg" xmlns:xlink="http://www.w3.org/1999/xlink">
<g id="graph0" class="graph" transform="scale(1 1) rotate(0) translate(4 94)">
<title>writeback_data_flow</title>
<polygon fill="white" stroke="none" points="-4,4 -4,-94 517,-94 517,4 -4,4"/>
<!-- Compiz -->
<g id="node1" class="node">
<title>Compiz</title>
<polygon fill="none" stroke="black" points="70,-63 0,-63 0,-27 70,-27 70,-63"/>
<text text-anchor="middle" x="35" y="-41.3" font-family="Times,serif" font-size="14.00">Compiz</text>
</g>
<!-- Splitter -->
<g id="node2" class="node">
<title>Splitter</title>
<polygon fill="none" stroke="black" points="177,-63 106,-63 106,-27 177,-27 177,-63"/>
<text text-anchor="middle" x="141.5" y="-41.3" font-family="Times,serif" font-size="14.00">Splitter</text>
</g>
<!-- Compiz&#45;&gt;Splitter -->
<g id="edge1" class="edge">
<title>Compiz&#45;&gt;Splitter</title>
<path fill="none" stroke="black" d="M70.22,-45C77.99,-45 86.36,-45 94.53,-45"/>
<polygon fill="black" stroke="black" points="94.33,-48.5 104.33,-45 94.33,-41.5 94.33,-48.5"/>
</g>
<!-- Scaler&#45;0 -->
<g id="node3" class="node">
<title>Scaler&#45;0</title>
<polygon fill="none" stroke="black" points="288,-90 213,-90 213,-54 288,-54 288,-90"/>
<text text-anchor="middle" x="250.5" y="-68.3" font-family="Times,serif" font-size="14.00">Scaler&#45;0</text>
</g>
<!-- Splitter&#45;&gt;Scaler&#45;0 -->
<g id="edge2" class="edge">
<title>Splitter&#45;&gt;Scaler&#45;0</title>
<path fill="none" stroke="black" d="M177.24,-53.77C185.04,-55.74 193.46,-57.86 201.69,-59.94"/>
<polygon fill="black" stroke="black" points="200.7,-63.3 211.26,-62.35 202.42,-56.51 200.7,-63.3"/>
</g>
<!-- Scaler&#45;1 -->
<g id="node5" class="node">
<title>Scaler&#45;1</title>
<polygon fill="none" stroke="black" points="288,-36 213,-36 213,0 288,0 288,-36"/>
<text text-anchor="middle" x="250.5" y="-14.3" font-family="Times,serif" font-size="14.00">Scaler&#45;1</text>
</g>
<!-- Splitter&#45;&gt;Scaler&#45;1 -->
<g id="edge4" class="edge">
<title>Splitter&#45;&gt;Scaler&#45;1</title>
<path fill="none" stroke="black" d="M177.24,-36.23C185.04,-34.26 193.46,-32.14 201.69,-30.06"/>
<polygon fill="black" stroke="black" points="202.42,-33.49 211.26,-27.65 200.7,-26.7 202.42,-33.49"/>
</g>
<!-- Merger -->
<g id="node4" class="node">
<title>Merger</title>
<polygon fill="none" stroke="black" points="394,-63 324,-63 324,-27 394,-27 394,-63"/>
<text text-anchor="middle" x="359" y="-41.3" font-family="Times,serif" font-size="14.00">Merger</text>
</g>
<!-- Scaler&#45;0&#45;&gt;Merger -->
<g id="edge3" class="edge">
<title>Scaler&#45;0&#45;&gt;Merger</title>
<path fill="none" stroke="black" d="M288.45,-62.63C296.21,-60.67 304.48,-58.57 312.51,-56.53"/>
<polygon fill="black" stroke="black" points="313.32,-59.94 322.15,-54.09 311.6,-53.15 313.32,-59.94"/>
</g>
<!-- Wb_layer -->
<g id="node6" class="node">
<title>Wb_layer</title>
<polygon fill="none" stroke="black" points="513,-63 430,-63 430,-27 513,-27 513,-63"/>
<text text-anchor="middle" x="471.5" y="-41.3" font-family="Times,serif" font-size="14.00">Wb_layer</text>
</g>
<!-- Merger&#45;&gt;Wb_layer -->
<g id="edge6" class="edge">
<title>Merger&#45;&gt;Wb_layer</title>
<path fill="none" stroke="black" d="M394.36,-45C401.94,-45 410.13,-45 418.24,-45"/>
<polygon fill="black" stroke="black" points="418.06,-48.5 428.06,-45 418.06,-41.5 418.06,-48.5"/>
</g>
<!-- Scaler&#45;1&#45;&gt;Merger -->
<g id="edge5" class="edge">
<title>Scaler&#45;1&#45;&gt;Merger</title>
<path fill="none" stroke="black" d="M288.45,-27.37C296.21,-29.33 304.48,-31.43 312.51,-33.47"/>
<polygon fill="black" stroke="black" points="311.6,-36.85 322.15,-35.91 313.32,-30.06 311.6,-36.85"/>
</g>
</g>
</svg>
