<?xml version="1.0" encoding="UTF-8" standalone="no"?>
<!DOCTYPE svg PUBLIC "-//W3C//DTD SVG 1.1//EN"
 "http://www.w3.org/Graphics/SVG/1.1/DTD/svg11.dtd">
<!-- Generated by graphviz version 7.0.2 (0)
 -->
<!-- Title: decoder_state_machine Pages: 1 -->
<svg width="1395pt" height="1079pt"
 viewBox="0.00 0.00 1395.08 1078.70" xmlns="http://www.w3.org/2000/svg" xmlns:xlink="http://www.w3.org/1999/xlink">
<g id="graph0" class="graph" transform="scale(1 1) rotate(0) translate(4 1074.7)">
<title>decoder_state_machine</title>
<polygon fill="white" stroke="none" points="-4,4 -4,-1074.7 1391.08,-1074.7 1391.08,4 -4,4"/>
<!-- Decoding -->
<g id="node1" class="node">
<title>Decoding</title>
<ellipse fill="none" stroke="black" cx="634.08" cy="-1012.76" rx="53.89" ry="53.89"/>
<ellipse fill="none" stroke="black" cx="634.08" cy="-1012.76" rx="57.89" ry="57.89"/>
<text text-anchor="middle" x="634.08" y="-1009.06" font-family="Times,serif" font-size="14.00">Decoding</text>
</g>
<!-- Decoding&#45;&gt;Decoding -->
<g id="edge9" class="edge">
<title>Decoding&#45;&gt;Decoding</title>
<path fill="none" stroke="black" d="M689.37,-1030.67C701.34,-1028.92 710.02,-1022.95 710.02,-1012.76 710.02,-1006.07 706.28,-1001.2 700.33,-998.15"/>
<polygon fill="black" stroke="black" points="701.41,-994.81 690.82,-995.28 699.39,-1001.52 701.41,-994.81"/>
</g>
<!-- ResChange -->
<g id="node4" class="node">
<title>ResChange</title>
<ellipse fill="none" stroke="black" cx="238.08" cy="-795.82" rx="65.11" ry="65.11"/>
<text text-anchor="middle" x="238.08" y="-807.12" font-family="Times,serif" font-size="14.00">Dynamic</text>
<text text-anchor="middle" x="238.08" y="-792.12" font-family="Times,serif" font-size="14.00">Resolution</text>
<text text-anchor="middle" x="238.08" y="-777.12" font-family="Times,serif" font-size="14.00">Change</text>
</g>
<!-- Decoding&#45;&gt;ResChange -->
<g id="edge4" class="edge">
<title>Decoding&#45;&gt;ResChange</title>
<path fill="none" stroke="black" d="M575.85,-1008.87C478.86,-1002.74 290.64,-984.83 248.08,-936.81 232.45,-919.18 227.2,-894.9 226.72,-871.51"/>
<polygon fill="black" stroke="black" points="230.22,-871.68 226.83,-861.64 223.22,-871.6 230.22,-871.68"/>
<text text-anchor="middle" x="284.58" y="-925.61" font-family="Times,serif" font-size="14.00">Stream</text>
<text text-anchor="middle" x="284.58" y="-910.61" font-family="Times,serif" font-size="14.00">resolution</text>
<text text-anchor="middle" x="284.58" y="-895.61" font-family="Times,serif" font-size="14.00">change</text>
</g>
<!-- Stopped -->
<g id="node5" class="node">
<title>Stopped</title>
<ellipse fill="none" stroke="black" cx="591.08" cy="-386.78" rx="49.29" ry="49.29"/>
<text text-anchor="middle" x="591.08" y="-383.08" font-family="Times,serif" font-size="14.00">Stopped</text>
</g>
<!-- Decoding&#45;&gt;Stopped -->
<g id="edge8" class="edge">
<title>Decoding&#45;&gt;Stopped</title>
<path fill="none" stroke="black" d="M589.06,-976.06C526.73,-923.41 416.98,-818.31 374.08,-699.82 367.27,-681.02 360.61,-669.61 374.08,-654.82 403.09,-622.98 536.57,-667.24 567.08,-636.82 616.15,-587.91 613.38,-503.26 604.33,-446.4"/>
<polygon fill="black" stroke="black" points="607.78,-445.82 602.64,-436.56 600.88,-447 607.78,-445.82"/>
<text text-anchor="middle" x="493.08" y="-673.62" font-family="Times,serif" font-size="14.00">VIDIOC_STREAMOFF(CAPTURE)</text>
</g>
<!-- Drain -->
<g id="node6" class="node">
<title>Drain</title>
<ellipse fill="none" stroke="black" cx="895.08" cy="-584.5" rx="36.29" ry="36.29"/>
<text text-anchor="middle" x="895.08" y="-580.8" font-family="Times,serif" font-size="14.00">Drain</text>
</g>
<!-- Decoding&#45;&gt;Drain -->
<g id="edge5" class="edge">
<title>Decoding&#45;&gt;Drain</title>
<path fill="none" stroke="black" d="M652.4,-957.5C677.41,-891.49 728.43,-781.07 808.08,-717.82 828.88,-701.3 846.76,-719.07 865.08,-699.82 882.2,-681.83 889.84,-655.29 893.13,-632.31"/>
<polygon fill="black" stroke="black" points="896.59,-632.87 894.28,-622.53 889.64,-632.06 896.59,-632.87"/>
<text text-anchor="middle" x="891.08" y="-792.12" font-family="Times,serif" font-size="14.00">V4L2_DEC_CMD_STOP</text>
</g>
<!-- Seek -->
<g id="node7" class="node">
<title>Seek</title>
<ellipse fill="none" stroke="black" cx="430.08" cy="-223.23" rx="33.29" ry="33.29"/>
<text text-anchor="middle" x="430.08" y="-219.53" font-family="Times,serif" font-size="14.00">Seek</text>
</g>
<!-- Decoding&#45;&gt;Seek -->
<g id="edge7" class="edge">
<title>Decoding&#45;&gt;Seek</title>
<path fill="none" stroke="black" d="M578.04,-997.24C518.66,-978.81 426.87,-941.01 378.08,-873.81 333.12,-811.89 309.03,-604.12 335.08,-532.17 338.62,-522.38 345.25,-523.4 350.08,-514.17 392.74,-432.62 414.58,-325.93 424.04,-267.37"/>
<polygon fill="black" stroke="black" points="427.45,-268.24 425.54,-257.82 420.53,-267.16 427.45,-268.24"/>
<text text-anchor="middle" x="449.08" y="-580.8" font-family="Times,serif" font-size="14.00">VIDIOC_STREAMOFF(OUTPUT)</text>
</g>
<!-- EoS -->
<g id="node8" class="node">
<title>EoS</title>
<ellipse fill="none" stroke="black" cx="1061.08" cy="-795.82" rx="77.99" ry="77.99"/>
<text text-anchor="middle" x="1061.08" y="-792.12" font-family="Times,serif" font-size="14.00">End of Stream</text>
</g>
<!-- Decoding&#45;&gt;EoS -->
<g id="edge6" class="edge">
<title>Decoding&#45;&gt;EoS</title>
<path fill="none" stroke="black" d="M689.61,-994.73C758.14,-972.43 876.9,-929.53 969.08,-873.81 977.72,-868.59 986.38,-862.58 994.75,-856.28"/>
<polygon fill="black" stroke="black" points="996.75,-859.16 1002.51,-850.27 992.46,-853.63 996.75,-859.16"/>
<text text-anchor="middle" x="982.58" y="-918.11" font-family="Times,serif" font-size="14.00">EoS mark</text>
<text text-anchor="middle" x="982.58" y="-903.11" font-family="Times,serif" font-size="14.00">in the stream</text>
</g>
<!-- Initialization -->
<g id="node2" class="node">
<title>Initialization</title>
<ellipse fill="none" stroke="black" cx="320.08" cy="-69.54" rx="69.59" ry="69.59"/>
<text text-anchor="middle" x="320.08" y="-65.84" font-family="Times,serif" font-size="14.00">Initialization</text>
</g>
<!-- CaptureSetup -->
<g id="node3" class="node">
<title>CaptureSetup</title>
<ellipse fill="none" stroke="black" cx="243.08" cy="-584.5" rx="52.15" ry="52.15"/>
<text text-anchor="middle" x="243.08" y="-588.3" font-family="Times,serif" font-size="14.00">Capture</text>
<text text-anchor="middle" x="243.08" y="-573.3" font-family="Times,serif" font-size="14.00">setup</text>
</g>
<!-- Initialization&#45;&gt;CaptureSetup -->
<g id="edge2" class="edge">
<title>Initialization&#45;&gt;CaptureSetup</title>
<path fill="none" stroke="black" d="M300.23,-136.5C289.07,-176.12 275.86,-227.73 268.08,-274.38 253.97,-359 247.74,-458.03 245.04,-520.75"/>
<polygon fill="black" stroke="black" points="241.56,-520.38 244.64,-530.52 248.55,-520.67 241.56,-520.38"/>
<text text-anchor="middle" x="309.08" y="-308.18" font-family="Times,serif" font-size="14.00">CAPTURE</text>
<text text-anchor="middle" x="309.08" y="-293.18" font-family="Times,serif" font-size="14.00">format</text>
<text text-anchor="middle" x="309.08" y="-278.18" font-family="Times,serif" font-size="14.00">established</text>
</g>
<!-- CaptureSetup&#45;&gt;Stopped -->
<g id="edge3" class="edge">
<title>CaptureSetup&#45;&gt;Stopped</title>
<path fill="none" stroke="black" d="M284.18,-551.75C293.49,-545.01 303.48,-538.14 313.08,-532.17 387.88,-485.7 479.28,-440.25 536.35,-413.12"/>
<polygon fill="black" stroke="black" points="537.68,-416.36 545.22,-408.92 534.69,-410.03 537.68,-416.36"/>
<text text-anchor="middle" x="484.58" y="-495.47" font-family="Times,serif" font-size="14.00">CAPTURE</text>
<text text-anchor="middle" x="484.58" y="-480.47" font-family="Times,serif" font-size="14.00">buffers</text>
<text text-anchor="middle" x="484.58" y="-465.47" font-family="Times,serif" font-size="14.00">ready</text>
</g>
<!-- ResChange&#45;&gt;CaptureSetup -->
<g id="edge10" class="edge">
<title>ResChange&#45;&gt;CaptureSetup</title>
<path fill="none" stroke="black" d="M237.86,-730.34C237.96,-706.59 238.28,-679.48 239.08,-654.82 239.15,-652.66 239.23,-650.45 239.32,-648.22"/>
<polygon fill="black" stroke="black" points="242.8,-648.63 239.75,-638.48 235.81,-648.32 242.8,-648.63"/>
<text text-anchor="middle" x="280.08" y="-688.62" font-family="Times,serif" font-size="14.00">CAPTURE</text>
<text text-anchor="middle" x="280.08" y="-673.62" font-family="Times,serif" font-size="14.00">format</text>
<text text-anchor="middle" x="280.08" y="-658.62" font-family="Times,serif" font-size="14.00">established</text>
</g>
<!-- ResChange&#45;&gt;Seek -->
<g id="edge11" class="edge">
<title>ResChange&#45;&gt;Seek</title>
<path fill="none" stroke="black" d="M184.01,-758.94C100.25,-698.6 -45.38,-571.83 14.08,-454.17 87.51,-308.85 294.87,-250.95 386.09,-232.04"/>
<polygon fill="black" stroke="black" points="386.54,-235.52 395.65,-230.12 385.16,-228.65 386.54,-235.52"/>
<text text-anchor="middle" x="128.08" y="-480.47" font-family="Times,serif" font-size="14.00">VIDIOC_STREAMOFF(OUTPUT)</text>
</g>
<!-- Stopped&#45;&gt;Decoding -->
<g id="edge17" class="edge">
<title>Stopped&#45;&gt;Decoding</title>
<path fill="none" stroke="black" d="M606.57,-433.86C608.37,-440.61 609.96,-447.53 611.08,-454.17 626.6,-546.33 631.79,-816.26 633.4,-943.68"/>
<polygon fill="black" stroke="black" points="629.9,-943.35 633.52,-953.3 636.9,-943.26 629.9,-943.35"/>
<text text-anchor="middle" x="742.08" y="-688.62" font-family="Times,serif" font-size="14.00">V4L2_DEC_CMD_START</text>
<text text-anchor="middle" x="742.08" y="-673.62" font-family="Times,serif" font-size="14.00">or</text>
<text text-anchor="middle" x="742.08" y="-658.62" font-family="Times,serif" font-size="14.00">VIDIOC_STREAMON(CAPTURE)</text>
</g>
<!-- Stopped&#45;&gt;Seek -->
<g id="edge18" class="edge">
<title>Stopped&#45;&gt;Seek</title>
<path fill="none" stroke="black" d="M556.54,-351.12C528.24,-322.72 488.54,-282.89 461.2,-255.47"/>
<polygon fill="black" stroke="black" points="463.75,-253.07 454.21,-248.45 458.79,-258.01 463.75,-253.07"/>
<text text-anchor="middle" x="634.08" y="-293.18" font-family="Times,serif" font-size="14.00">VIDIOC_STREAMOFF(OUTPUT)</text>
</g>
<!-- Drain&#45;&gt;Stopped -->
<g id="edge13" class="edge">
<title>Drain&#45;&gt;Stopped</title>
<path fill="none" stroke="black" d="M858.69,-582.5C807.73,-579.18 715.1,-565.86 659.08,-514.17 638.09,-494.81 649.29,-479.49 636.08,-454.17 633.07,-448.4 629.65,-442.52 626.08,-436.76"/>
<polygon fill="black" stroke="black" points="629.14,-435.04 620.8,-428.51 623.25,-438.82 629.14,-435.04"/>
<text text-anchor="middle" x="778.08" y="-502.97" font-family="Times,serif" font-size="14.00">All CAPTURE</text>
<text text-anchor="middle" x="778.08" y="-487.97" font-family="Times,serif" font-size="14.00">buffers dequeued</text>
<text text-anchor="middle" x="778.08" y="-472.97" font-family="Times,serif" font-size="14.00">or</text>
<text text-anchor="middle" x="778.08" y="-457.97" font-family="Times,serif" font-size="14.00">VIDIOC_STREAMOFF(CAPTURE)</text>
</g>
<!-- Drain&#45;&gt;Seek -->
<g id="edge14" class="edge">
<title>Drain&#45;&gt;Seek</title>
<path fill="none" stroke="black" d="M902.07,-548.41C905.86,-521.77 907.84,-484.66 897.08,-454.17 862.91,-357.37 842.56,-322.86 752.08,-274.38 713.52,-253.73 599.18,-263.81 556.08,-256.38 528.04,-251.55 497.06,-243.68 472.85,-236.94"/>
<polygon fill="black" stroke="black" points="473.92,-233.61 463.34,-234.25 472.01,-240.34 473.92,-233.61"/>
<text text-anchor="middle" x="1004.08" y="-383.08" font-family="Times,serif" font-size="14.00">VIDIOC_STREAMOFF(OUTPUT)</text>
</g>
<!-- Seek&#45;&gt;Decoding -->
<g id="edge15" class="edge">
<title>Seek&#45;&gt;Decoding</title>
<path fill="none" stroke="black" d="M461.86,-234C487.14,-241.36 523.55,-251.07 556.08,-256.38 693.05,-278.75 1167.08,-246.99 1167.08,-385.78 1167.08,-796.82 1167.08,-796.82 1167.08,-796.82 1167.08,-832.06 1169.47,-845.8 1148.08,-873.81 1113.18,-919.51 1089.16,-917.27 1035.08,-936.81 922.79,-977.38 784.51,-997.01 703.15,-1005.7"/>
<polygon fill="black" stroke="black" points="703.15,-1002.18 693.57,-1006.69 703.87,-1009.14 703.15,-1002.18"/>
<text text-anchor="middle" x="1277.08" y="-580.8" font-family="Times,serif" font-size="14.00">VIDIOC_STREAMON(OUTPUT)</text>
</g>
<!-- Seek&#45;&gt;Initialization -->
<g id="edge16" class="edge">
<title>Seek&#45;&gt;Initialization</title>
<path fill="none" stroke="black" d="M396.94,-216.74C371.42,-210.59 337.78,-197.88 321.08,-172.09 316.75,-165.4 313.91,-157.91 312.18,-150.1"/>
<polygon fill="black" stroke="black" points="315.67,-149.75 310.67,-140.41 308.75,-150.83 315.67,-149.75"/>
<text text-anchor="middle" x="433.08" y="-160.89" font-family="Times,serif" font-size="14.00">VIDIOC_REQBUFS(OUTPUT, 0)</text>
</g>
<!-- EoS&#45;&gt;Drain -->
<g id="edge12" class="edge">
<title>EoS&#45;&gt;Drain</title>
<path fill="none" stroke="black" d="M1012.84,-733.99C984.18,-697.85 948.76,-653.19 924.29,-622.34"/>
<polygon fill="black" stroke="black" points="927.28,-620.48 918.33,-614.81 921.8,-624.82 927.28,-620.48"/>
<text text-anchor="middle" x="1009.58" y="-681.12" font-family="Times,serif" font-size="14.00">Implicit</text>
<text text-anchor="middle" x="1009.58" y="-666.12" font-family="Times,serif" font-size="14.00">drain</text>
</g>
<!-- qi -->
<g id="node9" class="node">
<title>qi</title>
<ellipse fill="black" stroke="black" cx="567.08" cy="-223.23" rx="1.8" ry="1.8"/>
</g>
<!-- qi&#45;&gt;Initialization -->
<g id="edge1" class="edge">
<title>qi&#45;&gt;Initialization</title>
<path fill="none" stroke="black" d="M567.04,-221.15C566.74,-214.34 564.25,-177.07 545.08,-157.09 506.77,-117.16 448.03,-95.39 400.17,-83.67"/>
<polygon fill="black" stroke="black" points="401.2,-80.32 390.67,-81.46 399.61,-87.14 401.2,-80.32"/>
<text text-anchor="middle" x="577.08" y="-160.89" font-family="Times,serif" font-size="14.00">open()</text>
</g>
</g>
</svg>
