<?xml version="1.0" encoding="UTF-8" standalone="no"?>
<!DOCTYPE svg PUBLIC "-//W3C//DTD SVG 1.1//EN"
 "http://www.w3.org/Graphics/SVG/1.1/DTD/svg11.dtd">
<!-- Generated by graphviz version 7.0.2 (0)
 -->
<!-- Title: NFC Pages: 1 -->
<svg width="514pt" height="404pt"
 viewBox="0.00 0.00 514.38 404.00" xmlns="http://www.w3.org/2000/svg" xmlns:xlink="http://www.w3.org/1999/xlink">
<g id="graph0" class="graph" transform="scale(1 1) rotate(0) translate(4 400)">
<title>NFC</title>
<polygon fill="white" stroke="none" points="-4,4 -4,-400 510.38,-400 510.38,4 -4,4"/>
<!-- cl_nfc -->
<g id="node1" class="node">
<title>cl_nfc</title>
<ellipse fill="none" stroke="black" cx="262.29" cy="-90" rx="68.49" ry="18"/>
<text text-anchor="middle" x="262.29" y="-86.3" font-family="Times,serif" font-size="14.00">mei/bus(nfc)</text>
</g>
<!-- me_cl_nfc -->
<g id="node2" class="node">
<title>me_cl_nfc</title>
<ellipse fill="none" stroke="black" cx="262.29" cy="-18" rx="63.09" ry="18"/>
<text text-anchor="middle" x="262.29" y="-14.3" font-family="Times,serif" font-size="14.00">me fw (nfc)</text>
</g>
<!-- cl_nfc&#45;&gt;me_cl_nfc -->
<g id="edge1" class="edge">
<title>cl_nfc&#45;&gt;me_cl_nfc</title>
<path fill="none" stroke="black" d="M262.29,-71.7C262.29,-64.41 262.29,-55.73 262.29,-47.54"/>
<polygon fill="black" stroke="black" points="265.79,-47.62 262.29,-37.62 258.79,-47.62 265.79,-47.62"/>
</g>
<!-- drivers/nfc/mei_phy -->
<g id="node3" class="node">
<title>drivers/nfc/mei_phy</title>
<ellipse fill="none" stroke="black" cx="262.29" cy="-162" rx="102.88" ry="18"/>
<text text-anchor="middle" x="262.29" y="-158.3" font-family="Times,serif" font-size="14.00">drivers/nfc/mei_phy</text>
</g>
<!-- drivers/nfc/mei_phy&#45;&gt;cl_nfc -->
<g id="edge2" class="edge">
<title>drivers/nfc/mei_phy&#45;&gt;cl_nfc</title>
<path fill="none" stroke="black" d="M262.29,-143.7C262.29,-136.41 262.29,-127.73 262.29,-119.54"/>
<polygon fill="black" stroke="black" points="265.79,-119.62 262.29,-109.62 258.79,-119.62 265.79,-119.62"/>
</g>
<!-- drivers/nfc/microread/mei -->
<g id="node4" class="node">
<title>drivers/nfc/microread/mei</title>
<ellipse fill="none" stroke="black" cx="131.29" cy="-234" rx="131.08" ry="18"/>
<text text-anchor="middle" x="131.29" y="-230.3" font-family="Times,serif" font-size="14.00">drivers/nfc/microread/mei</text>
</g>
<!-- drivers/nfc/microread/mei&#45;&gt;cl_nfc -->
<g id="edge3" class="edge">
<title>drivers/nfc/microread/mei&#45;&gt;cl_nfc</title>
<path fill="none" stroke="black" d="M130.64,-215.71C130.82,-196.26 133.91,-164.69 150.29,-144 163.64,-127.14 183.64,-115.36 203.07,-107.27"/>
<polygon fill="black" stroke="black" points="204.28,-110.56 212.35,-103.69 201.76,-104.03 204.28,-110.56"/>
</g>
<!-- drivers/nfc/microread/mei&#45;&gt;drivers/nfc/mei_phy -->
<g id="edge4" class="edge">
<title>drivers/nfc/microread/mei&#45;&gt;drivers/nfc/mei_phy</title>
<path fill="none" stroke="black" d="M163,-216.05C180.51,-206.7 202.45,-194.98 221.25,-184.93"/>
<polygon fill="black" stroke="black" points="222.82,-188.06 229.99,-180.26 219.52,-181.89 222.82,-188.06"/>
</g>
<!-- drivers/nfc/pn544/mei -->
<g id="node5" class="node">
<title>drivers/nfc/pn544/mei</title>
<ellipse fill="none" stroke="black" cx="393.29" cy="-234" rx="113.18" ry="18"/>
<text text-anchor="middle" x="393.29" y="-230.3" font-family="Times,serif" font-size="14.00">drivers/nfc/pn544/mei</text>
</g>
<!-- drivers/nfc/pn544/mei&#45;&gt;cl_nfc -->
<g id="edge5" class="edge">
<title>drivers/nfc/pn544/mei&#45;&gt;cl_nfc</title>
<path fill="none" stroke="black" d="M393.93,-215.71C393.76,-196.26 390.66,-164.69 374.29,-144 360.94,-127.14 340.93,-115.36 321.51,-107.27"/>
<polygon fill="black" stroke="black" points="322.82,-104.03 312.23,-103.69 320.3,-110.56 322.82,-104.03"/>
</g>
<!-- drivers/nfc/pn544/mei&#45;&gt;drivers/nfc/mei_phy -->
<g id="edge6" class="edge">
<title>drivers/nfc/pn544/mei&#45;&gt;drivers/nfc/mei_phy</title>
<path fill="none" stroke="black" d="M361.91,-216.23C344.41,-206.88 322.4,-195.12 303.53,-185.04"/>
<polygon fill="black" stroke="black" points="305.21,-181.97 294.74,-180.34 301.92,-188.14 305.21,-181.97"/>
</g>
<!-- net/nfc -->
<g id="node6" class="node">
<title>net/nfc</title>
<ellipse fill="none" stroke="black" cx="262.29" cy="-306" rx="42.79" ry="18"/>
<text text-anchor="middle" x="262.29" y="-302.3" font-family="Times,serif" font-size="14.00">net/nfc</text>
</g>
<!-- net/nfc&#45;&gt;drivers/nfc/microread/mei -->
<g id="edge7" class="edge">
<title>net/nfc&#45;&gt;drivers/nfc/microread/mei</title>
<path fill="none" stroke="black" d="M236.41,-291.17C218.21,-281.45 193.47,-268.23 172.57,-257.06"/>
<polygon fill="black" stroke="black" points="174.47,-254.1 164,-252.48 171.17,-260.28 174.47,-254.1"/>
</g>
<!-- net/nfc&#45;&gt;drivers/nfc/pn544/mei -->
<g id="edge8" class="edge">
<title>net/nfc&#45;&gt;drivers/nfc/pn544/mei</title>
<path fill="none" stroke="black" d="M288.17,-291.17C306.37,-281.45 331.1,-268.23 352.01,-257.06"/>
<polygon fill="black" stroke="black" points="353.41,-260.28 360.58,-252.48 350.11,-254.1 353.41,-260.28"/>
</g>
<!-- neard -->
<g id="node7" class="node">
<title>neard</title>
<ellipse fill="none" stroke="black" cx="262.29" cy="-378" rx="37.89" ry="18"/>
<text text-anchor="middle" x="262.29" y="-374.3" font-family="Times,serif" font-size="14.00">neard</text>
</g>
<!-- neard&#45;&gt;net/nfc -->
<g id="edge9" class="edge">
<title>neard&#45;&gt;net/nfc</title>
<path fill="none" stroke="black" d="M262.29,-359.7C262.29,-352.41 262.29,-343.73 262.29,-335.54"/>
<polygon fill="black" stroke="black" points="265.79,-335.62 262.29,-325.62 258.79,-335.62 265.79,-335.62"/>
</g>
</g>
</svg>
