<?xml version="1.0" encoding="UTF-8" standalone="no"?>
<!DOCTYPE svg PUBLIC "-//W3C//DTD SVG 1.1//EN"
 "http://www.w3.org/Graphics/SVG/1.1/DTD/svg11.dtd">
<!-- Generated by graphviz version 7.0.2 (0)
 -->
<!-- Pages: 1 -->
<svg width="340pt" height="116pt"
 viewBox="0.00 0.00 339.50 116.00" xmlns="http://www.w3.org/2000/svg" xmlns:xlink="http://www.w3.org/1999/xlink">
<g id="graph0" class="graph" transform="scale(1 1) rotate(0) translate(4 112)">
<polygon fill="white" stroke="none" points="-4,4 -4,-112 335.5,-112 335.5,4 -4,4"/>
<!-- drm_property A -->
<g id="node1" class="node">
<title>drm_property A</title>
<polygon fill="none" stroke="black" points="303.5,-108 174.5,-108 174.5,-72 303.5,-72 303.5,-108"/>
<text text-anchor="middle" x="239" y="-86.3" font-family="Times,serif" font-size="14.00">drm_property A</text>
</g>
<!-- drm_mode_object A -->
<g id="node2" class="node">
<title>drm_mode_object A</title>
<polygon fill="none" stroke="black" points="156,-36 0,-36 0,0 156,0 156,-36"/>
<text text-anchor="middle" x="78" y="-14.3" font-family="Times,serif" font-size="14.00">drm_mode_object A</text>
</g>
<!-- drm_property A&#45;&gt;drm_mode_object A -->
<g id="edge1" class="edge">
<title>drm_property A&#45;&gt;drm_mode_object A</title>
<path fill="none" stroke="black" d="M198.79,-71.52C177.48,-62.25 151.1,-50.78 128.43,-40.93"/>
<polygon fill="black" stroke="black" points="129.93,-37.76 119.37,-36.99 127.14,-44.18 129.93,-37.76"/>
</g>
<!-- drm_mode_object B -->
<g id="node3" class="node">
<title>drm_mode_object B</title>
<polygon fill="none" stroke="black" points="331.5,-36 174.5,-36 174.5,0 331.5,0 331.5,-36"/>
<text text-anchor="middle" x="253" y="-14.3" font-family="Times,serif" font-size="14.00">drm_mode_object B</text>
</g>
<!-- drm_property A&#45;&gt;drm_mode_object B -->
<g id="edge2" class="edge">
<title>drm_property A&#45;&gt;drm_mode_object B</title>
<path fill="none" stroke="black" d="M242.46,-71.7C243.94,-64.32 245.7,-55.52 247.35,-47.25"/>
<polygon fill="black" stroke="black" points="250.75,-48.08 249.28,-37.59 243.89,-46.71 250.75,-48.08"/>
</g>
<!-- drm_property B -->
<g id="node4" class="node">
<title>drm_property B</title>
<polygon fill="none" stroke="black" points="143,-108 13,-108 13,-72 143,-72 143,-108"/>
<text text-anchor="middle" x="78" y="-86.3" font-family="Times,serif" font-size="14.00">drm_property B</text>
</g>
<!-- drm_property B&#45;&gt;drm_mode_object A -->
<g id="edge3" class="edge">
<title>drm_property B&#45;&gt;drm_mode_object A</title>
<path fill="none" stroke="black" d="M78,-71.7C78,-64.41 78,-55.73 78,-47.54"/>
<polygon fill="black" stroke="black" points="81.5,-47.62 78,-37.62 74.5,-47.62 81.5,-47.62"/>
</g>
</g>
</svg>
