<?xml version="1.0" encoding="UTF-8" standalone="no"?>
<!DOCTYPE svg PUBLIC "-//W3C//DTD SVG 1.1//EN"
 "http://www.w3.org/Graphics/SVG/1.1/DTD/svg11.dtd">
<!-- Generated by graphviz version 7.0.2 (0)
 -->
<!-- Title: KMS Pages: 1 -->
<svg width="450pt" height="409pt"
 viewBox="0.00 0.00 450.00 409.00" xmlns="http://www.w3.org/2000/svg" xmlns:xlink="http://www.w3.org/1999/xlink">
<g id="graph0" class="graph" transform="scale(1 1) rotate(0) translate(4 405)">
<title>KMS</title>
<polygon fill="white" stroke="none" points="-4,4 -4,-405 446,-405 446,4 -4,4"/>
<g id="clust1" class="cluster">
<title>cluster_static</title>
<polygon fill="none" stroke="black" stroke-dasharray="5,2" points="81,-91 81,-310 365,-310 365,-91 81,-91"/>
<text text-anchor="middle" x="223" y="-294.8" font-family="Times,serif" font-size="14.00">Static Objects</text>
</g>
<g id="clust2" class="cluster">
<title>cluster_user_created</title>
<polygon fill="none" stroke="black" stroke-dasharray="5,2" points="8,-318 8,-393 434,-393 434,-318 8,-318"/>
<text text-anchor="middle" x="221" y="-377.8" font-family="Times,serif" font-size="14.00">Userspace&#45;Created</text>
</g>
<g id="clust3" class="cluster">
<title>cluster_connector</title>
<polygon fill="none" stroke="black" stroke-dasharray="5,2" points="68,-8 68,-83 378,-83 378,-8 68,-8"/>
<text text-anchor="middle" x="223" y="-67.8" font-family="Times,serif" font-size="14.00">Hotpluggable</text>
</g>
<!-- drm_plane A -->
<g id="node1" class="node">
<title>drm_plane A</title>
<polygon fill="lightgrey" stroke="black" points="343,-279 237,-279 237,-243 343,-243 343,-279"/>
<text text-anchor="middle" x="290" y="-257.3" font-family="Times,serif" font-size="14.00">drm_plane A</text>
</g>
<!-- drm_crtc -->
<g id="node2" class="node">
<title>drm_crtc</title>
<polygon fill="lightgrey" stroke="black" points="198,-207 118,-207 118,-171 198,-171 198,-207"/>
<text text-anchor="middle" x="158" y="-185.3" font-family="Times,serif" font-size="14.00">drm_crtc</text>
</g>
<!-- drm_plane A&#45;&gt;drm_crtc -->
<g id="edge1" class="edge">
<title>drm_plane A&#45;&gt;drm_crtc</title>
<path fill="none" stroke="black" d="M257.03,-242.52C239.97,-233.47 218.95,-222.32 200.66,-212.62"/>
<polygon fill="black" stroke="black" points="202.36,-209.56 191.89,-207.97 199.08,-215.75 202.36,-209.56"/>
</g>
<!-- drm_encoder A -->
<g id="node4" class="node">
<title>drm_encoder A</title>
<polygon fill="lightgrey" stroke="black" points="213,-135 89,-135 89,-99 213,-99 213,-135"/>
<text text-anchor="middle" x="151" y="-113.3" font-family="Times,serif" font-size="14.00">drm_encoder A</text>
</g>
<!-- drm_crtc&#45;&gt;drm_encoder A -->
<g id="edge3" class="edge">
<title>drm_crtc&#45;&gt;drm_encoder A</title>
<path fill="none" stroke="black" d="M156.27,-170.7C155.54,-163.41 154.67,-154.73 153.85,-146.54"/>
<polygon fill="black" stroke="black" points="157.34,-146.21 152.86,-136.61 150.37,-146.91 157.34,-146.21"/>
</g>
<!-- drm_encoder B -->
<g id="node5" class="node">
<title>drm_encoder B</title>
<polygon fill="lightgrey" stroke="black" points="356.5,-135 231.5,-135 231.5,-99 356.5,-99 356.5,-135"/>
<text text-anchor="middle" x="294" y="-113.3" font-family="Times,serif" font-size="14.00">drm_encoder B</text>
</g>
<!-- drm_crtc&#45;&gt;drm_encoder B -->
<g id="edge4" class="edge">
<title>drm_crtc&#45;&gt;drm_encoder B</title>
<path fill="none" stroke="black" d="M191.97,-170.52C209.63,-161.43 231.41,-150.22 250.31,-140.49"/>
<polygon fill="black" stroke="black" points="251.83,-143.64 259.12,-135.95 248.63,-137.42 251.83,-143.64"/>
</g>
<!-- drm_plane B -->
<g id="node3" class="node">
<title>drm_plane B</title>
<polygon fill="lightgrey" stroke="black" points="204.5,-279 97.5,-279 97.5,-243 204.5,-243 204.5,-279"/>
<text text-anchor="middle" x="151" y="-257.3" font-family="Times,serif" font-size="14.00">drm_plane B</text>
</g>
<!-- drm_plane B&#45;&gt;drm_crtc -->
<g id="edge2" class="edge">
<title>drm_plane B&#45;&gt;drm_crtc</title>
<path fill="none" stroke="black" d="M152.73,-242.7C153.46,-235.41 154.33,-226.73 155.15,-218.54"/>
<polygon fill="black" stroke="black" points="158.63,-218.91 156.14,-208.61 151.66,-218.21 158.63,-218.91"/>
</g>
<!-- drm_connector A -->
<g id="node8" class="node">
<title>drm_connector A</title>
<polygon fill="none" stroke="black" points="213.5,-52 76.5,-52 76.5,-16 213.5,-16 213.5,-52"/>
<text text-anchor="middle" x="145" y="-30.3" font-family="Times,serif" font-size="14.00">drm_connector A</text>
</g>
<!-- drm_encoder A&#45;&gt;drm_connector A -->
<g id="edge7" class="edge">
<title>drm_encoder A&#45;&gt;drm_connector A</title>
<path fill="none" stroke="black" d="M149.73,-98.82C148.97,-88.58 147.99,-75.33 147.11,-63.55"/>
<polygon fill="black" stroke="black" points="150.63,-63.66 146.4,-53.94 143.65,-64.17 150.63,-63.66"/>
</g>
<!-- drm_connector B -->
<g id="node9" class="node">
<title>drm_connector B</title>
<polygon fill="none" stroke="black" points="370,-52 232,-52 232,-16 370,-16 370,-52"/>
<text text-anchor="middle" x="301" y="-30.3" font-family="Times,serif" font-size="14.00">drm_connector B</text>
</g>
<!-- drm_encoder B&#45;&gt;drm_connector B -->
<g id="edge8" class="edge">
<title>drm_encoder B&#45;&gt;drm_connector B</title>
<path fill="none" stroke="black" d="M295.48,-98.82C296.37,-88.58 297.52,-75.33 298.53,-63.55"/>
<polygon fill="black" stroke="black" points="301.99,-64.2 299.36,-53.94 295.02,-63.6 301.99,-64.2"/>
</g>
<!-- drm_framebuffer 1 -->
<g id="node6" class="node">
<title>drm_framebuffer 1</title>
<ellipse fill="none" stroke="black" cx="328" cy="-344" rx="98.28" ry="18"/>
<text text-anchor="middle" x="328" y="-340.3" font-family="Times,serif" font-size="14.00">drm_framebuffer 1</text>
</g>
<!-- drm_framebuffer 1&#45;&gt;drm_plane A -->
<g id="edge5" class="edge">
<title>drm_framebuffer 1&#45;&gt;drm_plane A</title>
<path fill="none" stroke="black" d="M319.94,-325.82C315.04,-315.37 308.66,-301.77 303.05,-289.81"/>
<polygon fill="black" stroke="black" points="306.24,-288.37 298.82,-280.8 299.9,-291.34 306.24,-288.37"/>
</g>
<!-- drm_framebuffer 2 -->
<g id="node7" class="node">
<title>drm_framebuffer 2</title>
<ellipse fill="none" stroke="black" cx="114" cy="-344" rx="98.28" ry="18"/>
<text text-anchor="middle" x="114" y="-340.3" font-family="Times,serif" font-size="14.00">drm_framebuffer 2</text>
</g>
<!-- drm_framebuffer 2&#45;&gt;drm_plane B -->
<g id="edge6" class="edge">
<title>drm_framebuffer 2&#45;&gt;drm_plane B</title>
<path fill="none" stroke="black" d="M121.85,-325.82C126.62,-315.37 132.83,-301.77 138.29,-289.81"/>
<polygon fill="black" stroke="black" points="141.44,-291.36 142.41,-280.81 135.07,-288.45 141.44,-291.36"/>
</g>
</g>
</svg>
