<?xml version="1.0" encoding="UTF-8" standalone="no"?>
<!DOCTYPE svg PUBLIC "-//W3C//DTD SVG 1.1//EN"
 "http://www.w3.org/Graphics/SVG/1.1/DTD/svg11.dtd">
<!-- Generated by graphviz version 7.0.2 (0)
 -->
<!-- Title: single_ppl Pages: 1 -->
<svg width="751pt" height="238pt"
 viewBox="0.00 0.00 750.79 238.00" xmlns="http://www.w3.org/2000/svg" xmlns:xlink="http://www.w3.org/1999/xlink">
<g id="graph0" class="graph" transform="scale(1 1) rotate(0) translate(4 234)">
<title>single_ppl</title>
<polygon fill="white" stroke="none" points="-4,4 -4,-234 746.79,-234 746.79,4 -4,4"/>
<g id="clust2" class="cluster">
<title>cluster_pipeline</title>
<polygon fill="none" stroke="black" stroke-dasharray="5,2" points="8,-8 8,-222 616,-222 616,-8 8,-8"/>
</g>
<!-- Memory -->
<g id="node1" class="node">
<title>Memory</title>
<ellipse fill="none" stroke="black" cx="693.4" cy="-142" rx="49.29" ry="18"/>
<text text-anchor="middle" x="693.4" y="-138.3" font-family="Times,serif" font-size="14.00">Memory</text>
</g>
<!-- Monitor -->
<g id="node2" class="node">
<title>Monitor</title>
<ellipse fill="none" stroke="black" cx="693.4" cy="-88" rx="48.19" ry="18"/>
<text text-anchor="middle" x="693.4" y="-84.3" font-family="Times,serif" font-size="14.00">Monitor</text>
</g>
<!-- Scaler&#45;0 -->
<g id="node3" class="node">
<title>Scaler&#45;0</title>
<polygon fill="none" stroke="black" stroke-dasharray="5,2" points="198,-180 123,-180 123,-144 198,-144 198,-180"/>
<text text-anchor="middle" x="160.5" y="-158.3" font-family="Times,serif" font-size="14.00">Scaler&#45;0</text>
</g>
<!-- Compiz -->
<g id="node10" class="node">
<title>Compiz</title>
<polygon fill="lightgrey" stroke="black" points="304,-133 234,-133 234,-97 304,-97 304,-133"/>
<text text-anchor="middle" x="269" y="-111.3" font-family="Times,serif" font-size="14.00">Compiz</text>
</g>
<!-- Scaler&#45;0&#45;&gt;Compiz -->
<g id="edge9" class="edge">
<title>Scaler&#45;0&#45;&gt;Compiz</title>
<path fill="none" stroke="black" d="M198.45,-145.69C206.48,-142.15 215.05,-138.37 223.34,-134.71"/>
<polygon fill="black" stroke="black" points="224.5,-138.02 232.23,-130.78 221.67,-131.62 224.5,-138.02"/>
</g>
<!-- Scaler&#45;1 -->
<g id="node4" class="node">
<title>Scaler&#45;1</title>
<polygon fill="none" stroke="black" stroke-dasharray="5,2" points="198,-86 123,-86 123,-50 198,-50 198,-86"/>
<text text-anchor="middle" x="160.5" y="-64.3" font-family="Times,serif" font-size="14.00">Scaler&#45;1</text>
</g>
<!-- Scaler&#45;1&#45;&gt;Compiz -->
<g id="edge10" class="edge">
<title>Scaler&#45;1&#45;&gt;Compiz</title>
<path fill="none" stroke="black" d="M198.45,-84.31C206.48,-87.85 215.05,-91.63 223.34,-95.29"/>
<polygon fill="black" stroke="black" points="221.67,-98.38 232.23,-99.22 224.5,-91.98 221.67,-98.38"/>
</g>
<!-- Scaler&#45;0/1 -->
<g id="node5" class="node">
<title>Scaler&#45;0/1</title>
<polygon fill="none" stroke="black" stroke-dasharray="5,2" points="429,-160 340,-160 340,-124 429,-124 429,-160"/>
<text text-anchor="middle" x="384.5" y="-138.3" font-family="Times,serif" font-size="14.00">Scaler&#45;0/1</text>
</g>
<!-- Wb_layer -->
<g id="node11" class="node">
<title>Wb_layer</title>
<polygon fill="lightgrey" stroke="black" points="578,-160 495,-160 495,-124 578,-124 578,-160"/>
<text text-anchor="middle" x="536.5" y="-138.3" font-family="Times,serif" font-size="14.00">Wb_layer</text>
</g>
<!-- Scaler&#45;0/1&#45;&gt;Wb_layer -->
<g id="edge12" class="edge">
<title>Scaler&#45;0/1&#45;&gt;Wb_layer</title>
<path fill="none" stroke="black" d="M429.29,-142C446.24,-142 465.79,-142 483.45,-142"/>
<polygon fill="black" stroke="black" points="483.23,-145.5 493.23,-142 483.23,-138.5 483.23,-145.5"/>
</g>
<!-- Layer&#45;0 -->
<g id="node6" class="node">
<title>Layer&#45;0</title>
<polygon fill="lightgrey" stroke="black" points="87,-214 16,-214 16,-178 87,-178 87,-214"/>
<text text-anchor="middle" x="51.5" y="-192.3" font-family="Times,serif" font-size="14.00">Layer&#45;0</text>
</g>
<!-- Layer&#45;0&#45;&gt;Scaler&#45;0 -->
<g id="edge1" class="edge">
<title>Layer&#45;0&#45;&gt;Scaler&#45;0</title>
<path fill="none" stroke="black" d="M87.24,-184.96C95.13,-182.45 103.65,-179.75 111.97,-177.1"/>
<polygon fill="black" stroke="black" points="112.81,-180.51 121.28,-174.14 110.69,-173.84 112.81,-180.51"/>
</g>
<!-- Layer&#45;0&#45;&gt;Compiz -->
<g id="edge5" class="edge">
<title>Layer&#45;0&#45;&gt;Compiz</title>
<path fill="none" stroke="black" d="M87.43,-201.39C118.03,-204.5 162.95,-205.1 198,-189 219.49,-179.13 237.64,-159.37 250.06,-142.75"/>
<polygon fill="black" stroke="black" points="252.87,-144.84 255.82,-134.66 247.17,-140.78 252.87,-144.84"/>
</g>
<!-- Layer&#45;1 -->
<g id="node7" class="node">
<title>Layer&#45;1</title>
<polygon fill="lightgrey" stroke="black" points="87,-160 16,-160 16,-124 87,-124 87,-160"/>
<text text-anchor="middle" x="51.5" y="-138.3" font-family="Times,serif" font-size="14.00">Layer&#45;1</text>
</g>
<!-- Layer&#45;1&#45;&gt;Scaler&#45;0 -->
<g id="edge2" class="edge">
<title>Layer&#45;1&#45;&gt;Scaler&#45;0</title>
<path fill="none" stroke="black" d="M87.24,-148.49C95.04,-149.95 103.46,-151.52 111.69,-153.06"/>
<polygon fill="black" stroke="black" points="110.76,-156.45 121.24,-154.85 112.05,-149.57 110.76,-156.45"/>
</g>
<!-- Layer&#45;1&#45;&gt;Compiz -->
<g id="edge6" class="edge">
<title>Layer&#45;1&#45;&gt;Compiz</title>
<path fill="none" stroke="black" d="M87.12,-137.66C123.83,-133.06 181.99,-125.78 222.4,-120.71"/>
<polygon fill="black" stroke="black" points="222.83,-124.19 232.32,-119.47 221.96,-117.24 222.83,-124.19"/>
</g>
<!-- Layer&#45;2 -->
<g id="node8" class="node">
<title>Layer&#45;2</title>
<polygon fill="lightgrey" stroke="black" points="87,-106 16,-106 16,-70 87,-70 87,-106"/>
<text text-anchor="middle" x="51.5" y="-84.3" font-family="Times,serif" font-size="14.00">Layer&#45;2</text>
</g>
<!-- Layer&#45;2&#45;&gt;Scaler&#45;1 -->
<g id="edge3" class="edge">
<title>Layer&#45;2&#45;&gt;Scaler&#45;1</title>
<path fill="none" stroke="black" d="M87.24,-81.51C95.04,-80.05 103.46,-78.48 111.69,-76.94"/>
<polygon fill="black" stroke="black" points="112.05,-80.43 121.24,-75.15 110.76,-73.55 112.05,-80.43"/>
</g>
<!-- Layer&#45;2&#45;&gt;Compiz -->
<g id="edge7" class="edge">
<title>Layer&#45;2&#45;&gt;Compiz</title>
<path fill="none" stroke="black" d="M87.12,-92.34C123.83,-96.94 181.99,-104.22 222.4,-109.29"/>
<polygon fill="black" stroke="black" points="221.96,-112.76 232.32,-110.53 222.83,-105.81 221.96,-112.76"/>
</g>
<!-- Layer&#45;3 -->
<g id="node9" class="node">
<title>Layer&#45;3</title>
<polygon fill="lightgrey" stroke="black" points="87,-52 16,-52 16,-16 87,-16 87,-52"/>
<text text-anchor="middle" x="51.5" y="-30.3" font-family="Times,serif" font-size="14.00">Layer&#45;3</text>
</g>
<!-- Layer&#45;3&#45;&gt;Scaler&#45;1 -->
<g id="edge4" class="edge">
<title>Layer&#45;3&#45;&gt;Scaler&#45;1</title>
<path fill="none" stroke="black" d="M87.24,-45.04C95.13,-47.55 103.65,-50.25 111.97,-52.9"/>
<polygon fill="black" stroke="black" points="110.69,-56.16 121.28,-55.86 112.81,-49.49 110.69,-56.16"/>
</g>
<!-- Layer&#45;3&#45;&gt;Compiz -->
<g id="edge8" class="edge">
<title>Layer&#45;3&#45;&gt;Compiz</title>
<path fill="none" stroke="black" d="M87.43,-28.61C118.03,-25.5 162.95,-24.9 198,-41 219.49,-50.87 237.64,-70.63 250.06,-87.25"/>
<polygon fill="black" stroke="black" points="247.17,-89.22 255.82,-95.34 252.87,-85.16 247.17,-89.22"/>
</g>
<!-- Compiz&#45;&gt;Scaler&#45;0/1 -->
<g id="edge11" class="edge">
<title>Compiz&#45;&gt;Scaler&#45;0/1</title>
<path fill="none" stroke="black" d="M304.36,-123.17C311.99,-124.99 320.26,-126.96 328.47,-128.91"/>
<polygon fill="black" stroke="black" points="327.58,-132.29 338.12,-131.2 329.2,-125.48 327.58,-132.29"/>
</g>
<!-- Improc -->
<g id="node12" class="node">
<title>Improc</title>
<polygon fill="lightgrey" stroke="black" points="418,-106 351,-106 351,-70 418,-70 418,-106"/>
<text text-anchor="middle" x="384.5" y="-84.3" font-family="Times,serif" font-size="14.00">Improc</text>
</g>
<!-- Compiz&#45;&gt;Improc -->
<g id="edge13" class="edge">
<title>Compiz&#45;&gt;Improc</title>
<path fill="none" stroke="black" d="M304.36,-106.83C315.54,-104.17 328.09,-101.18 339.85,-98.38"/>
<polygon fill="black" stroke="black" points="340.42,-101.85 349.34,-96.13 338.8,-95.04 340.42,-101.85"/>
</g>
<!-- Wb_layer&#45;&gt;Memory -->
<g id="edge15" class="edge">
<title>Wb_layer&#45;&gt;Memory</title>
<path fill="none" stroke="black" d="M578.2,-142C594.75,-142 614.21,-142 632.33,-142"/>
<polygon fill="black" stroke="black" points="632.19,-145.5 642.19,-142 632.19,-138.5 632.19,-145.5"/>
</g>
<!-- Timing Controller -->
<g id="node13" class="node">
<title>Timing Controller</title>
<polygon fill="lightgrey" stroke="black" points="608,-106 465,-106 465,-70 608,-70 608,-106"/>
<text text-anchor="middle" x="536.5" y="-84.3" font-family="Times,serif" font-size="14.00">Timing Controller</text>
</g>
<!-- Improc&#45;&gt;Timing Controller -->
<g id="edge14" class="edge">
<title>Improc&#45;&gt;Timing Controller</title>
<path fill="none" stroke="black" d="M418.42,-88C428.85,-88 440.89,-88 453.19,-88"/>
<polygon fill="black" stroke="black" points="453.01,-91.5 463.01,-88 453.01,-84.5 453.01,-91.5"/>
</g>
<!-- Timing Controller&#45;&gt;Monitor -->
<g id="edge16" class="edge">
<title>Timing Controller&#45;&gt;Monitor</title>
<path fill="none" stroke="black" d="M608.15,-88C616.61,-88 625.18,-88 633.45,-88"/>
<polygon fill="black" stroke="black" points="633.39,-91.5 643.39,-88 633.39,-84.5 633.39,-91.5"/>
</g>
</g>
</svg>
