<?xml version="1.0" encoding="UTF-8" standalone="no"?>
<!DOCTYPE svg PUBLIC "-//W3C//DTD SVG 1.1//EN"
 "http://www.w3.org/Graphics/SVG/1.1/DTD/svg11.dtd">
<!-- Generated by graphviz version 7.0.2 (0)
 -->
<!-- Title: slave_ppl Pages: 1 -->
<svg width="987pt" height="506pt"
 viewBox="0.00 0.00 986.79 506.00" xmlns="http://www.w3.org/2000/svg" xmlns:xlink="http://www.w3.org/1999/xlink">
<g id="graph0" class="graph" transform="scale(1 1) rotate(0) translate(4 502)">
<title>slave_ppl</title>
<polygon fill="white" stroke="none" points="-4,4 -4,-502 982.79,-502 982.79,4 -4,4"/>
<g id="clust2" class="cluster">
<title>cluster_pipeline_slave</title>
<polygon fill="none" stroke="black" stroke-dasharray="5,2" points="8,-8 8,-245 442,-245 442,-8 8,-8"/>
<text text-anchor="middle" x="225" y="-229.8" font-family="Times,serif" font-size="14.00">Slave Pipeline_B</text>
</g>
<g id="clust4" class="cluster">
<title>cluster_pipeline_master</title>
<polygon fill="none" stroke="black" stroke-dasharray="5,2" points="182,-253 182,-490 852,-490 852,-253 182,-253"/>
<text text-anchor="middle" x="517" y="-474.8" font-family="Times,serif" font-size="14.00">Master Pipeline_A</text>
</g>
<!-- Memory -->
<g id="node1" class="node">
<title>Memory</title>
<ellipse fill="none" stroke="black" cx="929.4" cy="-374" rx="49.29" ry="18"/>
<text text-anchor="middle" x="929.4" y="-370.3" font-family="Times,serif" font-size="14.00">Memory</text>
</g>
<!-- Monitor -->
<g id="node2" class="node">
<title>Monitor</title>
<ellipse fill="none" stroke="black" cx="929.4" cy="-320" rx="48.19" ry="18"/>
<text text-anchor="middle" x="929.4" y="-316.3" font-family="Times,serif" font-size="14.00">Monitor</text>
</g>
<!-- Slave.Scaler&#45;0 -->
<g id="node3" class="node">
<title>Slave.Scaler&#45;0</title>
<polygon fill="none" stroke="black" stroke-dasharray="5,2" points="285,-183 166,-183 166,-147 285,-147 285,-183"/>
<text text-anchor="middle" x="225.5" y="-161.3" font-family="Times,serif" font-size="14.00">Slave.Scaler&#45;0</text>
</g>
<!-- Slave.Compiz -->
<g id="node9" class="node">
<title>Slave.Compiz</title>
<polygon fill="lightgrey" stroke="black" points="434,-146 321,-146 321,-110 434,-110 434,-146"/>
<text text-anchor="middle" x="377.5" y="-124.3" font-family="Times,serif" font-size="14.00">Slave.Compiz</text>
</g>
<!-- Slave.Scaler&#45;0&#45;&gt;Slave.Compiz -->
<g id="edge9" class="edge">
<title>Slave.Scaler&#45;0&#45;&gt;Slave.Compiz</title>
<path fill="none" stroke="black" d="M285.35,-150.48C293.37,-148.51 301.64,-146.47 309.78,-144.46"/>
<polygon fill="black" stroke="black" points="310.42,-147.91 319.29,-142.11 308.74,-141.11 310.42,-147.91"/>
</g>
<!-- Slave.Scaler&#45;1 -->
<g id="node4" class="node">
<title>Slave.Scaler&#45;1</title>
<polygon fill="none" stroke="black" stroke-dasharray="5,2" points="285,-89 166,-89 166,-53 285,-53 285,-89"/>
<text text-anchor="middle" x="225.5" y="-67.3" font-family="Times,serif" font-size="14.00">Slave.Scaler&#45;1</text>
</g>
<!-- Slave.Scaler&#45;1&#45;&gt;Slave.Compiz -->
<g id="edge10" class="edge">
<title>Slave.Scaler&#45;1&#45;&gt;Slave.Compiz</title>
<path fill="none" stroke="black" d="M274.79,-89.35C288.37,-94.51 303.29,-100.18 317.43,-105.55"/>
<polygon fill="black" stroke="black" points="316.04,-108.77 326.63,-109.05 318.53,-102.23 316.04,-108.77"/>
</g>
<!-- Slave.Layer&#45;0 -->
<g id="node5" class="node">
<title>Slave.Layer&#45;0</title>
<polygon fill="lightgrey" stroke="black" points="130,-214 16,-214 16,-178 130,-178 130,-214"/>
<text text-anchor="middle" x="73" y="-192.3" font-family="Times,serif" font-size="14.00">Slave.Layer&#45;0</text>
</g>
<!-- Slave.Layer&#45;0&#45;&gt;Slave.Scaler&#45;0 -->
<g id="edge1" class="edge">
<title>Slave.Layer&#45;0&#45;&gt;Slave.Scaler&#45;0</title>
<path fill="none" stroke="black" d="M130.47,-184.37C138.29,-182.76 146.41,-181.09 154.44,-179.43"/>
<polygon fill="black" stroke="black" points="155.13,-182.86 164.22,-177.42 153.72,-176.01 155.13,-182.86"/>
</g>
<!-- Slave.Layer&#45;0&#45;&gt;Slave.Compiz -->
<g id="edge5" class="edge">
<title>Slave.Layer&#45;0&#45;&gt;Slave.Compiz</title>
<path fill="none" stroke="black" d="M130.11,-203.67C173.5,-207.54 234.48,-208.44 285,-192 309.02,-184.18 332.29,-167.75 349.35,-153.49"/>
<polygon fill="black" stroke="black" points="351.26,-156.46 356.53,-147.28 346.68,-151.17 351.26,-156.46"/>
</g>
<!-- Slave.Layer&#45;1 -->
<g id="node6" class="node">
<title>Slave.Layer&#45;1</title>
<polygon fill="lightgrey" stroke="black" points="130,-160 16,-160 16,-124 130,-124 130,-160"/>
<text text-anchor="middle" x="73" y="-138.3" font-family="Times,serif" font-size="14.00">Slave.Layer&#45;1</text>
</g>
<!-- Slave.Layer&#45;1&#45;&gt;Slave.Scaler&#45;0 -->
<g id="edge2" class="edge">
<title>Slave.Layer&#45;1&#45;&gt;Slave.Scaler&#45;0</title>
<path fill="none" stroke="black" d="M130.47,-150.63C138.29,-151.83 146.41,-153.07 154.44,-154.29"/>
<polygon fill="black" stroke="black" points="153.79,-157.74 164.21,-155.79 154.85,-150.82 153.79,-157.74"/>
</g>
<!-- Slave.Layer&#45;1&#45;&gt;Slave.Compiz -->
<g id="edge6" class="edge">
<title>Slave.Layer&#45;1&#45;&gt;Slave.Compiz</title>
<path fill="none" stroke="black" d="M130.19,-139.4C180.81,-137.06 255.32,-133.61 309.12,-131.12"/>
<polygon fill="black" stroke="black" points="309.27,-134.62 319.1,-130.66 308.95,-127.62 309.27,-134.62"/>
</g>
<!-- Slave.Layer&#45;2 -->
<g id="node7" class="node">
<title>Slave.Layer&#45;2</title>
<polygon fill="lightgrey" stroke="black" points="130,-106 16,-106 16,-70 130,-70 130,-106"/>
<text text-anchor="middle" x="73" y="-84.3" font-family="Times,serif" font-size="14.00">Slave.Layer&#45;2</text>
</g>
<!-- Slave.Layer&#45;2&#45;&gt;Slave.Scaler&#45;1 -->
<g id="edge3" class="edge">
<title>Slave.Layer&#45;2&#45;&gt;Slave.Scaler&#45;1</title>
<path fill="none" stroke="black" d="M130.47,-81.62C138.29,-80.74 146.41,-79.82 154.44,-78.91"/>
<polygon fill="black" stroke="black" points="154.66,-82.41 164.2,-77.81 153.87,-75.46 154.66,-82.41"/>
</g>
<!-- Slave.Layer&#45;2&#45;&gt;Slave.Compiz -->
<g id="edge7" class="edge">
<title>Slave.Layer&#45;2&#45;&gt;Slave.Compiz</title>
<path fill="none" stroke="black" d="M130.19,-95.43C180.91,-102.14 255.63,-112.02 309.46,-119.14"/>
<polygon fill="black" stroke="black" points="308.74,-122.57 319.11,-120.41 309.66,-115.63 308.74,-122.57"/>
</g>
<!-- Slave.Layer&#45;3 -->
<g id="node8" class="node">
<title>Slave.Layer&#45;3</title>
<polygon fill="lightgrey" stroke="black" points="130,-52 16,-52 16,-16 130,-16 130,-52"/>
<text text-anchor="middle" x="73" y="-30.3" font-family="Times,serif" font-size="14.00">Slave.Layer&#45;3</text>
</g>
<!-- Slave.Layer&#45;3&#45;&gt;Slave.Scaler&#45;1 -->
<g id="edge4" class="edge">
<title>Slave.Layer&#45;3&#45;&gt;Slave.Scaler&#45;1</title>
<path fill="none" stroke="black" d="M130.47,-47.88C138.38,-49.83 146.59,-51.85 154.72,-53.84"/>
<polygon fill="black" stroke="black" points="153.69,-57.2 164.24,-56.18 155.36,-50.4 153.69,-57.2"/>
</g>
<!-- Slave.Layer&#45;3&#45;&gt;Slave.Compiz -->
<g id="edge8" class="edge">
<title>Slave.Layer&#45;3&#45;&gt;Slave.Compiz</title>
<path fill="none" stroke="black" d="M130.47,-26.5C174.32,-23.04 235.75,-23.47 285,-44 313.69,-55.96 339.09,-81.09 355.8,-100.76"/>
<polygon fill="black" stroke="black" points="353.06,-102.94 362.1,-108.46 358.47,-98.5 353.06,-102.94"/>
</g>
<!-- Compiz -->
<g id="node17" class="node">
<title>Compiz</title>
<polygon fill="lightgrey" stroke="black" points="540,-365 470,-365 470,-329 540,-329 540,-365"/>
<text text-anchor="middle" x="505" y="-343.3" font-family="Times,serif" font-size="14.00">Compiz</text>
</g>
<!-- Slave.Compiz&#45;&gt;Compiz -->
<g id="edge15" class="edge">
<title>Slave.Compiz&#45;&gt;Compiz</title>
<path fill="none" stroke="black" d="M388.98,-146.3C410.9,-184.54 461.69,-273.17 487.82,-318.77"/>
<polygon fill="black" stroke="black" points="484.7,-320.35 492.7,-327.29 490.77,-316.87 484.7,-320.35"/>
</g>
<!-- Scaler&#45;0 -->
<g id="node10" class="node">
<title>Scaler&#45;0</title>
<polygon fill="none" stroke="black" stroke-dasharray="5,2" points="415,-422 340,-422 340,-386 415,-386 415,-422"/>
<text text-anchor="middle" x="377.5" y="-400.3" font-family="Times,serif" font-size="14.00">Scaler&#45;0</text>
</g>
<!-- Scaler&#45;0&#45;&gt;Compiz -->
<g id="edge20" class="edge">
<title>Scaler&#45;0&#45;&gt;Compiz</title>
<path fill="none" stroke="black" d="M415.48,-387.21C429.32,-380.92 445.2,-373.71 459.64,-367.15"/>
<polygon fill="black" stroke="black" points="460.83,-370.45 468.48,-363.13 457.93,-364.08 460.83,-370.45"/>
</g>
<!-- Scaler&#45;1 -->
<g id="node11" class="node">
<title>Scaler&#45;1</title>
<polygon fill="none" stroke="black" stroke-dasharray="5,2" points="415,-328 340,-328 340,-292 415,-292 415,-328"/>
<text text-anchor="middle" x="377.5" y="-306.3" font-family="Times,serif" font-size="14.00">Scaler&#45;1</text>
</g>
<!-- Scaler&#45;1&#45;&gt;Compiz -->
<g id="edge21" class="edge">
<title>Scaler&#45;1&#45;&gt;Compiz</title>
<path fill="none" stroke="black" d="M415.48,-320.9C429.19,-324.94 444.89,-329.57 459.22,-333.8"/>
<polygon fill="black" stroke="black" points="457.83,-337.04 468.41,-336.51 459.81,-330.32 457.83,-337.04"/>
</g>
<!-- Scaler&#45;0/1 -->
<g id="node12" class="node">
<title>Scaler&#45;0/1</title>
<polygon fill="none" stroke="black" stroke-dasharray="5,2" points="665,-392 576,-392 576,-356 665,-356 665,-392"/>
<text text-anchor="middle" x="620.5" y="-370.3" font-family="Times,serif" font-size="14.00">Scaler&#45;0/1</text>
</g>
<!-- Wb_layer -->
<g id="node18" class="node">
<title>Wb_layer</title>
<polygon fill="lightgrey" stroke="black" points="814,-392 731,-392 731,-356 814,-356 814,-392"/>
<text text-anchor="middle" x="772.5" y="-370.3" font-family="Times,serif" font-size="14.00">Wb_layer</text>
</g>
<!-- Scaler&#45;0/1&#45;&gt;Wb_layer -->
<g id="edge23" class="edge">
<title>Scaler&#45;0/1&#45;&gt;Wb_layer</title>
<path fill="none" stroke="black" d="M665.29,-374C682.24,-374 701.79,-374 719.45,-374"/>
<polygon fill="black" stroke="black" points="719.23,-377.5 729.23,-374 719.23,-370.5 719.23,-377.5"/>
</g>
<!-- Layer&#45;0 -->
<g id="node13" class="node">
<title>Layer&#45;0</title>
<polygon fill="lightgrey" stroke="black" points="261,-459 190,-459 190,-423 261,-423 261,-459"/>
<text text-anchor="middle" x="225.5" y="-437.3" font-family="Times,serif" font-size="14.00">Layer&#45;0</text>
</g>
<!-- Layer&#45;0&#45;&gt;Scaler&#45;0 -->
<g id="edge11" class="edge">
<title>Layer&#45;0&#45;&gt;Scaler&#45;0</title>
<path fill="none" stroke="black" d="M261.29,-432.42C281.26,-427.49 306.64,-421.23 328.48,-415.84"/>
<polygon fill="black" stroke="black" points="329.2,-419.27 338.07,-413.48 327.52,-412.48 329.2,-419.27"/>
</g>
<!-- Layer&#45;0&#45;&gt;Compiz -->
<g id="edge16" class="edge">
<title>Layer&#45;0&#45;&gt;Compiz</title>
<path fill="none" stroke="black" d="M261.36,-448.09C306.07,-455.33 384.68,-461.62 442,-431 464.53,-418.97 481.04,-394.73 491.33,-375.37"/>
<polygon fill="black" stroke="black" points="494.39,-377.09 495.73,-366.58 488.13,-373.96 494.39,-377.09"/>
</g>
<!-- Layer&#45;1 -->
<g id="node14" class="node">
<title>Layer&#45;1</title>
<polygon fill="lightgrey" stroke="black" points="261,-405 190,-405 190,-369 261,-369 261,-405"/>
<text text-anchor="middle" x="225.5" y="-383.3" font-family="Times,serif" font-size="14.00">Layer&#45;1</text>
</g>
<!-- Layer&#45;1&#45;&gt;Scaler&#45;0 -->
<g id="edge12" class="edge">
<title>Layer&#45;1&#45;&gt;Scaler&#45;0</title>
<path fill="none" stroke="black" d="M261.29,-390.94C281.17,-393.2 306.4,-396.06 328.18,-398.52"/>
<polygon fill="black" stroke="black" points="327.71,-401.99 338.04,-399.64 328.5,-395.04 327.71,-401.99"/>
</g>
<!-- Layer&#45;1&#45;&gt;Compiz -->
<g id="edge17" class="edge">
<title>Layer&#45;1&#45;&gt;Compiz</title>
<path fill="none" stroke="black" d="M261.36,-381.97C311.38,-374.77 403.52,-361.48 458.74,-353.52"/>
<polygon fill="black" stroke="black" points="459.03,-357.02 468.43,-352.13 458.03,-350.09 459.03,-357.02"/>
</g>
<!-- Layer&#45;2 -->
<g id="node15" class="node">
<title>Layer&#45;2</title>
<polygon fill="lightgrey" stroke="black" points="261,-351 190,-351 190,-315 261,-315 261,-351"/>
<text text-anchor="middle" x="225.5" y="-329.3" font-family="Times,serif" font-size="14.00">Layer&#45;2</text>
</g>
<!-- Layer&#45;2&#45;&gt;Scaler&#45;1 -->
<g id="edge13" class="edge">
<title>Layer&#45;2&#45;&gt;Scaler&#45;1</title>
<path fill="none" stroke="black" d="M261.29,-327.67C281.17,-324.62 306.4,-320.75 328.18,-317.41"/>
<polygon fill="black" stroke="black" points="328.69,-320.87 338.05,-315.9 327.63,-313.95 328.69,-320.87"/>
</g>
<!-- Layer&#45;2&#45;&gt;Compiz -->
<g id="edge18" class="edge">
<title>Layer&#45;2&#45;&gt;Compiz</title>
<path fill="none" stroke="black" d="M261.36,-334.76C311.38,-337.28 403.52,-341.93 458.74,-344.72"/>
<polygon fill="black" stroke="black" points="458.25,-348.2 468.42,-345.2 458.61,-341.21 458.25,-348.2"/>
</g>
<!-- Layer&#45;3 -->
<g id="node16" class="node">
<title>Layer&#45;3</title>
<polygon fill="lightgrey" stroke="black" points="261,-297 190,-297 190,-261 261,-261 261,-297"/>
<text text-anchor="middle" x="225.5" y="-275.3" font-family="Times,serif" font-size="14.00">Layer&#45;3</text>
</g>
<!-- Layer&#45;3&#45;&gt;Scaler&#45;1 -->
<g id="edge14" class="edge">
<title>Layer&#45;3&#45;&gt;Scaler&#45;1</title>
<path fill="none" stroke="black" d="M261.29,-286.19C281.26,-290.32 306.64,-295.56 328.48,-300.08"/>
<polygon fill="black" stroke="black" points="327.56,-303.46 338.06,-302.06 328.97,-296.6 327.56,-303.46"/>
</g>
<!-- Layer&#45;3&#45;&gt;Compiz -->
<g id="edge19" class="edge">
<title>Layer&#45;3&#45;&gt;Compiz</title>
<path fill="none" stroke="black" d="M261.43,-271.79C305.53,-264.4 382.8,-257.28 442,-283 459.52,-290.61 474.57,-305.78 485.45,-319.43"/>
<polygon fill="black" stroke="black" points="482.58,-321.44 491.38,-327.32 488.17,-317.23 482.58,-321.44"/>
</g>
<!-- Compiz&#45;&gt;Scaler&#45;0/1 -->
<g id="edge22" class="edge">
<title>Compiz&#45;&gt;Scaler&#45;0/1</title>
<path fill="none" stroke="black" d="M540.36,-355.17C547.99,-356.99 556.26,-358.96 564.47,-360.91"/>
<polygon fill="black" stroke="black" points="563.58,-364.29 574.12,-363.2 565.2,-357.48 563.58,-364.29"/>
</g>
<!-- Improc -->
<g id="node19" class="node">
<title>Improc</title>
<polygon fill="lightgrey" stroke="black" points="654,-338 587,-338 587,-302 654,-302 654,-338"/>
<text text-anchor="middle" x="620.5" y="-316.3" font-family="Times,serif" font-size="14.00">Improc</text>
</g>
<!-- Compiz&#45;&gt;Improc -->
<g id="edge24" class="edge">
<title>Compiz&#45;&gt;Improc</title>
<path fill="none" stroke="black" d="M540.36,-338.83C551.54,-336.17 564.09,-333.18 575.85,-330.38"/>
<polygon fill="black" stroke="black" points="576.42,-333.85 585.34,-328.13 574.8,-327.04 576.42,-333.85"/>
</g>
<!-- Wb_layer&#45;&gt;Memory -->
<g id="edge26" class="edge">
<title>Wb_layer&#45;&gt;Memory</title>
<path fill="none" stroke="black" d="M814.2,-374C830.75,-374 850.21,-374 868.33,-374"/>
<polygon fill="black" stroke="black" points="868.19,-377.5 878.19,-374 868.19,-370.5 868.19,-377.5"/>
</g>
<!-- Timing Controller -->
<g id="node20" class="node">
<title>Timing Controller</title>
<polygon fill="lightgrey" stroke="black" points="844,-338 701,-338 701,-302 844,-302 844,-338"/>
<text text-anchor="middle" x="772.5" y="-316.3" font-family="Times,serif" font-size="14.00">Timing Controller</text>
</g>
<!-- Improc&#45;&gt;Timing Controller -->
<g id="edge25" class="edge">
<title>Improc&#45;&gt;Timing Controller</title>
<path fill="none" stroke="black" d="M654.42,-320C664.85,-320 676.89,-320 689.19,-320"/>
<polygon fill="black" stroke="black" points="689.01,-323.5 699.01,-320 689.01,-316.5 689.01,-323.5"/>
</g>
<!-- Timing Controller&#45;&gt;Monitor -->
<g id="edge27" class="edge">
<title>Timing Controller&#45;&gt;Monitor</title>
<path fill="none" stroke="black" d="M844.15,-320C852.61,-320 861.18,-320 869.45,-320"/>
<polygon fill="black" stroke="black" points="869.39,-323.5 879.39,-320 869.39,-316.5 869.39,-323.5"/>
</g>
</g>
</svg>
