<?xml version="1.0" encoding="UTF-8" standalone="no"?>
<!DOCTYPE svg PUBLIC "-//W3C//DTD SVG 1.1//EN"
 "http://www.w3.org/Graphics/SVG/1.1/DTD/svg11.dtd">
<!-- Generated by graphviz version 7.0.2 (0)
 -->
<!-- Pages: 1 -->
<svg width="1590pt" height="412pt"
 viewBox="0.00 0.00 1590.00 412.00" xmlns="http://www.w3.org/2000/svg" xmlns:xlink="http://www.w3.org/1999/xlink">
<g id="graph0" class="graph" transform="scale(1 1) rotate(0) translate(4 408)">
<polygon fill="white" stroke="none" points="-4,4 -4,-408 1586,-408 1586,4 -4,4"/>
<g id="clust1" class="cluster">
<title>cluster_state</title>
<polygon fill="none" stroke="black" stroke-dasharray="5,2" points="8,-248 8,-396 1238,-396 1238,-248 8,-248"/>
<text text-anchor="middle" x="623" y="-380.8" font-family="Times,serif" font-size="14.00">Free&#45;standing state</text>
</g>
<g id="clust2" class="cluster">
<title>cluster_current</title>
<polygon fill="none" stroke="black" stroke-dasharray="5,2" points="742,-8 742,-229 1574,-229 1574,-8 742,-8"/>
<text text-anchor="middle" x="1158" y="-213.8" font-family="Times,serif" font-size="14.00">Current state</text>
</g>
<!-- drm_atomic_state -->
<g id="node1" class="node">
<title>drm_atomic_state</title>
<polygon fill="none" stroke="black" points="774.5,-365 631.5,-365 631.5,-329 774.5,-329 774.5,-365"/>
<text text-anchor="middle" x="703" y="-343.3" font-family="Times,serif" font-size="14.00">drm_atomic_state</text>
</g>
<!-- duplicated drm_plane_state A -->
<g id="node2" class="node">
<title>duplicated drm_plane_state A</title>
<polygon fill="none" stroke="black" points="244,-292 16,-292 16,-256 244,-256 244,-292"/>
<text text-anchor="middle" x="130" y="-270.3" font-family="Times,serif" font-size="14.00">duplicated drm_plane_state A</text>
</g>
<!-- drm_atomic_state&#45;&gt;duplicated drm_plane_state A -->
<g id="edge1" class="edge">
<title>drm_atomic_state&#45;&gt;duplicated drm_plane_state A</title>
<path fill="none" stroke="black" d="M631.25,-337.79C544.74,-327.8 394.62,-310.19 255.52,-292.31"/>
<polygon fill="black" stroke="black" points="256.11,-288.86 245.74,-291.05 255.21,-295.8 256.11,-288.86"/>
</g>
<!-- duplicated drm_plane_state B -->
<g id="node3" class="node">
<title>duplicated drm_plane_state B</title>
<polygon fill="none" stroke="black" points="491.5,-292 262.5,-292 262.5,-256 491.5,-256 491.5,-292"/>
<text text-anchor="middle" x="377" y="-270.3" font-family="Times,serif" font-size="14.00">duplicated drm_plane_state B</text>
</g>
<!-- drm_atomic_state&#45;&gt;duplicated drm_plane_state B -->
<g id="edge2" class="edge">
<title>drm_atomic_state&#45;&gt;duplicated drm_plane_state B</title>
<path fill="none" stroke="black" d="M631.05,-330.33C583.19,-319.91 519.9,-306.12 468.47,-294.92"/>
<polygon fill="black" stroke="black" points="469.34,-291.53 458.83,-292.82 467.85,-298.37 469.34,-291.53"/>
</g>
<!-- duplicated drm_crtc_state -->
<g id="node4" class="node">
<title>duplicated drm_crtc_state</title>
<polygon fill="none" stroke="black" points="712.5,-292 509.5,-292 509.5,-256 712.5,-256 712.5,-292"/>
<text text-anchor="middle" x="611" y="-270.3" font-family="Times,serif" font-size="14.00">duplicated drm_crtc_state</text>
</g>
<!-- drm_atomic_state&#45;&gt;duplicated drm_crtc_state -->
<g id="edge3" class="edge">
<title>drm_atomic_state&#45;&gt;duplicated drm_crtc_state</title>
<path fill="none" stroke="black" d="M680.73,-328.81C669.18,-319.9 654.87,-308.86 642.23,-299.1"/>
<polygon fill="black" stroke="black" points="644.64,-296.54 634.58,-293.2 640.36,-302.08 644.64,-296.54"/>
</g>
<!-- duplicated drm_connector_state -->
<g id="node5" class="node">
<title>duplicated drm_connector_state</title>
<polygon fill="none" stroke="black" points="975.5,-292 730.5,-292 730.5,-256 975.5,-256 975.5,-292"/>
<text text-anchor="middle" x="853" y="-270.3" font-family="Times,serif" font-size="14.00">duplicated drm_connector_state</text>
</g>
<!-- drm_atomic_state&#45;&gt;duplicated drm_connector_state -->
<g id="edge4" class="edge">
<title>drm_atomic_state&#45;&gt;duplicated drm_connector_state</title>
<path fill="none" stroke="black" d="M739.69,-328.63C759.67,-319.18 784.6,-307.38 805.99,-297.25"/>
<polygon fill="black" stroke="black" points="807.26,-300.52 814.8,-293.08 804.26,-294.2 807.26,-300.52"/>
</g>
<!-- duplicated driver private state -->
<g id="node6" class="node">
<title>duplicated driver private state</title>
<polygon fill="none" stroke="black" points="1230,-292 994,-292 994,-256 1230,-256 1230,-292"/>
<text text-anchor="middle" x="1112" y="-270.3" font-family="Times,serif" font-size="14.00">duplicated driver private state</text>
</g>
<!-- drm_atomic_state&#45;&gt;duplicated driver private state -->
<g id="edge5" class="edge">
<title>drm_atomic_state&#45;&gt;duplicated driver private state</title>
<path fill="none" stroke="black" d="M774.71,-333.55C837.14,-322.71 928.67,-306.83 1000.63,-294.33"/>
<polygon fill="black" stroke="black" points="1000.8,-297.86 1010.06,-292.7 999.61,-290.96 1000.8,-297.86"/>
</g>
<!-- drm_device -->
<g id="node7" class="node">
<title>drm_device</title>
<polygon fill="none" stroke="black" points="1195,-198 1097,-198 1097,-162 1195,-162 1195,-198"/>
<text text-anchor="middle" x="1146" y="-176.3" font-family="Times,serif" font-size="14.00">drm_device</text>
</g>
<!-- drm_atomic_state&#45;&gt;drm_device -->
<g id="edge16" class="edge">
<title>drm_atomic_state&#45;&gt;drm_device</title>
<path fill="none" stroke="black" d="M774.85,-344.01C913.81,-339.43 1208.44,-325.8 1239,-292 1252.12,-277.5 1247.91,-265.41 1239,-248 1229.43,-229.32 1211.97,-214.66 1194.73,-203.88"/>
<polygon fill="black" stroke="black" points="1196.93,-201.11 1186.53,-199.05 1193.38,-207.14 1196.93,-201.11"/>
<text text-anchor="middle" x="1301.5" y="-270.3" font-family="Times,serif" font-size="14.00">atomic_commit</text>
</g>
<!-- duplicated drm_plane_state A&#45;&gt;drm_device -->
<!-- drm_plane A -->
<g id="node8" class="node">
<title>drm_plane A</title>
<polygon fill="none" stroke="black" points="925,-125 819,-125 819,-89 925,-89 925,-125"/>
<text text-anchor="middle" x="872" y="-103.3" font-family="Times,serif" font-size="14.00">drm_plane A</text>
</g>
<!-- drm_device&#45;&gt;drm_plane A -->
<g id="edge6" class="edge">
<title>drm_device&#45;&gt;drm_plane A</title>
<path fill="none" stroke="black" d="M1096.7,-166.22C1051.81,-154.59 985.27,-137.35 936.24,-124.65"/>
<polygon fill="black" stroke="black" points="937.14,-121.26 926.58,-122.14 935.38,-128.04 937.14,-121.26"/>
</g>
<!-- drm_plane B -->
<g id="node9" class="node">
<title>drm_plane B</title>
<polygon fill="none" stroke="black" points="1076.5,-125 969.5,-125 969.5,-89 1076.5,-89 1076.5,-125"/>
<text text-anchor="middle" x="1023" y="-103.3" font-family="Times,serif" font-size="14.00">drm_plane B</text>
</g>
<!-- drm_device&#45;&gt;drm_plane B -->
<g id="edge7" class="edge">
<title>drm_device&#45;&gt;drm_plane B</title>
<path fill="none" stroke="black" d="M1115.91,-161.63C1099.98,-152.43 1080.2,-141.02 1062.99,-131.08"/>
<polygon fill="black" stroke="black" points="1064.93,-128.16 1054.52,-126.19 1061.43,-134.22 1064.93,-128.16"/>
</g>
<!-- drm_crtc -->
<g id="node10" class="node">
<title>drm_crtc</title>
<polygon fill="none" stroke="black" points="1186,-125 1106,-125 1106,-89 1186,-89 1186,-125"/>
<text text-anchor="middle" x="1146" y="-103.3" font-family="Times,serif" font-size="14.00">drm_crtc</text>
</g>
<!-- drm_device&#45;&gt;drm_crtc -->
<g id="edge8" class="edge">
<title>drm_device&#45;&gt;drm_crtc</title>
<path fill="none" stroke="black" d="M1146,-161.81C1146,-154.23 1146,-145.1 1146,-136.54"/>
<polygon fill="black" stroke="black" points="1149.5,-136.54 1146,-126.54 1142.5,-136.54 1149.5,-136.54"/>
</g>
<!-- drm_connector -->
<g id="node11" class="node">
<title>drm_connector</title>
<polygon fill="none" stroke="black" points="1348.5,-125 1225.5,-125 1225.5,-89 1348.5,-89 1348.5,-125"/>
<text text-anchor="middle" x="1287" y="-103.3" font-family="Times,serif" font-size="14.00">drm_connector</text>
</g>
<!-- drm_device&#45;&gt;drm_connector -->
<g id="edge9" class="edge">
<title>drm_device&#45;&gt;drm_connector</title>
<path fill="none" stroke="black" d="M1180.49,-161.63C1199.1,-152.26 1222.28,-140.59 1242.26,-130.53"/>
<polygon fill="black" stroke="black" points="1243.67,-133.74 1251.02,-126.12 1240.52,-127.49 1243.67,-133.74"/>
</g>
<!-- driver private object -->
<g id="node12" class="node">
<title>driver private object</title>
<polygon fill="none" stroke="black" points="1548,-125 1384,-125 1384,-89 1548,-89 1548,-125"/>
<text text-anchor="middle" x="1466" y="-103.3" font-family="Times,serif" font-size="14.00">driver private object</text>
</g>
<!-- drm_device&#45;&gt;driver private object -->
<g id="edge10" class="edge">
<title>drm_device&#45;&gt;driver private object</title>
<path fill="none" stroke="black" d="M1195.3,-168.06C1243.39,-157.39 1317.66,-140.91 1376.25,-127.91"/>
<polygon fill="black" stroke="black" points="1376.88,-131.36 1385.89,-125.77 1375.37,-124.52 1376.88,-131.36"/>
</g>
<!-- drm_plane_state A -->
<g id="node13" class="node">
<title>drm_plane_state A</title>
<polygon fill="none" stroke="black" points="899.5,-52 750.5,-52 750.5,-16 899.5,-16 899.5,-52"/>
<text text-anchor="middle" x="825" y="-30.3" font-family="Times,serif" font-size="14.00">drm_plane_state A</text>
</g>
<!-- drm_plane A&#45;&gt;drm_plane_state A -->
<g id="edge11" class="edge">
<title>drm_plane A&#45;&gt;drm_plane_state A</title>
<path fill="none" stroke="black" d="M860.62,-88.81C855.2,-80.62 848.58,-70.62 842.53,-61.48"/>
<polygon fill="black" stroke="black" points="845.55,-59.7 837.11,-53.29 839.71,-63.56 845.55,-59.7"/>
</g>
<!-- drm_plane_state B -->
<g id="node14" class="node">
<title>drm_plane_state B</title>
<polygon fill="none" stroke="black" points="1066.5,-52 917.5,-52 917.5,-16 1066.5,-16 1066.5,-52"/>
<text text-anchor="middle" x="992" y="-30.3" font-family="Times,serif" font-size="14.00">drm_plane_state B</text>
</g>
<!-- drm_plane B&#45;&gt;drm_plane_state B -->
<g id="edge12" class="edge">
<title>drm_plane B&#45;&gt;drm_plane_state B</title>
<path fill="none" stroke="black" d="M1015.5,-88.81C1012.03,-80.88 1007.83,-71.26 1003.95,-62.36"/>
<polygon fill="black" stroke="black" points="1007.25,-61.18 1000.04,-53.42 1000.83,-63.98 1007.25,-61.18"/>
</g>
<!-- drm_crtc_state -->
<g id="node15" class="node">
<title>drm_crtc_state</title>
<polygon fill="none" stroke="black" points="1207.5,-52 1084.5,-52 1084.5,-16 1207.5,-16 1207.5,-52"/>
<text text-anchor="middle" x="1146" y="-30.3" font-family="Times,serif" font-size="14.00">drm_crtc_state</text>
</g>
<!-- drm_crtc&#45;&gt;drm_crtc_state -->
<g id="edge13" class="edge">
<title>drm_crtc&#45;&gt;drm_crtc_state</title>
<path fill="none" stroke="black" d="M1146,-88.81C1146,-81.23 1146,-72.1 1146,-63.54"/>
<polygon fill="black" stroke="black" points="1149.5,-63.54 1146,-53.54 1142.5,-63.54 1149.5,-63.54"/>
</g>
<!-- drm_connector_state -->
<g id="node16" class="node">
<title>drm_connector_state</title>
<polygon fill="none" stroke="black" points="1392,-52 1226,-52 1226,-16 1392,-16 1392,-52"/>
<text text-anchor="middle" x="1309" y="-30.3" font-family="Times,serif" font-size="14.00">drm_connector_state</text>
</g>
<!-- drm_connector&#45;&gt;drm_connector_state -->
<g id="edge14" class="edge">
<title>drm_connector&#45;&gt;drm_connector_state</title>
<path fill="none" stroke="black" d="M1292.33,-88.81C1294.73,-81.05 1297.63,-71.68 1300.34,-62.95"/>
<polygon fill="black" stroke="black" points="1303.66,-64.06 1303.28,-53.47 1296.97,-61.99 1303.66,-64.06"/>
</g>
<!-- driver private state -->
<g id="node17" class="node">
<title>driver private state</title>
<polygon fill="none" stroke="black" points="1566,-52 1410,-52 1410,-16 1566,-16 1566,-52"/>
<text text-anchor="middle" x="1488" y="-30.3" font-family="Times,serif" font-size="14.00">driver private state</text>
</g>
<!-- driver private object&#45;&gt;driver private state -->
<g id="edge15" class="edge">
<title>driver private object&#45;&gt;driver private state</title>
<path fill="none" stroke="black" d="M1471.33,-88.81C1473.73,-81.05 1476.63,-71.68 1479.34,-62.95"/>
<polygon fill="black" stroke="black" points="1482.66,-64.06 1482.28,-53.47 1475.97,-61.99 1482.66,-64.06"/>
</g>
</g>
</svg>
