<?xml version="1.0" encoding="UTF-8" standalone="no"?>
<!DOCTYPE svg PUBLIC "-//W3C//DTD SVG 1.1//EN"
 "http://www.w3.org/Graphics/SVG/1.1/DTD/svg11.dtd">
<!-- Generated by graphviz version 7.0.2 (0)
 -->
<!-- Title: board Pages: 1 -->
<svg width="1038pt" height="772pt"
 viewBox="0.00 0.00 1037.50 772.00" xmlns="http://www.w3.org/2000/svg" xmlns:xlink="http://www.w3.org/1999/xlink">
<g id="graph0" class="graph" transform="scale(1 1) rotate(0) translate(4 768)">
<title>board</title>
<polygon fill="white" stroke="none" points="-4,4 -4,-768 1033.5,-768 1033.5,4 -4,4"/>
<!-- n00000001 -->
<g id="node1" class="node">
<title>n00000001</title>
<path fill="green" stroke="black" d="M16.5,-437.5C16.5,-437.5 129.5,-437.5 129.5,-437.5 135.5,-437.5 141.5,-443.5 141.5,-449.5 141.5,-449.5 141.5,-509.5 141.5,-509.5 141.5,-515.5 135.5,-521.5 129.5,-521.5 129.5,-521.5 16.5,-521.5 16.5,-521.5 10.5,-521.5 4.5,-515.5 4.5,-509.5 4.5,-509.5 4.5,-449.5 4.5,-449.5 4.5,-443.5 10.5,-437.5 16.5,-437.5"/>
<text text-anchor="middle" x="73" y="-506.3" font-family="Times,serif" font-size="14.00">0</text>
<polyline fill="none" stroke="black" points="4.5,-498.5 141.5,-498.5"/>
<text text-anchor="middle" x="73" y="-483.3" font-family="Times,serif" font-size="14.00">ipu1_csi0</text>
<text text-anchor="middle" x="73" y="-468.3" font-family="Times,serif" font-size="14.00">/dev/v4l&#45;subdev0</text>
<polyline fill="none" stroke="black" points="4.5,-460.5 141.5,-460.5"/>
<text text-anchor="middle" x="38.5" y="-445.3" font-family="Times,serif" font-size="14.00">1</text>
<polyline fill="none" stroke="black" points="72.5,-437.5 72.5,-460.5"/>
<text text-anchor="middle" x="107" y="-445.3" font-family="Times,serif" font-size="14.00">2</text>
</g>
<!-- n00000005 -->
<g id="node2" class="node">
<title>n00000005</title>
<polygon fill="yellow" stroke="black" points="178.5,-377.5 35.5,-377.5 35.5,-339.5 178.5,-339.5 178.5,-377.5"/>
<text text-anchor="middle" x="107" y="-362.3" font-family="Times,serif" font-size="14.00">ipu1_csi0 capture</text>
<text text-anchor="middle" x="107" y="-347.3" font-family="Times,serif" font-size="14.00">/dev/video0</text>
</g>
<!-- n00000001&#45;&gt;n00000005 -->
<g id="edge1" class="edge">
<title>n00000001:port2&#45;&gt;n00000005</title>
<path fill="none" stroke="black" stroke-dasharray="5,2" d="M107,-437C107,-421.23 107,-403.66 107,-389.24"/>
<polygon fill="black" stroke="black" points="110.5,-389.49 107,-379.49 103.5,-389.49 110.5,-389.49"/>
</g>
<!-- n0000000f -->
<g id="node3" class="node">
<title>n0000000f</title>
<path fill="green" stroke="black" d="M208.5,-195.5C208.5,-195.5 321.5,-195.5 321.5,-195.5 327.5,-195.5 333.5,-201.5 333.5,-207.5 333.5,-207.5 333.5,-267.5 333.5,-267.5 333.5,-273.5 327.5,-279.5 321.5,-279.5 321.5,-279.5 208.5,-279.5 208.5,-279.5 202.5,-279.5 196.5,-273.5 196.5,-267.5 196.5,-267.5 196.5,-207.5 196.5,-207.5 196.5,-201.5 202.5,-195.5 208.5,-195.5"/>
<text text-anchor="middle" x="265" y="-264.3" font-family="Times,serif" font-size="14.00">0</text>
<polyline fill="none" stroke="black" points="196.5,-256.5 333.5,-256.5"/>
<text text-anchor="middle" x="265" y="-241.3" font-family="Times,serif" font-size="14.00">ipu1_ic_prp</text>
<text text-anchor="middle" x="265" y="-226.3" font-family="Times,serif" font-size="14.00">/dev/v4l&#45;subdev2</text>
<polyline fill="none" stroke="black" points="196.5,-218.5 333.5,-218.5"/>
<text text-anchor="middle" x="230.5" y="-203.3" font-family="Times,serif" font-size="14.00">1</text>
<polyline fill="none" stroke="black" points="264.5,-195.5 264.5,-218.5"/>
<text text-anchor="middle" x="299" y="-203.3" font-family="Times,serif" font-size="14.00">2</text>
</g>
<!-- n00000001&#45;&gt;n0000000f -->
<g id="edge2" class="edge">
<title>n00000001:port1&#45;&gt;n0000000f:port0</title>
<path fill="none" stroke="black" stroke-dasharray="5,2" d="M38,-437C38,-420.13 28.7,-417.65 26,-401 19.95,-363.71 3.19,-346.11 26,-316 47.53,-287.58 138.31,-271.43 183.54,-268.86"/>
<polygon fill="black" stroke="black" points="183.6,-272.36 193.49,-268.55 183.38,-265.37 183.6,-272.36"/>
</g>
<!-- n0000000b -->
<g id="node4" class="node">
<title>n0000000b</title>
<path fill="green" stroke="black" d="M208.5,-316.5C208.5,-316.5 321.5,-316.5 321.5,-316.5 327.5,-316.5 333.5,-322.5 333.5,-328.5 333.5,-328.5 333.5,-388.5 333.5,-388.5 333.5,-394.5 327.5,-400.5 321.5,-400.5 321.5,-400.5 208.5,-400.5 208.5,-400.5 202.5,-400.5 196.5,-394.5 196.5,-388.5 196.5,-388.5 196.5,-328.5 196.5,-328.5 196.5,-322.5 202.5,-316.5 208.5,-316.5"/>
<text text-anchor="middle" x="230.5" y="-385.3" font-family="Times,serif" font-size="14.00">0</text>
<polyline fill="none" stroke="black" points="264.5,-377.5 264.5,-400.5"/>
<text text-anchor="middle" x="299" y="-385.3" font-family="Times,serif" font-size="14.00">1</text>
<polyline fill="none" stroke="black" points="196.5,-377.5 333.5,-377.5"/>
<text text-anchor="middle" x="265" y="-362.3" font-family="Times,serif" font-size="14.00">ipu1_vdic</text>
<text text-anchor="middle" x="265" y="-347.3" font-family="Times,serif" font-size="14.00">/dev/v4l&#45;subdev1</text>
<polyline fill="none" stroke="black" points="196.5,-339.5 333.5,-339.5"/>
<text text-anchor="middle" x="265" y="-324.3" font-family="Times,serif" font-size="14.00">2</text>
</g>
<!-- n00000001&#45;&gt;n0000000b -->
<g id="edge3" class="edge">
<title>n00000001:port1&#45;&gt;n0000000b:port0</title>
<path fill="none" stroke="black" stroke-dasharray="5,2" d="M38,-437C38,-368.87 130.77,-439.47 187,-401 187.8,-400.45 188.4,-399.79 188.85,-399.07"/>
<polygon fill="black" stroke="black" points="191.73,-401.08 194.18,-390.77 185.83,-397.3 191.73,-401.08"/>
</g>
<!-- n00000013 -->
<g id="node5" class="node">
<title>n00000013</title>
<path fill="green" stroke="black" d="M170.5,-74.5C170.5,-74.5 283.5,-74.5 283.5,-74.5 289.5,-74.5 295.5,-80.5 295.5,-86.5 295.5,-86.5 295.5,-146.5 295.5,-146.5 295.5,-152.5 289.5,-158.5 283.5,-158.5 283.5,-158.5 170.5,-158.5 170.5,-158.5 164.5,-158.5 158.5,-152.5 158.5,-146.5 158.5,-146.5 158.5,-86.5 158.5,-86.5 158.5,-80.5 164.5,-74.5 170.5,-74.5"/>
<text text-anchor="middle" x="227" y="-143.3" font-family="Times,serif" font-size="14.00">0</text>
<polyline fill="none" stroke="black" points="158.5,-135.5 295.5,-135.5"/>
<text text-anchor="middle" x="227" y="-120.3" font-family="Times,serif" font-size="14.00">ipu1_ic_prpenc</text>
<text text-anchor="middle" x="227" y="-105.3" font-family="Times,serif" font-size="14.00">/dev/v4l&#45;subdev3</text>
<polyline fill="none" stroke="black" points="158.5,-97.5 295.5,-97.5"/>
<text text-anchor="middle" x="227" y="-82.3" font-family="Times,serif" font-size="14.00">1</text>
</g>
<!-- n0000000f&#45;&gt;n00000013 -->
<g id="edge5" class="edge">
<title>n0000000f:port1&#45;&gt;n00000013:port0</title>
<path fill="none" stroke="black" stroke-dasharray="5,2" d="M230,-195C230,-183.59 228.48,-178.32 227.61,-170.46"/>
<polygon fill="black" stroke="black" points="231.1,-170.31 227.08,-160.51 224.11,-170.68 231.1,-170.31"/>
</g>
<!-- n0000001c -->
<g id="node6" class="node">
<title>n0000001c</title>
<path fill="green" stroke="black" d="M354.5,-74.5C354.5,-74.5 467.5,-74.5 467.5,-74.5 473.5,-74.5 479.5,-80.5 479.5,-86.5 479.5,-86.5 479.5,-146.5 479.5,-146.5 479.5,-152.5 473.5,-158.5 467.5,-158.5 467.5,-158.5 354.5,-158.5 354.5,-158.5 348.5,-158.5 342.5,-152.5 342.5,-146.5 342.5,-146.5 342.5,-86.5 342.5,-86.5 342.5,-80.5 348.5,-74.5 354.5,-74.5"/>
<text text-anchor="middle" x="411" y="-143.3" font-family="Times,serif" font-size="14.00">0</text>
<polyline fill="none" stroke="black" points="342.5,-135.5 479.5,-135.5"/>
<text text-anchor="middle" x="411" y="-120.3" font-family="Times,serif" font-size="14.00">ipu1_ic_prpvf</text>
<text text-anchor="middle" x="411" y="-105.3" font-family="Times,serif" font-size="14.00">/dev/v4l&#45;subdev4</text>
<polyline fill="none" stroke="black" points="342.5,-97.5 479.5,-97.5"/>
<text text-anchor="middle" x="411" y="-82.3" font-family="Times,serif" font-size="14.00">1</text>
</g>
<!-- n0000000f&#45;&gt;n0000001c -->
<g id="edge6" class="edge">
<title>n0000000f:port2&#45;&gt;n0000001c:port0</title>
<path fill="none" stroke="black" stroke-dasharray="5,2" d="M335,-206.5C355.39,-206.5 332.06,-171.21 332.64,-155.21"/>
<polygon fill="black" stroke="black" points="334.91,-157.88 339.89,-148.53 330.16,-152.73 334.91,-157.88"/>
</g>
<!-- n0000000b&#45;&gt;n0000000f -->
<g id="edge4" class="edge">
<title>n0000000b:port2&#45;&gt;n0000000f:port0</title>
<path fill="none" stroke="black" stroke-dasharray="5,2" d="M265,-316C265,-304.62 265,-299.32 265,-291.45"/>
<polygon fill="black" stroke="black" points="268.5,-291.51 265,-281.51 261.5,-291.51 268.5,-291.51"/>
</g>
<!-- n00000016 -->
<g id="node7" class="node">
<title>n00000016</title>
<polygon fill="yellow" stroke="black" points="312,-38 130,-38 130,0 312,0 312,-38"/>
<text text-anchor="middle" x="221" y="-22.8" font-family="Times,serif" font-size="14.00">ipu1_ic_prpenc capture</text>
<text text-anchor="middle" x="221" y="-7.8" font-family="Times,serif" font-size="14.00">/dev/video1</text>
</g>
<!-- n00000013&#45;&gt;n00000016 -->
<g id="edge7" class="edge">
<title>n00000013:port1&#45;&gt;n00000016</title>
<path fill="none" stroke="black" stroke-dasharray="5,2" d="M227,-74C227,-66.11 226.36,-57.61 225.5,-49.74"/>
<polygon fill="black" stroke="black" points="228.98,-49.42 224.26,-39.94 222.04,-50.3 228.98,-49.42"/>
</g>
<!-- n0000001f -->
<g id="node8" class="node">
<title>n0000001f</title>
<polygon fill="yellow" stroke="black" points="501.5,-38 330.5,-38 330.5,0 501.5,0 501.5,-38"/>
<text text-anchor="middle" x="416" y="-22.8" font-family="Times,serif" font-size="14.00">ipu1_ic_prpvf capture</text>
<text text-anchor="middle" x="416" y="-7.8" font-family="Times,serif" font-size="14.00">/dev/video2</text>
</g>
<!-- n0000001c&#45;&gt;n0000001f -->
<g id="edge8" class="edge">
<title>n0000001c:port1&#45;&gt;n0000001f</title>
<path fill="none" stroke="black" stroke-dasharray="5,2" d="M411,-74C411,-66.12 411.53,-57.63 412.25,-49.76"/>
<polygon fill="black" stroke="black" points="415.72,-50.27 413.28,-39.96 408.76,-49.54 415.72,-50.27"/>
</g>
<!-- n0000002f -->
<g id="node9" class="node">
<title>n0000002f</title>
<path fill="green" stroke="black" d="M340.5,-437.5C340.5,-437.5 453.5,-437.5 453.5,-437.5 459.5,-437.5 465.5,-443.5 465.5,-449.5 465.5,-449.5 465.5,-509.5 465.5,-509.5 465.5,-515.5 459.5,-521.5 453.5,-521.5 453.5,-521.5 340.5,-521.5 340.5,-521.5 334.5,-521.5 328.5,-515.5 328.5,-509.5 328.5,-509.5 328.5,-449.5 328.5,-449.5 328.5,-443.5 334.5,-437.5 340.5,-437.5"/>
<text text-anchor="middle" x="397" y="-506.3" font-family="Times,serif" font-size="14.00">0</text>
<polyline fill="none" stroke="black" points="328.5,-498.5 465.5,-498.5"/>
<text text-anchor="middle" x="397" y="-483.3" font-family="Times,serif" font-size="14.00">ipu1_csi1</text>
<text text-anchor="middle" x="397" y="-468.3" font-family="Times,serif" font-size="14.00">/dev/v4l&#45;subdev5</text>
<polyline fill="none" stroke="black" points="328.5,-460.5 465.5,-460.5"/>
<text text-anchor="middle" x="362.5" y="-445.3" font-family="Times,serif" font-size="14.00">1</text>
<polyline fill="none" stroke="black" points="396.5,-437.5 396.5,-460.5"/>
<text text-anchor="middle" x="431" y="-445.3" font-family="Times,serif" font-size="14.00">2</text>
</g>
<!-- n0000002f&#45;&gt;n0000000f -->
<g id="edge10" class="edge">
<title>n0000002f:port1&#45;&gt;n0000000f:port0</title>
<path fill="none" stroke="black" stroke-dasharray="5,2" d="M362,-437C362,-365.3 405.65,-278.58 346.35,-269.31"/>
<polygon fill="black" stroke="black" points="346.73,-265.83 336.51,-268.61 346.23,-272.81 346.73,-265.83"/>
</g>
<!-- n0000002f&#45;&gt;n0000000b -->
<g id="edge11" class="edge">
<title>n0000002f:port1&#45;&gt;n0000000b:port0</title>
<path fill="none" stroke="black" stroke-dasharray="5,2" d="M327,-448.5C306.56,-448.5 250.59,-431.46 234.43,-411.58"/>
<polygon fill="black" stroke="black" points="237.67,-410.27 230.58,-402.4 231.22,-412.97 237.67,-410.27"/>
</g>
<!-- n00000033 -->
<g id="node10" class="node">
<title>n00000033</title>
<polygon fill="yellow" stroke="black" points="533.5,-377.5 390.5,-377.5 390.5,-339.5 533.5,-339.5 533.5,-377.5"/>
<text text-anchor="middle" x="462" y="-362.3" font-family="Times,serif" font-size="14.00">ipu1_csi1 capture</text>
<text text-anchor="middle" x="462" y="-347.3" font-family="Times,serif" font-size="14.00">/dev/video3</text>
</g>
<!-- n0000002f&#45;&gt;n00000033 -->
<g id="edge9" class="edge">
<title>n0000002f:port2&#45;&gt;n00000033</title>
<path fill="none" stroke="black" stroke-dasharray="5,2" d="M431,-437C431,-419.91 437.58,-402.12 444.68,-387.9"/>
<polygon fill="black" stroke="black" points="447.74,-389.59 449.39,-379.12 441.57,-386.28 447.74,-389.59"/>
</g>
<!-- n0000003d -->
<g id="node11" class="node">
<title>n0000003d</title>
<path fill="green" stroke="black" d="M512.5,-558.5C512.5,-558.5 625.5,-558.5 625.5,-558.5 631.5,-558.5 637.5,-564.5 637.5,-570.5 637.5,-570.5 637.5,-630.5 637.5,-630.5 637.5,-636.5 631.5,-642.5 625.5,-642.5 625.5,-642.5 512.5,-642.5 512.5,-642.5 506.5,-642.5 500.5,-636.5 500.5,-630.5 500.5,-630.5 500.5,-570.5 500.5,-570.5 500.5,-564.5 506.5,-558.5 512.5,-558.5"/>
<text text-anchor="middle" x="569" y="-627.3" font-family="Times,serif" font-size="14.00">0</text>
<polyline fill="none" stroke="black" points="500.5,-619.5 637.5,-619.5"/>
<text text-anchor="middle" x="569" y="-604.3" font-family="Times,serif" font-size="14.00">ipu2_csi0</text>
<text text-anchor="middle" x="569" y="-589.3" font-family="Times,serif" font-size="14.00">/dev/v4l&#45;subdev6</text>
<polyline fill="none" stroke="black" points="500.5,-581.5 637.5,-581.5"/>
<text text-anchor="middle" x="534.5" y="-566.3" font-family="Times,serif" font-size="14.00">1</text>
<polyline fill="none" stroke="black" points="568.5,-558.5 568.5,-581.5"/>
<text text-anchor="middle" x="603" y="-566.3" font-family="Times,serif" font-size="14.00">2</text>
</g>
<!-- n00000041 -->
<g id="node12" class="node">
<title>n00000041</title>
<polygon fill="yellow" stroke="black" points="674.5,-498.5 531.5,-498.5 531.5,-460.5 674.5,-460.5 674.5,-498.5"/>
<text text-anchor="middle" x="603" y="-483.3" font-family="Times,serif" font-size="14.00">ipu2_csi0 capture</text>
<text text-anchor="middle" x="603" y="-468.3" font-family="Times,serif" font-size="14.00">/dev/video4</text>
</g>
<!-- n0000003d&#45;&gt;n00000041 -->
<g id="edge12" class="edge">
<title>n0000003d:port2&#45;&gt;n00000041</title>
<path fill="none" stroke="black" stroke-dasharray="5,2" d="M603,-558C603,-542.23 603,-524.66 603,-510.24"/>
<polygon fill="black" stroke="black" points="606.5,-510.49 603,-500.49 599.5,-510.49 606.5,-510.49"/>
</g>
<!-- n0000004b -->
<g id="node13" class="node">
<title>n0000004b</title>
<path fill="green" stroke="black" d="M704.5,-316.5C704.5,-316.5 817.5,-316.5 817.5,-316.5 823.5,-316.5 829.5,-322.5 829.5,-328.5 829.5,-328.5 829.5,-388.5 829.5,-388.5 829.5,-394.5 823.5,-400.5 817.5,-400.5 817.5,-400.5 704.5,-400.5 704.5,-400.5 698.5,-400.5 692.5,-394.5 692.5,-388.5 692.5,-388.5 692.5,-328.5 692.5,-328.5 692.5,-322.5 698.5,-316.5 704.5,-316.5"/>
<text text-anchor="middle" x="761" y="-385.3" font-family="Times,serif" font-size="14.00">0</text>
<polyline fill="none" stroke="black" points="692.5,-377.5 829.5,-377.5"/>
<text text-anchor="middle" x="761" y="-362.3" font-family="Times,serif" font-size="14.00">ipu2_ic_prp</text>
<text text-anchor="middle" x="761" y="-347.3" font-family="Times,serif" font-size="14.00">/dev/v4l&#45;subdev8</text>
<polyline fill="none" stroke="black" points="692.5,-339.5 829.5,-339.5"/>
<text text-anchor="middle" x="726.5" y="-324.3" font-family="Times,serif" font-size="14.00">1</text>
<polyline fill="none" stroke="black" points="760.5,-316.5 760.5,-339.5"/>
<text text-anchor="middle" x="795" y="-324.3" font-family="Times,serif" font-size="14.00">2</text>
</g>
<!-- n0000003d&#45;&gt;n0000004b -->
<g id="edge13" class="edge">
<title>n0000003d:port1&#45;&gt;n0000004b:port0</title>
<path fill="none" stroke="black" stroke-dasharray="5,2" d="M534,-558C534,-541.13 524.7,-538.65 522,-522 515.95,-484.71 499.19,-467.11 522,-437 543.53,-408.58 634.31,-392.43 679.54,-389.86"/>
<polygon fill="black" stroke="black" points="679.6,-393.36 689.49,-389.55 679.38,-386.37 679.6,-393.36"/>
</g>
<!-- n00000047 -->
<g id="node14" class="node">
<title>n00000047</title>
<path fill="green" stroke="black" d="M704.5,-437.5C704.5,-437.5 817.5,-437.5 817.5,-437.5 823.5,-437.5 829.5,-443.5 829.5,-449.5 829.5,-449.5 829.5,-509.5 829.5,-509.5 829.5,-515.5 823.5,-521.5 817.5,-521.5 817.5,-521.5 704.5,-521.5 704.5,-521.5 698.5,-521.5 692.5,-515.5 692.5,-509.5 692.5,-509.5 692.5,-449.5 692.5,-449.5 692.5,-443.5 698.5,-437.5 704.5,-437.5"/>
<text text-anchor="middle" x="726.5" y="-506.3" font-family="Times,serif" font-size="14.00">0</text>
<polyline fill="none" stroke="black" points="760.5,-498.5 760.5,-521.5"/>
<text text-anchor="middle" x="795" y="-506.3" font-family="Times,serif" font-size="14.00">1</text>
<polyline fill="none" stroke="black" points="692.5,-498.5 829.5,-498.5"/>
<text text-anchor="middle" x="761" y="-483.3" font-family="Times,serif" font-size="14.00">ipu2_vdic</text>
<text text-anchor="middle" x="761" y="-468.3" font-family="Times,serif" font-size="14.00">/dev/v4l&#45;subdev7</text>
<polyline fill="none" stroke="black" points="692.5,-460.5 829.5,-460.5"/>
<text text-anchor="middle" x="761" y="-445.3" font-family="Times,serif" font-size="14.00">2</text>
</g>
<!-- n0000003d&#45;&gt;n00000047 -->
<g id="edge14" class="edge">
<title>n0000003d:port1&#45;&gt;n00000047:port0</title>
<path fill="none" stroke="black" stroke-dasharray="5,2" d="M534,-558C534,-489.87 626.77,-560.47 683,-522 683.8,-521.45 684.4,-520.79 684.85,-520.07"/>
<polygon fill="black" stroke="black" points="687.73,-522.08 690.18,-511.77 681.83,-518.3 687.73,-522.08"/>
</g>
<!-- n0000004f -->
<g id="node15" class="node">
<title>n0000004f</title>
<path fill="green" stroke="black" d="M565.5,-195.5C565.5,-195.5 678.5,-195.5 678.5,-195.5 684.5,-195.5 690.5,-201.5 690.5,-207.5 690.5,-207.5 690.5,-267.5 690.5,-267.5 690.5,-273.5 684.5,-279.5 678.5,-279.5 678.5,-279.5 565.5,-279.5 565.5,-279.5 559.5,-279.5 553.5,-273.5 553.5,-267.5 553.5,-267.5 553.5,-207.5 553.5,-207.5 553.5,-201.5 559.5,-195.5 565.5,-195.5"/>
<text text-anchor="middle" x="622" y="-264.3" font-family="Times,serif" font-size="14.00">0</text>
<polyline fill="none" stroke="black" points="553.5,-256.5 690.5,-256.5"/>
<text text-anchor="middle" x="622" y="-241.3" font-family="Times,serif" font-size="14.00">ipu2_ic_prpenc</text>
<text text-anchor="middle" x="622" y="-226.3" font-family="Times,serif" font-size="14.00">/dev/v4l&#45;subdev9</text>
<polyline fill="none" stroke="black" points="553.5,-218.5 690.5,-218.5"/>
<text text-anchor="middle" x="622" y="-203.3" font-family="Times,serif" font-size="14.00">1</text>
</g>
<!-- n0000004b&#45;&gt;n0000004f -->
<g id="edge16" class="edge">
<title>n0000004b:port1&#45;&gt;n0000004f:port0</title>
<path fill="none" stroke="black" stroke-dasharray="5,2" d="M691,-327.5C671.13,-327.5 697.01,-293.62 699.3,-277.21"/>
<polygon fill="black" stroke="black" points="702.08,-275.07 692.97,-269.66 696.71,-279.57 702.08,-275.07"/>
</g>
<!-- n00000058 -->
<g id="node16" class="node">
<title>n00000058</title>
<path fill="green" stroke="black" d="M738,-195.5C738,-195.5 860,-195.5 860,-195.5 866,-195.5 872,-201.5 872,-207.5 872,-207.5 872,-267.5 872,-267.5 872,-273.5 866,-279.5 860,-279.5 860,-279.5 738,-279.5 738,-279.5 732,-279.5 726,-273.5 726,-267.5 726,-267.5 726,-207.5 726,-207.5 726,-201.5 732,-195.5 738,-195.5"/>
<text text-anchor="middle" x="799" y="-264.3" font-family="Times,serif" font-size="14.00">0</text>
<polyline fill="none" stroke="black" points="726,-256.5 872,-256.5"/>
<text text-anchor="middle" x="799" y="-241.3" font-family="Times,serif" font-size="14.00">ipu2_ic_prpvf</text>
<text text-anchor="middle" x="799" y="-226.3" font-family="Times,serif" font-size="14.00">/dev/v4l&#45;subdev10</text>
<polyline fill="none" stroke="black" points="726,-218.5 872,-218.5"/>
<text text-anchor="middle" x="799" y="-203.3" font-family="Times,serif" font-size="14.00">1</text>
</g>
<!-- n0000004b&#45;&gt;n00000058 -->
<g id="edge17" class="edge">
<title>n0000004b:port2&#45;&gt;n00000058:port0</title>
<path fill="none" stroke="black" stroke-dasharray="5,2" d="M795,-316C795,-304.55 797.02,-299.32 798.19,-291.47"/>
<polygon fill="black" stroke="black" points="801.68,-291.73 798.89,-281.51 794.7,-291.24 801.68,-291.73"/>
</g>
<!-- n00000047&#45;&gt;n0000004b -->
<g id="edge15" class="edge">
<title>n00000047:port2&#45;&gt;n0000004b:port0</title>
<path fill="none" stroke="black" stroke-dasharray="5,2" d="M761,-437C761,-425.62 761,-420.32 761,-412.45"/>
<polygon fill="black" stroke="black" points="764.5,-412.51 761,-402.51 757.5,-412.51 764.5,-412.51"/>
</g>
<!-- n00000052 -->
<g id="node17" class="node">
<title>n00000052</title>
<polygon fill="yellow" stroke="black" points="696,-135.5 514,-135.5 514,-97.5 696,-97.5 696,-135.5"/>
<text text-anchor="middle" x="605" y="-120.3" font-family="Times,serif" font-size="14.00">ipu2_ic_prpenc capture</text>
<text text-anchor="middle" x="605" y="-105.3" font-family="Times,serif" font-size="14.00">/dev/video5</text>
</g>
<!-- n0000004f&#45;&gt;n00000052 -->
<g id="edge18" class="edge">
<title>n0000004f:port1&#45;&gt;n00000052</title>
<path fill="none" stroke="black" stroke-dasharray="5,2" d="M622,-195C622,-178.7 618.37,-160.9 614.46,-146.48"/>
<polygon fill="black" stroke="black" points="617.91,-145.81 611.75,-137.18 611.19,-147.76 617.91,-145.81"/>
</g>
<!-- n0000005b -->
<g id="node18" class="node">
<title>n0000005b</title>
<polygon fill="yellow" stroke="black" points="885.5,-135.5 714.5,-135.5 714.5,-97.5 885.5,-97.5 885.5,-135.5"/>
<text text-anchor="middle" x="800" y="-120.3" font-family="Times,serif" font-size="14.00">ipu2_ic_prpvf capture</text>
<text text-anchor="middle" x="800" y="-105.3" font-family="Times,serif" font-size="14.00">/dev/video6</text>
</g>
<!-- n00000058&#45;&gt;n0000005b -->
<g id="edge19" class="edge">
<title>n00000058:port1&#45;&gt;n0000005b</title>
<path fill="none" stroke="black" stroke-dasharray="5,2" d="M799,-195C799,-179.23 799.21,-161.66 799.44,-147.24"/>
<polygon fill="black" stroke="black" points="802.93,-147.55 799.6,-137.49 795.93,-147.43 802.93,-147.55"/>
</g>
<!-- n0000006b -->
<g id="node19" class="node">
<title>n0000006b</title>
<path fill="green" stroke="black" d="M834,-558.5C834,-558.5 956,-558.5 956,-558.5 962,-558.5 968,-564.5 968,-570.5 968,-570.5 968,-630.5 968,-630.5 968,-636.5 962,-642.5 956,-642.5 956,-642.5 834,-642.5 834,-642.5 828,-642.5 822,-636.5 822,-630.5 822,-630.5 822,-570.5 822,-570.5 822,-564.5 828,-558.5 834,-558.5"/>
<text text-anchor="middle" x="895" y="-627.3" font-family="Times,serif" font-size="14.00">0</text>
<polyline fill="none" stroke="black" points="822,-619.5 968,-619.5"/>
<text text-anchor="middle" x="895" y="-604.3" font-family="Times,serif" font-size="14.00">ipu2_csi1</text>
<text text-anchor="middle" x="895" y="-589.3" font-family="Times,serif" font-size="14.00">/dev/v4l&#45;subdev11</text>
<polyline fill="none" stroke="black" points="822,-581.5 968,-581.5"/>
<text text-anchor="middle" x="858.5" y="-566.3" font-family="Times,serif" font-size="14.00">1</text>
<polyline fill="none" stroke="black" points="895,-558.5 895,-581.5"/>
<text text-anchor="middle" x="931.5" y="-566.3" font-family="Times,serif" font-size="14.00">2</text>
</g>
<!-- n0000006b&#45;&gt;n0000004b -->
<g id="edge21" class="edge">
<title>n0000006b:port1&#45;&gt;n0000004b:port0</title>
<path fill="none" stroke="black" stroke-dasharray="5,2" d="M858,-558C858,-486.3 901.65,-399.58 842.35,-390.31"/>
<polygon fill="black" stroke="black" points="842.73,-386.83 832.51,-389.61 842.23,-393.81 842.73,-386.83"/>
</g>
<!-- n0000006b&#45;&gt;n00000047 -->
<g id="edge22" class="edge">
<title>n0000006b:port1&#45;&gt;n00000047:port0</title>
<path fill="none" stroke="black" stroke-dasharray="5,2" d="M821,-569.5C777.85,-569.5 734.21,-569.25 727.03,-533.16"/>
<polygon fill="black" stroke="black" points="730.54,-533.14 726.14,-523.51 723.57,-533.79 730.54,-533.14"/>
</g>
<!-- n0000006f -->
<g id="node20" class="node">
<title>n0000006f</title>
<polygon fill="yellow" stroke="black" points="1029.5,-498.5 886.5,-498.5 886.5,-460.5 1029.5,-460.5 1029.5,-498.5"/>
<text text-anchor="middle" x="958" y="-483.3" font-family="Times,serif" font-size="14.00">ipu2_csi1 capture</text>
<text text-anchor="middle" x="958" y="-468.3" font-family="Times,serif" font-size="14.00">/dev/video7</text>
</g>
<!-- n0000006b&#45;&gt;n0000006f -->
<g id="edge20" class="edge">
<title>n0000006b:port2&#45;&gt;n0000006f</title>
<path fill="none" stroke="black" stroke-dasharray="5,2" d="M932,-558C932,-541.15 937.59,-523.26 943.59,-508.92"/>
<polygon fill="black" stroke="black" points="946.65,-510.65 947.55,-500.1 940.26,-507.79 946.65,-510.65"/>
</g>
<!-- n00000079 -->
<g id="node21" class="node">
<title>n00000079</title>
<path fill="green" stroke="black" d="M12,-558.5C12,-558.5 134,-558.5 134,-558.5 140,-558.5 146,-564.5 146,-570.5 146,-570.5 146,-630.5 146,-630.5 146,-636.5 140,-642.5 134,-642.5 134,-642.5 12,-642.5 12,-642.5 6,-642.5 0,-636.5 0,-630.5 0,-630.5 0,-570.5 0,-570.5 0,-564.5 6,-558.5 12,-558.5"/>
<text text-anchor="middle" x="36.5" y="-627.3" font-family="Times,serif" font-size="14.00">0</text>
<polyline fill="none" stroke="black" points="73,-619.5 73,-642.5"/>
<text text-anchor="middle" x="109.5" y="-627.3" font-family="Times,serif" font-size="14.00">1</text>
<polyline fill="none" stroke="black" points="0,-619.5 146,-619.5"/>
<text text-anchor="middle" x="73" y="-604.3" font-family="Times,serif" font-size="14.00">ipu1_csi0_mux</text>
<text text-anchor="middle" x="73" y="-589.3" font-family="Times,serif" font-size="14.00">/dev/v4l&#45;subdev12</text>
<polyline fill="none" stroke="black" points="0,-581.5 146,-581.5"/>
<text text-anchor="middle" x="73" y="-566.3" font-family="Times,serif" font-size="14.00">2</text>
</g>
<!-- n00000079&#45;&gt;n00000001 -->
<g id="edge23" class="edge">
<title>n00000079:port2&#45;&gt;n00000001:port0</title>
<path fill="none" stroke="black" stroke-dasharray="5,2" d="M73,-558C73,-546.62 73,-541.32 73,-533.45"/>
<polygon fill="black" stroke="black" points="76.5,-533.51 73,-523.51 69.5,-533.51 76.5,-533.51"/>
</g>
<!-- n0000007d -->
<g id="node22" class="node">
<title>n0000007d</title>
<path fill="green" stroke="black" d="M834,-679.5C834,-679.5 956,-679.5 956,-679.5 962,-679.5 968,-685.5 968,-691.5 968,-691.5 968,-751.5 968,-751.5 968,-757.5 962,-763.5 956,-763.5 956,-763.5 834,-763.5 834,-763.5 828,-763.5 822,-757.5 822,-751.5 822,-751.5 822,-691.5 822,-691.5 822,-685.5 828,-679.5 834,-679.5"/>
<text text-anchor="middle" x="858.5" y="-748.3" font-family="Times,serif" font-size="14.00">0</text>
<polyline fill="none" stroke="black" points="895,-740.5 895,-763.5"/>
<text text-anchor="middle" x="931.5" y="-748.3" font-family="Times,serif" font-size="14.00">1</text>
<polyline fill="none" stroke="black" points="822,-740.5 968,-740.5"/>
<text text-anchor="middle" x="895" y="-725.3" font-family="Times,serif" font-size="14.00">ipu2_csi1_mux</text>
<text text-anchor="middle" x="895" y="-710.3" font-family="Times,serif" font-size="14.00">/dev/v4l&#45;subdev13</text>
<polyline fill="none" stroke="black" points="822,-702.5 968,-702.5"/>
<text text-anchor="middle" x="895" y="-687.3" font-family="Times,serif" font-size="14.00">2</text>
</g>
<!-- n0000007d&#45;&gt;n0000006b -->
<g id="edge24" class="edge">
<title>n0000007d:port2&#45;&gt;n0000006b:port0</title>
<path fill="none" stroke="black" stroke-dasharray="5,2" d="M895,-679C895,-667.62 895,-662.32 895,-654.45"/>
<polygon fill="black" stroke="black" points="898.5,-654.51 895,-644.51 891.5,-654.51 898.5,-654.51"/>
</g>
<!-- n00000081 -->
<g id="node23" class="node">
<title>n00000081</title>
<path fill="green" stroke="black" d="M49,-679.5C49,-679.5 171,-679.5 171,-679.5 177,-679.5 183,-685.5 183,-691.5 183,-691.5 183,-751.5 183,-751.5 183,-757.5 177,-763.5 171,-763.5 171,-763.5 49,-763.5 49,-763.5 43,-763.5 37,-757.5 37,-751.5 37,-751.5 37,-691.5 37,-691.5 37,-685.5 43,-679.5 49,-679.5"/>
<text text-anchor="middle" x="110" y="-748.3" font-family="Times,serif" font-size="14.00"> </text>
<polyline fill="none" stroke="black" points="37,-740.5 183,-740.5"/>
<text text-anchor="middle" x="110" y="-725.3" font-family="Times,serif" font-size="14.00">adv7180 3&#45;0021</text>
<text text-anchor="middle" x="110" y="-710.3" font-family="Times,serif" font-size="14.00">/dev/v4l&#45;subdev14</text>
<polyline fill="none" stroke="black" points="37,-702.5 183,-702.5"/>
<text text-anchor="middle" x="110" y="-687.3" font-family="Times,serif" font-size="14.00">0</text>
</g>
<!-- n00000081&#45;&gt;n00000079 -->
<g id="edge25" class="edge">
<title>n00000081:port0&#45;&gt;n00000079:port1</title>
<path fill="none" stroke="black" stroke-dasharray="5,2" d="M110,-679C110,-667.62 110,-662.32 110,-654.45"/>
<polygon fill="black" stroke="black" points="113.5,-654.51 110,-644.51 106.5,-654.51 113.5,-654.51"/>
</g>
</g>
</svg>
