<?xml version="1.0" encoding="UTF-8" standalone="no"?>
<!DOCTYPE svg PUBLIC "-//W3C//DTD SVG 1.1//EN"
 "http://www.w3.org/Graphics/SVG/1.1/DTD/svg11.dtd">
<!-- Generated by graphviz version 7.0.2 (0)
 -->
<!-- Title: board Pages: 1 -->
<svg width="1085pt" height="893pt"
 viewBox="0.00 0.00 1085.41 893.00" xmlns="http://www.w3.org/2000/svg" xmlns:xlink="http://www.w3.org/1999/xlink">
<g id="graph0" class="graph" transform="scale(1 1) rotate(0) translate(4 889)">
<title>board</title>
<polygon fill="white" stroke="none" points="-4,4 -4,-889 1081.41,-889 1081.41,4 -4,4"/>
<!-- n00000001 -->
<g id="node1" class="node">
<title>n00000001</title>
<path fill="green" stroke="black" d="M105.41,-437.5C105.41,-437.5 218.41,-437.5 218.41,-437.5 224.41,-437.5 230.41,-443.5 230.41,-449.5 230.41,-449.5 230.41,-509.5 230.41,-509.5 230.41,-515.5 224.41,-521.5 218.41,-521.5 218.41,-521.5 105.41,-521.5 105.41,-521.5 99.41,-521.5 93.41,-515.5 93.41,-509.5 93.41,-509.5 93.41,-449.5 93.41,-449.5 93.41,-443.5 99.41,-437.5 105.41,-437.5"/>
<text text-anchor="middle" x="161.91" y="-506.3" font-family="Times,serif" font-size="14.00">0</text>
<polyline fill="none" stroke="black" points="93.41,-498.5 230.41,-498.5"/>
<text text-anchor="middle" x="161.91" y="-483.3" font-family="Times,serif" font-size="14.00">ipu1_csi0</text>
<text text-anchor="middle" x="161.91" y="-468.3" font-family="Times,serif" font-size="14.00">/dev/v4l&#45;subdev0</text>
<polyline fill="none" stroke="black" points="93.41,-460.5 230.41,-460.5"/>
<text text-anchor="middle" x="127.41" y="-445.3" font-family="Times,serif" font-size="14.00">1</text>
<polyline fill="none" stroke="black" points="161.41,-437.5 161.41,-460.5"/>
<text text-anchor="middle" x="195.91" y="-445.3" font-family="Times,serif" font-size="14.00">2</text>
</g>
<!-- n00000005 -->
<g id="node2" class="node">
<title>n00000005</title>
<polygon fill="yellow" stroke="black" points="167.41,-377.5 24.41,-377.5 24.41,-339.5 167.41,-339.5 167.41,-377.5"/>
<text text-anchor="middle" x="95.91" y="-362.3" font-family="Times,serif" font-size="14.00">ipu1_csi0 capture</text>
<text text-anchor="middle" x="95.91" y="-347.3" font-family="Times,serif" font-size="14.00">/dev/video0</text>
</g>
<!-- n00000001&#45;&gt;n00000005 -->
<g id="edge1" class="edge">
<title>n00000001:port2&#45;&gt;n00000005</title>
<path fill="none" stroke="black" stroke-dasharray="5,2" d="M195.91,-437C195.91,-421.74 166.46,-400.22 139.52,-383.72"/>
<polygon fill="black" stroke="black" points="141.45,-380.8 131.07,-378.67 137.86,-386.81 141.45,-380.8"/>
</g>
<!-- n0000000f -->
<g id="node3" class="node">
<title>n0000000f</title>
<path fill="green" stroke="black" d="M197.41,-195.5C197.41,-195.5 310.41,-195.5 310.41,-195.5 316.41,-195.5 322.41,-201.5 322.41,-207.5 322.41,-207.5 322.41,-267.5 322.41,-267.5 322.41,-273.5 316.41,-279.5 310.41,-279.5 310.41,-279.5 197.41,-279.5 197.41,-279.5 191.41,-279.5 185.41,-273.5 185.41,-267.5 185.41,-267.5 185.41,-207.5 185.41,-207.5 185.41,-201.5 191.41,-195.5 197.41,-195.5"/>
<text text-anchor="middle" x="253.91" y="-264.3" font-family="Times,serif" font-size="14.00">0</text>
<polyline fill="none" stroke="black" points="185.41,-256.5 322.41,-256.5"/>
<text text-anchor="middle" x="253.91" y="-241.3" font-family="Times,serif" font-size="14.00">ipu1_ic_prp</text>
<text text-anchor="middle" x="253.91" y="-226.3" font-family="Times,serif" font-size="14.00">/dev/v4l&#45;subdev2</text>
<polyline fill="none" stroke="black" points="185.41,-218.5 322.41,-218.5"/>
<text text-anchor="middle" x="219.41" y="-203.3" font-family="Times,serif" font-size="14.00">1</text>
<polyline fill="none" stroke="black" points="253.41,-195.5 253.41,-218.5"/>
<text text-anchor="middle" x="287.91" y="-203.3" font-family="Times,serif" font-size="14.00">2</text>
</g>
<!-- n00000001&#45;&gt;n0000000f -->
<g id="edge2" class="edge">
<title>n00000001:port1&#45;&gt;n0000000f:port0</title>
<path fill="none" stroke="black" stroke-dasharray="5,2" d="M91.91,-448.5C23.8,-448.5 -26.22,-370.29 14.91,-316 36.45,-287.58 127.22,-271.43 172.46,-268.86"/>
<polygon fill="black" stroke="black" points="172.52,-272.36 182.4,-268.55 172.3,-265.37 172.52,-272.36"/>
</g>
<!-- n0000000b -->
<g id="node4" class="node">
<title>n0000000b</title>
<path fill="green" stroke="black" d="M197.41,-316.5C197.41,-316.5 310.41,-316.5 310.41,-316.5 316.41,-316.5 322.41,-322.5 322.41,-328.5 322.41,-328.5 322.41,-388.5 322.41,-388.5 322.41,-394.5 316.41,-400.5 310.41,-400.5 310.41,-400.5 197.41,-400.5 197.41,-400.5 191.41,-400.5 185.41,-394.5 185.41,-388.5 185.41,-388.5 185.41,-328.5 185.41,-328.5 185.41,-322.5 191.41,-316.5 197.41,-316.5"/>
<text text-anchor="middle" x="219.41" y="-385.3" font-family="Times,serif" font-size="14.00">0</text>
<polyline fill="none" stroke="black" points="253.41,-377.5 253.41,-400.5"/>
<text text-anchor="middle" x="287.91" y="-385.3" font-family="Times,serif" font-size="14.00">1</text>
<polyline fill="none" stroke="black" points="185.41,-377.5 322.41,-377.5"/>
<text text-anchor="middle" x="253.91" y="-362.3" font-family="Times,serif" font-size="14.00">ipu1_vdic</text>
<text text-anchor="middle" x="253.91" y="-347.3" font-family="Times,serif" font-size="14.00">/dev/v4l&#45;subdev1</text>
<polyline fill="none" stroke="black" points="185.41,-339.5 322.41,-339.5"/>
<text text-anchor="middle" x="253.91" y="-324.3" font-family="Times,serif" font-size="14.00">2</text>
</g>
<!-- n00000001&#45;&gt;n0000000b -->
<g id="edge3" class="edge">
<title>n00000001:port1&#45;&gt;n0000000b:port0</title>
<path fill="none" stroke="black" stroke-dasharray="5,2" d="M126.91,-437C126.91,-409.98 157.05,-420.35 175.91,-401 176.59,-400.3 177.1,-399.54 177.51,-398.76"/>
<polygon fill="black" stroke="black" points="180.24,-400.96 183.05,-390.74 174.48,-396.97 180.24,-400.96"/>
</g>
<!-- n00000013 -->
<g id="node5" class="node">
<title>n00000013</title>
<path fill="green" stroke="black" d="M109.41,-74.5C109.41,-74.5 222.41,-74.5 222.41,-74.5 228.41,-74.5 234.41,-80.5 234.41,-86.5 234.41,-86.5 234.41,-146.5 234.41,-146.5 234.41,-152.5 228.41,-158.5 222.41,-158.5 222.41,-158.5 109.41,-158.5 109.41,-158.5 103.41,-158.5 97.41,-152.5 97.41,-146.5 97.41,-146.5 97.41,-86.5 97.41,-86.5 97.41,-80.5 103.41,-74.5 109.41,-74.5"/>
<text text-anchor="middle" x="165.91" y="-143.3" font-family="Times,serif" font-size="14.00">0</text>
<polyline fill="none" stroke="black" points="97.41,-135.5 234.41,-135.5"/>
<text text-anchor="middle" x="165.91" y="-120.3" font-family="Times,serif" font-size="14.00">ipu1_ic_prpenc</text>
<text text-anchor="middle" x="165.91" y="-105.3" font-family="Times,serif" font-size="14.00">/dev/v4l&#45;subdev3</text>
<polyline fill="none" stroke="black" points="97.41,-97.5 234.41,-97.5"/>
<text text-anchor="middle" x="165.91" y="-82.3" font-family="Times,serif" font-size="14.00">1</text>
</g>
<!-- n0000000f&#45;&gt;n00000013 -->
<g id="edge5" class="edge">
<title>n0000000f:port1&#45;&gt;n00000013:port0</title>
<path fill="none" stroke="black" stroke-dasharray="5,2" d="M183.91,-206.5C158.79,-206.5 214.7,-176.02 235.16,-158.88"/>
<polygon fill="black" stroke="black" points="238.65,-159.22 235.82,-149.01 231.66,-158.76 238.65,-159.22"/>
</g>
<!-- n0000001c -->
<g id="node6" class="node">
<title>n0000001c</title>
<path fill="green" stroke="black" d="M274.41,-74.5C274.41,-74.5 387.41,-74.5 387.41,-74.5 393.41,-74.5 399.41,-80.5 399.41,-86.5 399.41,-86.5 399.41,-146.5 399.41,-146.5 399.41,-152.5 393.41,-158.5 387.41,-158.5 387.41,-158.5 274.41,-158.5 274.41,-158.5 268.41,-158.5 262.41,-152.5 262.41,-146.5 262.41,-146.5 262.41,-86.5 262.41,-86.5 262.41,-80.5 268.41,-74.5 274.41,-74.5"/>
<text text-anchor="middle" x="330.91" y="-143.3" font-family="Times,serif" font-size="14.00">0</text>
<polyline fill="none" stroke="black" points="262.41,-135.5 399.41,-135.5"/>
<text text-anchor="middle" x="330.91" y="-120.3" font-family="Times,serif" font-size="14.00">ipu1_ic_prpvf</text>
<text text-anchor="middle" x="330.91" y="-105.3" font-family="Times,serif" font-size="14.00">/dev/v4l&#45;subdev4</text>
<polyline fill="none" stroke="black" points="262.41,-97.5 399.41,-97.5"/>
<text text-anchor="middle" x="330.91" y="-82.3" font-family="Times,serif" font-size="14.00">1</text>
</g>
<!-- n0000000f&#45;&gt;n0000001c -->
<g id="edge6" class="edge">
<title>n0000000f:port2&#45;&gt;n0000001c:port0</title>
<path fill="none" stroke="black" stroke-dasharray="5,2" d="M287.91,-195C287.91,-181.34 271.69,-168.02 261.81,-158.98"/>
<polygon fill="black" stroke="black" points="265.3,-158.71 261.03,-149.01 258.32,-159.25 265.3,-158.71"/>
</g>
<!-- n0000000b&#45;&gt;n0000000f -->
<g id="edge4" class="edge">
<title>n0000000b:port2&#45;&gt;n0000000f:port0</title>
<path fill="none" stroke="black" stroke-dasharray="5,2" d="M253.91,-316C253.91,-304.62 253.91,-299.32 253.91,-291.45"/>
<polygon fill="black" stroke="black" points="257.42,-291.51 253.91,-281.51 250.42,-291.51 257.42,-291.51"/>
</g>
<!-- n00000016 -->
<g id="node7" class="node">
<title>n00000016</title>
<polygon fill="yellow" stroke="black" points="236.91,-38 54.91,-38 54.91,0 236.91,0 236.91,-38"/>
<text text-anchor="middle" x="145.91" y="-22.8" font-family="Times,serif" font-size="14.00">ipu1_ic_prpenc capture</text>
<text text-anchor="middle" x="145.91" y="-7.8" font-family="Times,serif" font-size="14.00">/dev/video1</text>
</g>
<!-- n00000013&#45;&gt;n00000016 -->
<g id="edge7" class="edge">
<title>n00000013:port1&#45;&gt;n00000016</title>
<path fill="none" stroke="black" stroke-dasharray="5,2" d="M165.91,-74C165.91,-65.57 163.75,-56.84 160.84,-48.92"/>
<polygon fill="black" stroke="black" points="164.09,-47.62 156.97,-39.77 157.64,-50.35 164.09,-47.62"/>
</g>
<!-- n0000001f -->
<g id="node8" class="node">
<title>n0000001f</title>
<polygon fill="yellow" stroke="black" points="426.41,-38 255.41,-38 255.41,0 426.41,0 426.41,-38"/>
<text text-anchor="middle" x="340.91" y="-22.8" font-family="Times,serif" font-size="14.00">ipu1_ic_prpvf capture</text>
<text text-anchor="middle" x="340.91" y="-7.8" font-family="Times,serif" font-size="14.00">/dev/video2</text>
</g>
<!-- n0000001c&#45;&gt;n0000001f -->
<g id="edge8" class="edge">
<title>n0000001c:port1&#45;&gt;n0000001f</title>
<path fill="none" stroke="black" stroke-dasharray="5,2" d="M330.91,-74C330.91,-65.93 332.01,-57.29 333.47,-49.34"/>
<polygon fill="black" stroke="black" points="336.84,-50.33 335.48,-39.82 329.99,-48.88 336.84,-50.33"/>
</g>
<!-- n0000002f -->
<g id="node9" class="node">
<title>n0000002f</title>
<path fill="green" stroke="black" d="M344.41,-437.5C344.41,-437.5 457.41,-437.5 457.41,-437.5 463.41,-437.5 469.41,-443.5 469.41,-449.5 469.41,-449.5 469.41,-509.5 469.41,-509.5 469.41,-515.5 463.41,-521.5 457.41,-521.5 457.41,-521.5 344.41,-521.5 344.41,-521.5 338.41,-521.5 332.41,-515.5 332.41,-509.5 332.41,-509.5 332.41,-449.5 332.41,-449.5 332.41,-443.5 338.41,-437.5 344.41,-437.5"/>
<text text-anchor="middle" x="400.91" y="-506.3" font-family="Times,serif" font-size="14.00">0</text>
<polyline fill="none" stroke="black" points="332.41,-498.5 469.41,-498.5"/>
<text text-anchor="middle" x="400.91" y="-483.3" font-family="Times,serif" font-size="14.00">ipu1_csi1</text>
<text text-anchor="middle" x="400.91" y="-468.3" font-family="Times,serif" font-size="14.00">/dev/v4l&#45;subdev5</text>
<polyline fill="none" stroke="black" points="332.41,-460.5 469.41,-460.5"/>
<text text-anchor="middle" x="366.41" y="-445.3" font-family="Times,serif" font-size="14.00">1</text>
<polyline fill="none" stroke="black" points="400.41,-437.5 400.41,-460.5"/>
<text text-anchor="middle" x="434.91" y="-445.3" font-family="Times,serif" font-size="14.00">2</text>
</g>
<!-- n0000002f&#45;&gt;n0000000f -->
<g id="edge10" class="edge">
<title>n0000002f:port1&#45;&gt;n0000000f:port0</title>
<path fill="none" stroke="black" stroke-dasharray="5,2" d="M365.91,-437C365.91,-402.33 363.16,-293.95 334.62,-272.29"/>
<polygon fill="black" stroke="black" points="335.94,-269.04 325.34,-269.01 333.6,-275.64 335.94,-269.04"/>
</g>
<!-- n0000002f&#45;&gt;n0000000b -->
<g id="edge11" class="edge">
<title>n0000002f:port1&#45;&gt;n0000000b:port0</title>
<path fill="none" stroke="black" stroke-dasharray="5,2" d="M330.91,-448.5C307.47,-448.5 240.46,-433.11 223.08,-411.39"/>
<polygon fill="black" stroke="black" points="226.44,-410.39 219.48,-402.41 219.95,-412.99 226.44,-410.39"/>
</g>
<!-- n00000033 -->
<g id="node10" class="node">
<title>n00000033</title>
<polygon fill="yellow" stroke="black" points="522.41,-377.5 379.41,-377.5 379.41,-339.5 522.41,-339.5 522.41,-377.5"/>
<text text-anchor="middle" x="450.91" y="-362.3" font-family="Times,serif" font-size="14.00">ipu1_csi1 capture</text>
<text text-anchor="middle" x="450.91" y="-347.3" font-family="Times,serif" font-size="14.00">/dev/video3</text>
</g>
<!-- n0000002f&#45;&gt;n00000033 -->
<g id="edge9" class="edge">
<title>n0000002f:port2&#45;&gt;n00000033</title>
<path fill="none" stroke="black" stroke-dasharray="5,2" d="M434.91,-437C434.91,-420.74 438.34,-402.95 442.01,-388.52"/>
<polygon fill="black" stroke="black" points="445.29,-389.79 444.56,-379.22 438.54,-387.94 445.29,-389.79"/>
</g>
<!-- n0000003d -->
<g id="node11" class="node">
<title>n0000003d</title>
<path fill="green" stroke="black" d="M544.41,-437.5C544.41,-437.5 657.41,-437.5 657.41,-437.5 663.41,-437.5 669.41,-443.5 669.41,-449.5 669.41,-449.5 669.41,-509.5 669.41,-509.5 669.41,-515.5 663.41,-521.5 657.41,-521.5 657.41,-521.5 544.41,-521.5 544.41,-521.5 538.41,-521.5 532.41,-515.5 532.41,-509.5 532.41,-509.5 532.41,-449.5 532.41,-449.5 532.41,-443.5 538.41,-437.5 544.41,-437.5"/>
<text text-anchor="middle" x="600.91" y="-506.3" font-family="Times,serif" font-size="14.00">0</text>
<polyline fill="none" stroke="black" points="532.41,-498.5 669.41,-498.5"/>
<text text-anchor="middle" x="600.91" y="-483.3" font-family="Times,serif" font-size="14.00">ipu2_csi0</text>
<text text-anchor="middle" x="600.91" y="-468.3" font-family="Times,serif" font-size="14.00">/dev/v4l&#45;subdev6</text>
<polyline fill="none" stroke="black" points="532.41,-460.5 669.41,-460.5"/>
<text text-anchor="middle" x="566.41" y="-445.3" font-family="Times,serif" font-size="14.00">1</text>
<polyline fill="none" stroke="black" points="600.41,-437.5 600.41,-460.5"/>
<text text-anchor="middle" x="634.91" y="-445.3" font-family="Times,serif" font-size="14.00">2</text>
</g>
<!-- n00000041 -->
<g id="node12" class="node">
<title>n00000041</title>
<polygon fill="yellow" stroke="black" points="722.41,-377.5 579.41,-377.5 579.41,-339.5 722.41,-339.5 722.41,-377.5"/>
<text text-anchor="middle" x="650.91" y="-362.3" font-family="Times,serif" font-size="14.00">ipu2_csi0 capture</text>
<text text-anchor="middle" x="650.91" y="-347.3" font-family="Times,serif" font-size="14.00">/dev/video4</text>
</g>
<!-- n0000003d&#45;&gt;n00000041 -->
<g id="edge12" class="edge">
<title>n0000003d:port2&#45;&gt;n00000041</title>
<path fill="none" stroke="black" stroke-dasharray="5,2" d="M634.91,-437C634.91,-420.74 638.34,-402.95 642.01,-388.52"/>
<polygon fill="black" stroke="black" points="645.29,-389.79 644.56,-379.22 638.54,-387.94 645.29,-389.79"/>
</g>
<!-- n0000004b -->
<g id="node13" class="node">
<title>n0000004b</title>
<path fill="green" stroke="black" d="M752.41,-195.5C752.41,-195.5 865.41,-195.5 865.41,-195.5 871.41,-195.5 877.41,-201.5 877.41,-207.5 877.41,-207.5 877.41,-267.5 877.41,-267.5 877.41,-273.5 871.41,-279.5 865.41,-279.5 865.41,-279.5 752.41,-279.5 752.41,-279.5 746.41,-279.5 740.41,-273.5 740.41,-267.5 740.41,-267.5 740.41,-207.5 740.41,-207.5 740.41,-201.5 746.41,-195.5 752.41,-195.5"/>
<text text-anchor="middle" x="808.91" y="-264.3" font-family="Times,serif" font-size="14.00">0</text>
<polyline fill="none" stroke="black" points="740.41,-256.5 877.41,-256.5"/>
<text text-anchor="middle" x="808.91" y="-241.3" font-family="Times,serif" font-size="14.00">ipu2_ic_prp</text>
<text text-anchor="middle" x="808.91" y="-226.3" font-family="Times,serif" font-size="14.00">/dev/v4l&#45;subdev8</text>
<polyline fill="none" stroke="black" points="740.41,-218.5 877.41,-218.5"/>
<text text-anchor="middle" x="774.41" y="-203.3" font-family="Times,serif" font-size="14.00">1</text>
<polyline fill="none" stroke="black" points="808.41,-195.5 808.41,-218.5"/>
<text text-anchor="middle" x="842.91" y="-203.3" font-family="Times,serif" font-size="14.00">2</text>
</g>
<!-- n0000003d&#45;&gt;n0000004b -->
<g id="edge13" class="edge">
<title>n0000003d:port1&#45;&gt;n0000004b:port0</title>
<path fill="none" stroke="black" stroke-dasharray="5,2" d="M565.91,-437C565.91,-383.18 537.56,-358.25 570.91,-316 592.89,-288.17 682.64,-271.53 727.54,-268.88"/>
<polygon fill="black" stroke="black" points="727.52,-272.38 737.4,-268.55 727.29,-265.38 727.52,-272.38"/>
</g>
<!-- n00000047 -->
<g id="node14" class="node">
<title>n00000047</title>
<path fill="green" stroke="black" d="M752.41,-316.5C752.41,-316.5 865.41,-316.5 865.41,-316.5 871.41,-316.5 877.41,-322.5 877.41,-328.5 877.41,-328.5 877.41,-388.5 877.41,-388.5 877.41,-394.5 871.41,-400.5 865.41,-400.5 865.41,-400.5 752.41,-400.5 752.41,-400.5 746.41,-400.5 740.41,-394.5 740.41,-388.5 740.41,-388.5 740.41,-328.5 740.41,-328.5 740.41,-322.5 746.41,-316.5 752.41,-316.5"/>
<text text-anchor="middle" x="774.41" y="-385.3" font-family="Times,serif" font-size="14.00">0</text>
<polyline fill="none" stroke="black" points="808.41,-377.5 808.41,-400.5"/>
<text text-anchor="middle" x="842.91" y="-385.3" font-family="Times,serif" font-size="14.00">1</text>
<polyline fill="none" stroke="black" points="740.41,-377.5 877.41,-377.5"/>
<text text-anchor="middle" x="808.91" y="-362.3" font-family="Times,serif" font-size="14.00">ipu2_vdic</text>
<text text-anchor="middle" x="808.91" y="-347.3" font-family="Times,serif" font-size="14.00">/dev/v4l&#45;subdev7</text>
<polyline fill="none" stroke="black" points="740.41,-339.5 877.41,-339.5"/>
<text text-anchor="middle" x="808.91" y="-324.3" font-family="Times,serif" font-size="14.00">2</text>
</g>
<!-- n0000003d&#45;&gt;n00000047 -->
<g id="edge14" class="edge">
<title>n0000003d:port1&#45;&gt;n00000047:port0</title>
<path fill="none" stroke="black" stroke-dasharray="5,2" d="M565.91,-437C565.91,-361.51 670.42,-444.79 731.91,-401 732.52,-400.57 733,-400.06 733.37,-399.51"/>
<polygon fill="black" stroke="black" points="736.4,-401.27 738.18,-390.82 730.27,-397.88 736.4,-401.27"/>
</g>
<!-- n0000004f -->
<g id="node15" class="node">
<title>n0000004f</title>
<path fill="green" stroke="black" d="M663.41,-74.5C663.41,-74.5 776.41,-74.5 776.41,-74.5 782.41,-74.5 788.41,-80.5 788.41,-86.5 788.41,-86.5 788.41,-146.5 788.41,-146.5 788.41,-152.5 782.41,-158.5 776.41,-158.5 776.41,-158.5 663.41,-158.5 663.41,-158.5 657.41,-158.5 651.41,-152.5 651.41,-146.5 651.41,-146.5 651.41,-86.5 651.41,-86.5 651.41,-80.5 657.41,-74.5 663.41,-74.5"/>
<text text-anchor="middle" x="719.91" y="-143.3" font-family="Times,serif" font-size="14.00">0</text>
<polyline fill="none" stroke="black" points="651.41,-135.5 788.41,-135.5"/>
<text text-anchor="middle" x="719.91" y="-120.3" font-family="Times,serif" font-size="14.00">ipu2_ic_prpenc</text>
<text text-anchor="middle" x="719.91" y="-105.3" font-family="Times,serif" font-size="14.00">/dev/v4l&#45;subdev9</text>
<polyline fill="none" stroke="black" points="651.41,-97.5 788.41,-97.5"/>
<text text-anchor="middle" x="719.91" y="-82.3" font-family="Times,serif" font-size="14.00">1</text>
</g>
<!-- n0000004b&#45;&gt;n0000004f -->
<g id="edge16" class="edge">
<title>n0000004b:port1&#45;&gt;n0000004f:port0</title>
<path fill="none" stroke="black" stroke-dasharray="5,2" d="M738.91,-206.5C714,-206.5 769.15,-176.02 789.28,-158.88"/>
<polygon fill="black" stroke="black" points="792.77,-159.19 789.83,-149.01 785.78,-158.8 792.77,-159.19"/>
</g>
<!-- n00000058 -->
<g id="node16" class="node">
<title>n00000058</title>
<path fill="green" stroke="black" d="M835.91,-74.5C835.91,-74.5 957.91,-74.5 957.91,-74.5 963.91,-74.5 969.91,-80.5 969.91,-86.5 969.91,-86.5 969.91,-146.5 969.91,-146.5 969.91,-152.5 963.91,-158.5 957.91,-158.5 957.91,-158.5 835.91,-158.5 835.91,-158.5 829.91,-158.5 823.91,-152.5 823.91,-146.5 823.91,-146.5 823.91,-86.5 823.91,-86.5 823.91,-80.5 829.91,-74.5 835.91,-74.5"/>
<text text-anchor="middle" x="896.91" y="-143.3" font-family="Times,serif" font-size="14.00">0</text>
<polyline fill="none" stroke="black" points="823.91,-135.5 969.91,-135.5"/>
<text text-anchor="middle" x="896.91" y="-120.3" font-family="Times,serif" font-size="14.00">ipu2_ic_prpvf</text>
<text text-anchor="middle" x="896.91" y="-105.3" font-family="Times,serif" font-size="14.00">/dev/v4l&#45;subdev10</text>
<polyline fill="none" stroke="black" points="823.91,-97.5 969.91,-97.5"/>
<text text-anchor="middle" x="896.91" y="-82.3" font-family="Times,serif" font-size="14.00">1</text>
</g>
<!-- n0000004b&#45;&gt;n00000058 -->
<g id="edge17" class="edge">
<title>n0000004b:port2&#45;&gt;n00000058:port0</title>
<path fill="none" stroke="black" stroke-dasharray="5,2" d="M878.91,-206.5C884.05,-206.5 880.53,-199.41 877.91,-195 863.21,-170.18 838.62,-183.82 823.91,-159 823.83,-158.86 823.75,-158.72 823.67,-158.58"/>
<polygon fill="black" stroke="black" points="827.19,-158.75 823.02,-149.01 820.2,-159.22 827.19,-158.75"/>
</g>
<!-- n00000047&#45;&gt;n0000004b -->
<g id="edge15" class="edge">
<title>n00000047:port2&#45;&gt;n0000004b:port0</title>
<path fill="none" stroke="black" stroke-dasharray="5,2" d="M808.91,-316C808.91,-304.62 808.91,-299.32 808.91,-291.45"/>
<polygon fill="black" stroke="black" points="812.42,-291.51 808.91,-281.51 805.42,-291.51 812.42,-291.51"/>
</g>
<!-- n00000052 -->
<g id="node17" class="node">
<title>n00000052</title>
<polygon fill="yellow" stroke="black" points="801.91,-38 619.91,-38 619.91,0 801.91,0 801.91,-38"/>
<text text-anchor="middle" x="710.91" y="-22.8" font-family="Times,serif" font-size="14.00">ipu2_ic_prpenc capture</text>
<text text-anchor="middle" x="710.91" y="-7.8" font-family="Times,serif" font-size="14.00">/dev/video5</text>
</g>
<!-- n0000004f&#45;&gt;n00000052 -->
<g id="edge18" class="edge">
<title>n0000004f:port1&#45;&gt;n00000052</title>
<path fill="none" stroke="black" stroke-dasharray="5,2" d="M719.91,-74C719.91,-66.05 718.95,-57.52 717.66,-49.65"/>
<polygon fill="black" stroke="black" points="721.1,-49.03 715.8,-39.86 714.23,-50.33 721.1,-49.03"/>
</g>
<!-- n0000005b -->
<g id="node18" class="node">
<title>n0000005b</title>
<polygon fill="yellow" stroke="black" points="991.41,-38 820.41,-38 820.41,0 991.41,0 991.41,-38"/>
<text text-anchor="middle" x="905.91" y="-22.8" font-family="Times,serif" font-size="14.00">ipu2_ic_prpvf capture</text>
<text text-anchor="middle" x="905.91" y="-7.8" font-family="Times,serif" font-size="14.00">/dev/video6</text>
</g>
<!-- n00000058&#45;&gt;n0000005b -->
<g id="edge19" class="edge">
<title>n00000058:port1&#45;&gt;n0000005b</title>
<path fill="none" stroke="black" stroke-dasharray="5,2" d="M896.91,-74C896.91,-66.05 897.88,-57.52 899.17,-49.65"/>
<polygon fill="black" stroke="black" points="902.6,-50.33 901.03,-39.86 895.73,-49.03 902.6,-50.33"/>
</g>
<!-- n0000006b -->
<g id="node19" class="node">
<title>n0000006b</title>
<path fill="green" stroke="black" d="M815.91,-437.5C815.91,-437.5 937.91,-437.5 937.91,-437.5 943.91,-437.5 949.91,-443.5 949.91,-449.5 949.91,-449.5 949.91,-509.5 949.91,-509.5 949.91,-515.5 943.91,-521.5 937.91,-521.5 937.91,-521.5 815.91,-521.5 815.91,-521.5 809.91,-521.5 803.91,-515.5 803.91,-509.5 803.91,-509.5 803.91,-449.5 803.91,-449.5 803.91,-443.5 809.91,-437.5 815.91,-437.5"/>
<text text-anchor="middle" x="876.91" y="-506.3" font-family="Times,serif" font-size="14.00">0</text>
<polyline fill="none" stroke="black" points="803.91,-498.5 949.91,-498.5"/>
<text text-anchor="middle" x="876.91" y="-483.3" font-family="Times,serif" font-size="14.00">ipu2_csi1</text>
<text text-anchor="middle" x="876.91" y="-468.3" font-family="Times,serif" font-size="14.00">/dev/v4l&#45;subdev11</text>
<polyline fill="none" stroke="black" points="803.91,-460.5 949.91,-460.5"/>
<text text-anchor="middle" x="840.41" y="-445.3" font-family="Times,serif" font-size="14.00">1</text>
<polyline fill="none" stroke="black" points="876.91,-437.5 876.91,-460.5"/>
<text text-anchor="middle" x="913.41" y="-445.3" font-family="Times,serif" font-size="14.00">2</text>
</g>
<!-- n0000006b&#45;&gt;n0000004b -->
<g id="edge21" class="edge">
<title>n0000006b:port1&#45;&gt;n0000004b:port0</title>
<path fill="none" stroke="black" stroke-dasharray="5,2" d="M839.91,-437C839.91,-410.69 875.27,-424.59 886.91,-401 911.19,-351.82 934.41,-279.56 890.14,-269.64"/>
<polygon fill="black" stroke="black" points="890.72,-266.18 880.42,-268.65 890.01,-273.15 890.72,-266.18"/>
</g>
<!-- n0000006b&#45;&gt;n00000047 -->
<g id="edge22" class="edge">
<title>n0000006b:port1&#45;&gt;n00000047:port0</title>
<path fill="none" stroke="black" stroke-dasharray="5,2" d="M839.91,-437C839.91,-408.29 791.17,-427.01 777.46,-411.64"/>
<polygon fill="black" stroke="black" points="780.88,-410.82 774.39,-402.44 774.24,-413.03 780.88,-410.82"/>
</g>
<!-- n0000006f -->
<g id="node20" class="node">
<title>n0000006f</title>
<polygon fill="yellow" stroke="black" points="1077.41,-377.5 934.41,-377.5 934.41,-339.5 1077.41,-339.5 1077.41,-377.5"/>
<text text-anchor="middle" x="1005.91" y="-362.3" font-family="Times,serif" font-size="14.00">ipu2_csi1 capture</text>
<text text-anchor="middle" x="1005.91" y="-347.3" font-family="Times,serif" font-size="14.00">/dev/video7</text>
</g>
<!-- n0000006b&#45;&gt;n0000006f -->
<g id="edge20" class="edge">
<title>n0000006b:port2&#45;&gt;n0000006f</title>
<path fill="none" stroke="black" stroke-dasharray="5,2" d="M950.91,-448.5C979.42,-448.5 993.65,-415.04 1000.39,-389.16"/>
<polygon fill="black" stroke="black" points="1003.8,-389.95 1002.64,-379.42 996.98,-388.37 1003.8,-389.95"/>
</g>
<!-- n00000079 -->
<g id="node21" class="node">
<title>n00000079</title>
<path fill="green" stroke="black" d="M432.91,-679.5C432.91,-679.5 554.91,-679.5 554.91,-679.5 560.91,-679.5 566.91,-685.5 566.91,-691.5 566.91,-691.5 566.91,-751.5 566.91,-751.5 566.91,-757.5 560.91,-763.5 554.91,-763.5 554.91,-763.5 432.91,-763.5 432.91,-763.5 426.91,-763.5 420.91,-757.5 420.91,-751.5 420.91,-751.5 420.91,-691.5 420.91,-691.5 420.91,-685.5 426.91,-679.5 432.91,-679.5"/>
<text text-anchor="middle" x="493.91" y="-748.3" font-family="Times,serif" font-size="14.00">0</text>
<polyline fill="none" stroke="black" points="420.91,-740.5 566.91,-740.5"/>
<text text-anchor="middle" x="493.91" y="-725.3" font-family="Times,serif" font-size="14.00">imx6&#45;mipi&#45;csi2</text>
<text text-anchor="middle" x="493.91" y="-710.3" font-family="Times,serif" font-size="14.00">/dev/v4l&#45;subdev12</text>
<polyline fill="none" stroke="black" points="420.91,-702.5 566.91,-702.5"/>
<text text-anchor="middle" x="438.91" y="-687.3" font-family="Times,serif" font-size="14.00">1</text>
<polyline fill="none" stroke="black" points="456.91,-679.5 456.91,-702.5"/>
<text text-anchor="middle" x="475.41" y="-687.3" font-family="Times,serif" font-size="14.00">2</text>
<polyline fill="none" stroke="black" points="493.91,-679.5 493.91,-702.5"/>
<text text-anchor="middle" x="511.91" y="-687.3" font-family="Times,serif" font-size="14.00">3</text>
<polyline fill="none" stroke="black" points="529.91,-679.5 529.91,-702.5"/>
<text text-anchor="middle" x="548.41" y="-687.3" font-family="Times,serif" font-size="14.00">4</text>
</g>
<!-- n00000079&#45;&gt;n0000002f -->
<g id="edge23" class="edge">
<title>n00000079:port2&#45;&gt;n0000002f:port0</title>
<path fill="none" stroke="black" stroke-dasharray="5,2" d="M474.91,-679C474.91,-605.78 408.24,-599.61 401.47,-533.2"/>
<polygon fill="black" stroke="black" points="404.98,-533.33 400.99,-523.51 397.99,-533.67 404.98,-533.33"/>
</g>
<!-- n00000079&#45;&gt;n0000003d -->
<g id="edge24" class="edge">
<title>n00000079:port3&#45;&gt;n0000003d:port0</title>
<path fill="none" stroke="black" stroke-dasharray="5,2" d="M511.91,-679C511.91,-602.71 592.44,-602.08 600.3,-533.17"/>
<polygon fill="black" stroke="black" points="603.78,-533.69 600.83,-523.51 596.79,-533.3 603.78,-533.69"/>
</g>
<!-- n0000007f -->
<g id="node22" class="node">
<title>n0000007f</title>
<path fill="green" stroke="black" d="M244.91,-558.5C244.91,-558.5 366.91,-558.5 366.91,-558.5 372.91,-558.5 378.91,-564.5 378.91,-570.5 378.91,-570.5 378.91,-630.5 378.91,-630.5 378.91,-636.5 372.91,-642.5 366.91,-642.5 366.91,-642.5 244.91,-642.5 244.91,-642.5 238.91,-642.5 232.91,-636.5 232.91,-630.5 232.91,-630.5 232.91,-570.5 232.91,-570.5 232.91,-564.5 238.91,-558.5 244.91,-558.5"/>
<text text-anchor="middle" x="269.41" y="-627.3" font-family="Times,serif" font-size="14.00">0</text>
<polyline fill="none" stroke="black" points="305.91,-619.5 305.91,-642.5"/>
<text text-anchor="middle" x="342.41" y="-627.3" font-family="Times,serif" font-size="14.00">1</text>
<polyline fill="none" stroke="black" points="232.91,-619.5 378.91,-619.5"/>
<text text-anchor="middle" x="305.91" y="-604.3" font-family="Times,serif" font-size="14.00">ipu1_csi0_mux</text>
<text text-anchor="middle" x="305.91" y="-589.3" font-family="Times,serif" font-size="14.00">/dev/v4l&#45;subdev13</text>
<polyline fill="none" stroke="black" points="232.91,-581.5 378.91,-581.5"/>
<text text-anchor="middle" x="305.91" y="-566.3" font-family="Times,serif" font-size="14.00">2</text>
</g>
<!-- n00000079&#45;&gt;n0000007f -->
<g id="edge25" class="edge">
<title>n00000079:port1&#45;&gt;n0000007f:port0</title>
<path fill="none" stroke="black" stroke-dasharray="5,2" d="M419.91,-690.5C388.59,-690.5 293.29,-680.72 272.81,-653.74"/>
<polygon fill="black" stroke="black" points="276.14,-652.63 269.43,-644.42 269.56,-655.02 276.14,-652.63"/>
</g>
<!-- n00000083 -->
<g id="node23" class="node">
<title>n00000083</title>
<path fill="green" stroke="black" d="M694.91,-558.5C694.91,-558.5 816.91,-558.5 816.91,-558.5 822.91,-558.5 828.91,-564.5 828.91,-570.5 828.91,-570.5 828.91,-630.5 828.91,-630.5 828.91,-636.5 822.91,-642.5 816.91,-642.5 816.91,-642.5 694.91,-642.5 694.91,-642.5 688.91,-642.5 682.91,-636.5 682.91,-630.5 682.91,-630.5 682.91,-570.5 682.91,-570.5 682.91,-564.5 688.91,-558.5 694.91,-558.5"/>
<text text-anchor="middle" x="719.41" y="-627.3" font-family="Times,serif" font-size="14.00">0</text>
<polyline fill="none" stroke="black" points="755.91,-619.5 755.91,-642.5"/>
<text text-anchor="middle" x="792.41" y="-627.3" font-family="Times,serif" font-size="14.00">1</text>
<polyline fill="none" stroke="black" points="682.91,-619.5 828.91,-619.5"/>
<text text-anchor="middle" x="755.91" y="-604.3" font-family="Times,serif" font-size="14.00">ipu2_csi1_mux</text>
<text text-anchor="middle" x="755.91" y="-589.3" font-family="Times,serif" font-size="14.00">/dev/v4l&#45;subdev14</text>
<polyline fill="none" stroke="black" points="682.91,-581.5 828.91,-581.5"/>
<text text-anchor="middle" x="755.91" y="-566.3" font-family="Times,serif" font-size="14.00">2</text>
</g>
<!-- n00000079&#45;&gt;n00000083 -->
<g id="edge26" class="edge">
<title>n00000079:port4&#45;&gt;n00000083:port0</title>
<path fill="none" stroke="black" stroke-dasharray="5,2" d="M567.91,-690.5C620.95,-690.5 624.6,-639.51 670.69,-632.33"/>
<polygon fill="black" stroke="black" points="670.69,-635.84 680.41,-631.61 670.17,-628.86 670.69,-635.84"/>
</g>
<!-- n0000007f&#45;&gt;n00000001 -->
<g id="edge27" class="edge">
<title>n0000007f:port2&#45;&gt;n00000001:port0</title>
<path fill="none" stroke="black" stroke-dasharray="5,2" d="M231.91,-569.5C212.04,-569.5 237.35,-535.62 239.36,-519.21"/>
<polygon fill="black" stroke="black" points="242.06,-516.98 232.9,-511.65 236.74,-521.53 242.06,-516.98"/>
</g>
<!-- n00000083&#45;&gt;n0000006b -->
<g id="edge28" class="edge">
<title>n00000083:port2&#45;&gt;n0000006b:port0</title>
<path fill="none" stroke="black" stroke-dasharray="5,2" d="M829.91,-569.5C850.75,-569.5 812.31,-538.69 800.27,-521.6"/>
<polygon fill="black" stroke="black" points="803.65,-522.51 802.56,-511.97 796.84,-520.89 803.65,-522.51"/>
</g>
<!-- n00000087 -->
<g id="node24" class="node">
<title>n00000087</title>
<path fill="green" stroke="black" d="M432.91,-800.5C432.91,-800.5 554.91,-800.5 554.91,-800.5 560.91,-800.5 566.91,-806.5 566.91,-812.5 566.91,-812.5 566.91,-872.5 566.91,-872.5 566.91,-878.5 560.91,-884.5 554.91,-884.5 554.91,-884.5 432.91,-884.5 432.91,-884.5 426.91,-884.5 420.91,-878.5 420.91,-872.5 420.91,-872.5 420.91,-812.5 420.91,-812.5 420.91,-806.5 426.91,-800.5 432.91,-800.5"/>
<text text-anchor="middle" x="493.91" y="-869.3" font-family="Times,serif" font-size="14.00"> </text>
<polyline fill="none" stroke="black" points="420.91,-861.5 566.91,-861.5"/>
<text text-anchor="middle" x="493.91" y="-846.3" font-family="Times,serif" font-size="14.00">ov5640 1&#45;003c</text>
<text text-anchor="middle" x="493.91" y="-831.3" font-family="Times,serif" font-size="14.00">/dev/v4l&#45;subdev15</text>
<polyline fill="none" stroke="black" points="420.91,-823.5 566.91,-823.5"/>
<text text-anchor="middle" x="493.91" y="-808.3" font-family="Times,serif" font-size="14.00">0</text>
</g>
<!-- n00000087&#45;&gt;n00000079 -->
<g id="edge29" class="edge">
<title>n00000087:port0&#45;&gt;n00000079:port0</title>
<path fill="none" stroke="black" stroke-dasharray="5,2" d="M493.91,-800C493.91,-788.62 493.91,-783.32 493.91,-775.45"/>
<polygon fill="black" stroke="black" points="497.42,-775.51 493.91,-765.51 490.42,-775.51 497.42,-775.51"/>
</g>
</g>
</svg>
