<?xml version="1.0" encoding="UTF-8" standalone="no"?>
<!DOCTYPE svg PUBLIC "-//W3C//DTD SVG 1.1//EN"
 "http://www.w3.org/Graphics/SVG/1.1/DTD/svg11.dtd">
<!-- Generated by graphviz version 7.0.2 (0)
 -->
<!-- Title: peer_states Pages: 1 -->
<svg width="491pt" height="218pt"
 viewBox="0.00 0.00 491.41 218.00" xmlns="http://www.w3.org/2000/svg" xmlns:xlink="http://www.w3.org/1999/xlink">
<g id="graph0" class="graph" transform="scale(1 1) rotate(0) translate(4 214)">
<title>peer_states</title>
<polygon fill="white" stroke="none" points="-4,4 -4,-214 487.41,-214 487.41,4 -4,4"/>
<!-- Secondary -->
<g id="node1" class="node">
<title>Secondary</title>
<ellipse fill="none" stroke="black" cx="220.41" cy="-192" rx="59.59" ry="18"/>
<text text-anchor="middle" x="220.41" y="-188.3" font-family="Times,serif" font-size="14.00">Secondary</text>
</g>
<!-- Primary -->
<g id="node2" class="node">
<title>Primary</title>
<ellipse fill="none" stroke="black" cx="110.41" cy="-105" rx="48.19" ry="18"/>
<text text-anchor="middle" x="110.41" y="-101.3" font-family="Times,serif" font-size="14.00">Primary</text>
</g>
<!-- Secondary&#45;&gt;Primary -->
<g id="edge1" class="edge">
<title>Secondary&#45;&gt;Primary</title>
<path fill="none" stroke="black" d="M160.92,-189.66C104.34,-186.98 25.04,-179.08 5.41,-156 -13,-134.35 20.58,-121.39 54.55,-114.11"/>
<polygon fill="black" stroke="black" points="54.91,-117.61 64.04,-112.24 53.55,-110.74 54.91,-117.61"/>
<text text-anchor="middle" x="67.41" y="-144.8" font-family="Times,serif" font-size="14.00">recv state packet</text>
</g>
<!-- Unknown -->
<g id="node3" class="node">
<title>Unknown</title>
<ellipse fill="none" stroke="black" cx="246.41" cy="-18" rx="54.69" ry="18"/>
<text text-anchor="middle" x="246.41" y="-14.3" font-family="Times,serif" font-size="14.00">Unknown</text>
</g>
<!-- Secondary&#45;&gt;Unknown -->
<g id="edge4" class="edge">
<title>Secondary&#45;&gt;Unknown</title>
<path fill="none" stroke="black" d="M254.79,-176.96C263.37,-171.72 271.52,-164.82 276.41,-156 298.39,-116.35 292.14,-96.52 276.41,-54 275.13,-50.55 273.35,-47.21 271.27,-44.05"/>
<polygon fill="black" stroke="black" points="274.24,-42.16 265.35,-36.38 268.7,-46.44 274.24,-42.16"/>
<text text-anchor="middle" x="344.91" y="-101.3" font-family="Times,serif" font-size="14.00">connection lost</text>
</g>
<!-- Primary&#45;&gt;Secondary -->
<g id="edge2" class="edge">
<title>Primary&#45;&gt;Secondary</title>
<path fill="none" stroke="black" d="M121.85,-122.79C129.59,-133.27 140.54,-146.52 152.41,-156 159.71,-161.83 168.14,-167.1 176.52,-171.68"/>
<polygon fill="black" stroke="black" points="174.81,-174.73 185.3,-176.21 178.02,-168.51 174.81,-174.73"/>
<text text-anchor="middle" x="214.41" y="-144.8" font-family="Times,serif" font-size="14.00">recv state packet</text>
</g>
<!-- Primary&#45;&gt;Unknown -->
<g id="edge3" class="edge">
<title>Primary&#45;&gt;Unknown</title>
<path fill="none" stroke="black" d="M86.48,-88.97C73.52,-78.97 61.92,-65.58 71.41,-54 85.37,-36.97 137.77,-28.06 181.62,-23.51"/>
<polygon fill="black" stroke="black" points="181.73,-27.01 191.35,-22.56 181.05,-20.05 181.73,-27.01"/>
<text text-anchor="middle" x="125.91" y="-57.8" font-family="Times,serif" font-size="14.00">connection lost</text>
</g>
<!-- Unknown&#45;&gt;Secondary -->
<g id="edge6" class="edge">
<title>Unknown&#45;&gt;Secondary</title>
<path fill="none" stroke="black" d="M290.99,-28.9C348.25,-43.78 436.54,-75.35 403.41,-123 377.68,-160.01 329.29,-176.92 288.74,-184.62"/>
<polygon fill="black" stroke="black" points="288.28,-181.15 279.02,-186.3 289.47,-188.05 288.28,-181.15"/>
<text text-anchor="middle" x="446.91" y="-101.3" font-family="Times,serif" font-size="14.00">connected</text>
</g>
<!-- Unknown&#45;&gt;Primary -->
<g id="edge5" class="edge">
<title>Unknown&#45;&gt;Primary</title>
<path fill="none" stroke="black" d="M227.16,-35.09C214.35,-45.41 196.89,-58.76 180.41,-69 170.99,-74.85 160.46,-80.53 150.48,-85.56"/>
<polygon fill="black" stroke="black" points="149.15,-82.31 141.72,-89.86 152.24,-88.59 149.15,-82.31"/>
<text text-anchor="middle" x="236.91" y="-57.8" font-family="Times,serif" font-size="14.00">connected</text>
</g>
</g>
</svg>
