<?xml version="1.0" encoding="UTF-8" standalone="no"?>
<!DOCTYPE svg PUBLIC "-//W3C//DTD SVG 1.1//EN"
 "http://www.w3.org/Graphics/SVG/1.1/DTD/svg11.dtd">
<!-- Generated by graphviz version 7.0.2 (0)
 -->
<!-- Title: board Pages: 1 -->
<svg width="634pt" height="651pt"
 viewBox="0.00 0.00 634.00 651.00" xmlns="http://www.w3.org/2000/svg" xmlns:xlink="http://www.w3.org/1999/xlink">
<g id="graph0" class="graph" transform="scale(1 1) rotate(0) translate(4 647)">
<title>board</title>
<polygon fill="white" stroke="none" points="-4,4 -4,-647 630,-647 630,4 -4,4"/>
<!-- n00000001 -->
<g id="node1" class="node">
<title>n00000001</title>
<path fill="green" stroke="black" d="M179,-437.5C179,-437.5 292,-437.5 292,-437.5 298,-437.5 304,-443.5 304,-449.5 304,-449.5 304,-509.5 304,-509.5 304,-515.5 298,-521.5 292,-521.5 292,-521.5 179,-521.5 179,-521.5 173,-521.5 167,-515.5 167,-509.5 167,-509.5 167,-449.5 167,-449.5 167,-443.5 173,-437.5 179,-437.5"/>
<text text-anchor="middle" x="235.5" y="-506.3" font-family="Times,serif" font-size="14.00">0</text>
<polyline fill="none" stroke="black" points="167,-498.5 304,-498.5"/>
<text text-anchor="middle" x="235.5" y="-483.3" font-family="Times,serif" font-size="14.00">msm_csiphy0</text>
<text text-anchor="middle" x="235.5" y="-468.3" font-family="Times,serif" font-size="14.00">/dev/v4l&#45;subdev0</text>
<polyline fill="none" stroke="black" points="167,-460.5 304,-460.5"/>
<text text-anchor="middle" x="235.5" y="-445.3" font-family="Times,serif" font-size="14.00">1</text>
</g>
<!-- n00000007 -->
<g id="node2" class="node">
<title>n00000007</title>
<path fill="green" stroke="black" d="M179,-316.5C179,-316.5 292,-316.5 292,-316.5 298,-316.5 304,-322.5 304,-328.5 304,-328.5 304,-388.5 304,-388.5 304,-394.5 298,-400.5 292,-400.5 292,-400.5 179,-400.5 179,-400.5 173,-400.5 167,-394.5 167,-388.5 167,-388.5 167,-328.5 167,-328.5 167,-322.5 173,-316.5 179,-316.5"/>
<text text-anchor="middle" x="235.5" y="-385.3" font-family="Times,serif" font-size="14.00">0</text>
<polyline fill="none" stroke="black" points="167,-377.5 304,-377.5"/>
<text text-anchor="middle" x="235.5" y="-362.3" font-family="Times,serif" font-size="14.00">msm_csid0</text>
<text text-anchor="middle" x="235.5" y="-347.3" font-family="Times,serif" font-size="14.00">/dev/v4l&#45;subdev2</text>
<polyline fill="none" stroke="black" points="167,-339.5 304,-339.5"/>
<text text-anchor="middle" x="235.5" y="-324.3" font-family="Times,serif" font-size="14.00">1</text>
</g>
<!-- n00000001&#45;&gt;n00000007 -->
<g id="edge1" class="edge">
<title>n00000001:port1&#45;&gt;n00000007:port0</title>
<path fill="none" stroke="black" stroke-dasharray="5,2" d="M235.5,-437C235.5,-425.62 235.5,-420.32 235.5,-412.45"/>
<polygon fill="black" stroke="black" points="239,-412.51 235.5,-402.51 232,-412.51 239,-412.51"/>
</g>
<!-- n0000000a -->
<g id="node3" class="node">
<title>n0000000a</title>
<path fill="green" stroke="black" d="M334,-316.5C334,-316.5 447,-316.5 447,-316.5 453,-316.5 459,-322.5 459,-328.5 459,-328.5 459,-388.5 459,-388.5 459,-394.5 453,-400.5 447,-400.5 447,-400.5 334,-400.5 334,-400.5 328,-400.5 322,-394.5 322,-388.5 322,-388.5 322,-328.5 322,-328.5 322,-322.5 328,-316.5 334,-316.5"/>
<text text-anchor="middle" x="390.5" y="-385.3" font-family="Times,serif" font-size="14.00">0</text>
<polyline fill="none" stroke="black" points="322,-377.5 459,-377.5"/>
<text text-anchor="middle" x="390.5" y="-362.3" font-family="Times,serif" font-size="14.00">msm_csid1</text>
<text text-anchor="middle" x="390.5" y="-347.3" font-family="Times,serif" font-size="14.00">/dev/v4l&#45;subdev3</text>
<polyline fill="none" stroke="black" points="322,-339.5 459,-339.5"/>
<text text-anchor="middle" x="390.5" y="-324.3" font-family="Times,serif" font-size="14.00">1</text>
</g>
<!-- n00000001&#45;&gt;n0000000a -->
<g id="edge2" class="edge">
<title>n00000001:port1&#45;&gt;n0000000a:port0</title>
<path fill="none" stroke="black" stroke-dasharray="5,2" d="M305.5,-448.5C315.59,-448.5 311.44,-415.66 314.31,-398.98"/>
<polygon fill="black" stroke="black" points="317.13,-401.05 319.67,-390.77 311.27,-397.22 317.13,-401.05"/>
</g>
<!-- n0000000d -->
<g id="node5" class="node">
<title>n0000000d</title>
<path fill="green" stroke="black" d="M179,-195.5C179,-195.5 292,-195.5 292,-195.5 298,-195.5 304,-201.5 304,-207.5 304,-207.5 304,-267.5 304,-267.5 304,-273.5 298,-279.5 292,-279.5 292,-279.5 179,-279.5 179,-279.5 173,-279.5 167,-273.5 167,-267.5 167,-267.5 167,-207.5 167,-207.5 167,-201.5 173,-195.5 179,-195.5"/>
<text text-anchor="middle" x="235.5" y="-264.3" font-family="Times,serif" font-size="14.00">0</text>
<polyline fill="none" stroke="black" points="167,-256.5 304,-256.5"/>
<text text-anchor="middle" x="235.5" y="-241.3" font-family="Times,serif" font-size="14.00">msm_ispif0</text>
<text text-anchor="middle" x="235.5" y="-226.3" font-family="Times,serif" font-size="14.00">/dev/v4l&#45;subdev4</text>
<polyline fill="none" stroke="black" points="167,-218.5 304,-218.5"/>
<text text-anchor="middle" x="235.5" y="-203.3" font-family="Times,serif" font-size="14.00">1</text>
</g>
<!-- n00000007&#45;&gt;n0000000d -->
<g id="edge5" class="edge">
<title>n00000007:port1&#45;&gt;n0000000d:port0</title>
<path fill="none" stroke="black" stroke-dasharray="5,2" d="M235.5,-316C235.5,-304.62 235.5,-299.32 235.5,-291.45"/>
<polygon fill="black" stroke="black" points="239,-291.51 235.5,-281.51 232,-291.51 239,-291.51"/>
</g>
<!-- n00000010 -->
<g id="node6" class="node">
<title>n00000010</title>
<path fill="green" stroke="black" d="M334,-195.5C334,-195.5 447,-195.5 447,-195.5 453,-195.5 459,-201.5 459,-207.5 459,-207.5 459,-267.5 459,-267.5 459,-273.5 453,-279.5 447,-279.5 447,-279.5 334,-279.5 334,-279.5 328,-279.5 322,-273.5 322,-267.5 322,-267.5 322,-207.5 322,-207.5 322,-201.5 328,-195.5 334,-195.5"/>
<text text-anchor="middle" x="390.5" y="-264.3" font-family="Times,serif" font-size="14.00">0</text>
<polyline fill="none" stroke="black" points="322,-256.5 459,-256.5"/>
<text text-anchor="middle" x="390.5" y="-241.3" font-family="Times,serif" font-size="14.00">msm_ispif1</text>
<text text-anchor="middle" x="390.5" y="-226.3" font-family="Times,serif" font-size="14.00">/dev/v4l&#45;subdev5</text>
<polyline fill="none" stroke="black" points="322,-218.5 459,-218.5"/>
<text text-anchor="middle" x="390.5" y="-203.3" font-family="Times,serif" font-size="14.00">1</text>
</g>
<!-- n00000007&#45;&gt;n00000010 -->
<g id="edge6" class="edge">
<title>n00000007:port1&#45;&gt;n00000010:port0</title>
<path fill="none" stroke="black" stroke-dasharray="5,2" d="M305.5,-327.5C315.59,-327.5 311.44,-294.66 314.31,-277.98"/>
<polygon fill="black" stroke="black" points="317.13,-280.05 319.67,-269.77 311.27,-276.22 317.13,-280.05"/>
</g>
<!-- n0000000a&#45;&gt;n0000000d -->
<g id="edge7" class="edge">
<title>n0000000a:port1&#45;&gt;n0000000d:port0</title>
<path fill="none" stroke="black" stroke-dasharray="5,2" d="M320.5,-327.5C310.41,-327.5 314.56,-294.66 311.69,-277.98"/>
<polygon fill="black" stroke="black" points="314.73,-276.22 306.33,-269.77 308.87,-280.05 314.73,-276.22"/>
</g>
<!-- n0000000a&#45;&gt;n00000010 -->
<g id="edge8" class="edge">
<title>n0000000a:port1&#45;&gt;n00000010:port0</title>
<path fill="none" stroke="black" stroke-dasharray="5,2" d="M390.5,-316C390.5,-304.62 390.5,-299.32 390.5,-291.45"/>
<polygon fill="black" stroke="black" points="394,-291.51 390.5,-281.51 387,-291.51 394,-291.51"/>
</g>
<!-- n00000004 -->
<g id="node4" class="node">
<title>n00000004</title>
<path fill="green" stroke="black" d="M334,-437.5C334,-437.5 447,-437.5 447,-437.5 453,-437.5 459,-443.5 459,-449.5 459,-449.5 459,-509.5 459,-509.5 459,-515.5 453,-521.5 447,-521.5 447,-521.5 334,-521.5 334,-521.5 328,-521.5 322,-515.5 322,-509.5 322,-509.5 322,-449.5 322,-449.5 322,-443.5 328,-437.5 334,-437.5"/>
<text text-anchor="middle" x="390.5" y="-506.3" font-family="Times,serif" font-size="14.00">0</text>
<polyline fill="none" stroke="black" points="322,-498.5 459,-498.5"/>
<text text-anchor="middle" x="390.5" y="-483.3" font-family="Times,serif" font-size="14.00">msm_csiphy1</text>
<text text-anchor="middle" x="390.5" y="-468.3" font-family="Times,serif" font-size="14.00">/dev/v4l&#45;subdev1</text>
<polyline fill="none" stroke="black" points="322,-460.5 459,-460.5"/>
<text text-anchor="middle" x="390.5" y="-445.3" font-family="Times,serif" font-size="14.00">1</text>
</g>
<!-- n00000004&#45;&gt;n00000007 -->
<g id="edge3" class="edge">
<title>n00000004:port1&#45;&gt;n00000007:port0</title>
<path fill="none" stroke="black" stroke-dasharray="5,2" d="M320.5,-448.5C310.41,-448.5 314.56,-415.66 311.69,-398.98"/>
<polygon fill="black" stroke="black" points="314.73,-397.22 306.33,-390.77 308.87,-401.05 314.73,-397.22"/>
</g>
<!-- n00000004&#45;&gt;n0000000a -->
<g id="edge4" class="edge">
<title>n00000004:port1&#45;&gt;n0000000a:port0</title>
<path fill="none" stroke="black" stroke-dasharray="5,2" d="M390.5,-437C390.5,-425.62 390.5,-420.32 390.5,-412.45"/>
<polygon fill="black" stroke="black" points="394,-412.51 390.5,-402.51 387,-412.51 394,-412.51"/>
</g>
<!-- n00000013 -->
<g id="node7" class="node">
<title>n00000013</title>
<path fill="green" stroke="black" d="M24,-74.5C24,-74.5 137,-74.5 137,-74.5 143,-74.5 149,-80.5 149,-86.5 149,-86.5 149,-146.5 149,-146.5 149,-152.5 143,-158.5 137,-158.5 137,-158.5 24,-158.5 24,-158.5 18,-158.5 12,-152.5 12,-146.5 12,-146.5 12,-86.5 12,-86.5 12,-80.5 18,-74.5 24,-74.5"/>
<text text-anchor="middle" x="80.5" y="-143.3" font-family="Times,serif" font-size="14.00">0</text>
<polyline fill="none" stroke="black" points="12,-135.5 149,-135.5"/>
<text text-anchor="middle" x="80.5" y="-120.3" font-family="Times,serif" font-size="14.00">msm_vfe0_rdi0</text>
<text text-anchor="middle" x="80.5" y="-105.3" font-family="Times,serif" font-size="14.00">/dev/v4l&#45;subdev6</text>
<polyline fill="none" stroke="black" points="12,-97.5 149,-97.5"/>
<text text-anchor="middle" x="80.5" y="-82.3" font-family="Times,serif" font-size="14.00">1</text>
</g>
<!-- n0000000d&#45;&gt;n00000013 -->
<g id="edge9" class="edge">
<title>n0000000d:port1&#45;&gt;n00000013:port0</title>
<path fill="none" stroke="black" stroke-dasharray="5,2" d="M165.5,-206.5C155.41,-206.5 159.56,-173.66 156.69,-156.98"/>
<polygon fill="black" stroke="black" points="159.73,-155.22 151.33,-148.77 153.87,-159.05 159.73,-155.22"/>
</g>
<!-- n0000001c -->
<g id="node8" class="node">
<title>n0000001c</title>
<path fill="green" stroke="black" d="M179,-74.5C179,-74.5 292,-74.5 292,-74.5 298,-74.5 304,-80.5 304,-86.5 304,-86.5 304,-146.5 304,-146.5 304,-152.5 298,-158.5 292,-158.5 292,-158.5 179,-158.5 179,-158.5 173,-158.5 167,-152.5 167,-146.5 167,-146.5 167,-86.5 167,-86.5 167,-80.5 173,-74.5 179,-74.5"/>
<text text-anchor="middle" x="235.5" y="-143.3" font-family="Times,serif" font-size="14.00">0</text>
<polyline fill="none" stroke="black" points="167,-135.5 304,-135.5"/>
<text text-anchor="middle" x="235.5" y="-120.3" font-family="Times,serif" font-size="14.00">msm_vfe0_rdi1</text>
<text text-anchor="middle" x="235.5" y="-105.3" font-family="Times,serif" font-size="14.00">/dev/v4l&#45;subdev7</text>
<polyline fill="none" stroke="black" points="167,-97.5 304,-97.5"/>
<text text-anchor="middle" x="235.5" y="-82.3" font-family="Times,serif" font-size="14.00">1</text>
</g>
<!-- n0000000d&#45;&gt;n0000001c -->
<g id="edge10" class="edge">
<title>n0000000d:port1&#45;&gt;n0000001c:port0</title>
<path fill="none" stroke="black" stroke-dasharray="5,2" d="M235.5,-195C235.5,-183.62 235.5,-178.32 235.5,-170.45"/>
<polygon fill="black" stroke="black" points="239,-170.51 235.5,-160.51 232,-170.51 239,-170.51"/>
</g>
<!-- n00000025 -->
<g id="node9" class="node">
<title>n00000025</title>
<path fill="green" stroke="black" d="M334,-74.5C334,-74.5 447,-74.5 447,-74.5 453,-74.5 459,-80.5 459,-86.5 459,-86.5 459,-146.5 459,-146.5 459,-152.5 453,-158.5 447,-158.5 447,-158.5 334,-158.5 334,-158.5 328,-158.5 322,-152.5 322,-146.5 322,-146.5 322,-86.5 322,-86.5 322,-80.5 328,-74.5 334,-74.5"/>
<text text-anchor="middle" x="390.5" y="-143.3" font-family="Times,serif" font-size="14.00">0</text>
<polyline fill="none" stroke="black" points="322,-135.5 459,-135.5"/>
<text text-anchor="middle" x="390.5" y="-120.3" font-family="Times,serif" font-size="14.00">msm_vfe0_rdi2</text>
<text text-anchor="middle" x="390.5" y="-105.3" font-family="Times,serif" font-size="14.00">/dev/v4l&#45;subdev8</text>
<polyline fill="none" stroke="black" points="322,-97.5 459,-97.5"/>
<text text-anchor="middle" x="390.5" y="-82.3" font-family="Times,serif" font-size="14.00">1</text>
</g>
<!-- n0000000d&#45;&gt;n00000025 -->
<g id="edge11" class="edge">
<title>n0000000d:port1&#45;&gt;n00000025:port0</title>
<path fill="none" stroke="black" stroke-dasharray="5,2" d="M305.5,-206.5C315.59,-206.5 311.44,-173.66 314.31,-156.98"/>
<polygon fill="black" stroke="black" points="317.13,-159.05 319.67,-148.77 311.27,-155.22 317.13,-159.05"/>
</g>
<!-- n0000002e -->
<g id="node10" class="node">
<title>n0000002e</title>
<path fill="green" stroke="black" d="M489,-74.5C489,-74.5 602,-74.5 602,-74.5 608,-74.5 614,-80.5 614,-86.5 614,-86.5 614,-146.5 614,-146.5 614,-152.5 608,-158.5 602,-158.5 602,-158.5 489,-158.5 489,-158.5 483,-158.5 477,-152.5 477,-146.5 477,-146.5 477,-86.5 477,-86.5 477,-80.5 483,-74.5 489,-74.5"/>
<text text-anchor="middle" x="545.5" y="-143.3" font-family="Times,serif" font-size="14.00">0</text>
<polyline fill="none" stroke="black" points="477,-135.5 614,-135.5"/>
<text text-anchor="middle" x="545.5" y="-120.3" font-family="Times,serif" font-size="14.00">msm_vfe0_pix</text>
<text text-anchor="middle" x="545.5" y="-105.3" font-family="Times,serif" font-size="14.00">/dev/v4l&#45;subdev9</text>
<polyline fill="none" stroke="black" points="477,-97.5 614,-97.5"/>
<text text-anchor="middle" x="545.5" y="-82.3" font-family="Times,serif" font-size="14.00">1</text>
</g>
<!-- n0000000d&#45;&gt;n0000002e -->
<g id="edge12" class="edge">
<title>n0000000d:port1&#45;&gt;n0000002e:port0</title>
<path fill="none" stroke="black" stroke-dasharray="5,2" d="M305.5,-206.5C311.73,-206.5 308.35,-198.49 313.5,-195 372.04,-155.32 411.19,-200.44 468.5,-159 469.11,-158.56 469.58,-158.05 469.95,-157.5"/>
<polygon fill="black" stroke="black" points="472.97,-159.26 474.77,-148.82 466.85,-155.87 472.97,-159.26"/>
</g>
<!-- n00000010&#45;&gt;n00000013 -->
<g id="edge13" class="edge">
<title>n00000010:port1&#45;&gt;n00000013:port0</title>
<path fill="none" stroke="black" stroke-dasharray="5,2" d="M320.5,-206.5C314.52,-206.5 318.35,-198.5 313.5,-195 255.81,-153.34 215.19,-200.66 157.5,-159 156.89,-158.56 156.42,-158.05 156.05,-157.5"/>
<polygon fill="black" stroke="black" points="159.15,-155.87 151.23,-148.82 153.03,-159.27 159.15,-155.87"/>
</g>
<!-- n00000010&#45;&gt;n0000001c -->
<g id="edge14" class="edge">
<title>n00000010:port1&#45;&gt;n0000001c:port0</title>
<path fill="none" stroke="black" stroke-dasharray="5,2" d="M320.5,-206.5C310.41,-206.5 314.56,-173.66 311.69,-156.98"/>
<polygon fill="black" stroke="black" points="314.73,-155.22 306.33,-148.77 308.87,-159.05 314.73,-155.22"/>
</g>
<!-- n00000010&#45;&gt;n00000025 -->
<g id="edge15" class="edge">
<title>n00000010:port1&#45;&gt;n00000025:port0</title>
<path fill="none" stroke="black" stroke-dasharray="5,2" d="M390.5,-195C390.5,-183.62 390.5,-178.32 390.5,-170.45"/>
<polygon fill="black" stroke="black" points="394,-170.51 390.5,-160.51 387,-170.51 394,-170.51"/>
</g>
<!-- n00000010&#45;&gt;n0000002e -->
<g id="edge16" class="edge">
<title>n00000010:port1&#45;&gt;n0000002e:port0</title>
<path fill="none" stroke="black" stroke-dasharray="5,2" d="M460.5,-206.5C470.59,-206.5 466.44,-173.66 469.31,-156.98"/>
<polygon fill="black" stroke="black" points="472.13,-159.05 474.67,-148.77 466.27,-155.22 472.13,-159.05"/>
</g>
<!-- n00000016 -->
<g id="node11" class="node">
<title>n00000016</title>
<polygon fill="yellow" stroke="black" points="143,-38 0,-38 0,0 143,0 143,-38"/>
<text text-anchor="middle" x="71.5" y="-22.8" font-family="Times,serif" font-size="14.00">msm_vfe0_video0</text>
<text text-anchor="middle" x="71.5" y="-7.8" font-family="Times,serif" font-size="14.00">/dev/video0</text>
</g>
<!-- n00000013&#45;&gt;n00000016 -->
<g id="edge17" class="edge">
<title>n00000013:port1&#45;&gt;n00000016</title>
<path fill="none" stroke="black" stroke-width="2" d="M80.5,-74C80.5,-66.05 79.54,-57.52 78.24,-49.65"/>
<polygon fill="black" stroke="black" stroke-width="2" points="81.97,-50.52 76.67,-41.34 75.09,-51.82 81.97,-50.52"/>
</g>
<!-- n0000001f -->
<g id="node12" class="node">
<title>n0000001f</title>
<polygon fill="yellow" stroke="black" points="304,-38 161,-38 161,0 304,0 304,-38"/>
<text text-anchor="middle" x="232.5" y="-22.8" font-family="Times,serif" font-size="14.00">msm_vfe0_video1</text>
<text text-anchor="middle" x="232.5" y="-7.8" font-family="Times,serif" font-size="14.00">/dev/video1</text>
</g>
<!-- n0000001c&#45;&gt;n0000001f -->
<g id="edge18" class="edge">
<title>n0000001c:port1&#45;&gt;n0000001f</title>
<path fill="none" stroke="black" stroke-width="2" d="M235.5,-74C235.5,-66.14 235.18,-57.65 234.75,-49.78"/>
<polygon fill="black" stroke="black" stroke-width="2" points="238.35,-51.26 234.23,-41.5 231.36,-51.7 238.35,-51.26"/>
</g>
<!-- n00000028 -->
<g id="node13" class="node">
<title>n00000028</title>
<polygon fill="yellow" stroke="black" points="465,-38 322,-38 322,0 465,0 465,-38"/>
<text text-anchor="middle" x="393.5" y="-22.8" font-family="Times,serif" font-size="14.00">msm_vfe0_video2</text>
<text text-anchor="middle" x="393.5" y="-7.8" font-family="Times,serif" font-size="14.00">/dev/video2</text>
</g>
<!-- n00000025&#45;&gt;n00000028 -->
<g id="edge19" class="edge">
<title>n00000025:port1&#45;&gt;n00000028</title>
<path fill="none" stroke="black" stroke-width="2" d="M390.5,-74C390.5,-66.14 390.82,-57.65 391.25,-49.78"/>
<polygon fill="black" stroke="black" stroke-width="2" points="394.64,-51.7 391.77,-41.5 387.65,-51.26 394.64,-51.7"/>
</g>
<!-- n00000031 -->
<g id="node14" class="node">
<title>n00000031</title>
<polygon fill="yellow" stroke="black" points="626,-38 483,-38 483,0 626,0 626,-38"/>
<text text-anchor="middle" x="554.5" y="-22.8" font-family="Times,serif" font-size="14.00">msm_vfe0_video3</text>
<text text-anchor="middle" x="554.5" y="-7.8" font-family="Times,serif" font-size="14.00">/dev/video3</text>
</g>
<!-- n0000002e&#45;&gt;n00000031 -->
<g id="edge20" class="edge">
<title>n0000002e:port1&#45;&gt;n00000031</title>
<path fill="none" stroke="black" stroke-width="2" d="M545.5,-74C545.5,-66.05 546.46,-57.52 547.76,-49.65"/>
<polygon fill="black" stroke="black" stroke-width="2" points="550.91,-51.82 549.33,-41.34 544.03,-50.52 550.91,-51.82"/>
</g>
<!-- n00000057 -->
<g id="node15" class="node">
<title>n00000057</title>
<path fill="green" stroke="black" d="M170.5,-558.5C170.5,-558.5 292.5,-558.5 292.5,-558.5 298.5,-558.5 304.5,-564.5 304.5,-570.5 304.5,-570.5 304.5,-630.5 304.5,-630.5 304.5,-636.5 298.5,-642.5 292.5,-642.5 292.5,-642.5 170.5,-642.5 170.5,-642.5 164.5,-642.5 158.5,-636.5 158.5,-630.5 158.5,-630.5 158.5,-570.5 158.5,-570.5 158.5,-564.5 164.5,-558.5 170.5,-558.5"/>
<text text-anchor="middle" x="231.5" y="-627.3" font-family="Times,serif" font-size="14.00"> </text>
<polyline fill="none" stroke="black" points="158.5,-619.5 304.5,-619.5"/>
<text text-anchor="middle" x="231.5" y="-604.3" font-family="Times,serif" font-size="14.00">ov5645 1&#45;0076</text>
<text text-anchor="middle" x="231.5" y="-589.3" font-family="Times,serif" font-size="14.00">/dev/v4l&#45;subdev10</text>
<polyline fill="none" stroke="black" points="158.5,-581.5 304.5,-581.5"/>
<text text-anchor="middle" x="231.5" y="-566.3" font-family="Times,serif" font-size="14.00">0</text>
</g>
<!-- n00000057&#45;&gt;n00000001 -->
<g id="edge21" class="edge">
<title>n00000057:port0&#45;&gt;n00000001:port0</title>
<path fill="none" stroke="black" stroke-width="2" d="M231.5,-558C231.5,-546.55 233.52,-541.32 234.69,-533.47"/>
<polygon fill="black" stroke="black" stroke-width="2" points="238.07,-535.24 235.29,-525.02 231.09,-534.75 238.07,-535.24"/>
</g>
<!-- n00000059 -->
<g id="node16" class="node">
<title>n00000059</title>
<path fill="green" stroke="black" d="M334.5,-558.5C334.5,-558.5 456.5,-558.5 456.5,-558.5 462.5,-558.5 468.5,-564.5 468.5,-570.5 468.5,-570.5 468.5,-630.5 468.5,-630.5 468.5,-636.5 462.5,-642.5 456.5,-642.5 456.5,-642.5 334.5,-642.5 334.5,-642.5 328.5,-642.5 322.5,-636.5 322.5,-630.5 322.5,-630.5 322.5,-570.5 322.5,-570.5 322.5,-564.5 328.5,-558.5 334.5,-558.5"/>
<text text-anchor="middle" x="395.5" y="-627.3" font-family="Times,serif" font-size="14.00"> </text>
<polyline fill="none" stroke="black" points="322.5,-619.5 468.5,-619.5"/>
<text text-anchor="middle" x="395.5" y="-604.3" font-family="Times,serif" font-size="14.00">ov5645 1&#45;0074</text>
<text text-anchor="middle" x="395.5" y="-589.3" font-family="Times,serif" font-size="14.00">/dev/v4l&#45;subdev11</text>
<polyline fill="none" stroke="black" points="322.5,-581.5 468.5,-581.5"/>
<text text-anchor="middle" x="395.5" y="-566.3" font-family="Times,serif" font-size="14.00">0</text>
</g>
<!-- n00000059&#45;&gt;n00000004 -->
<g id="edge22" class="edge">
<title>n00000059:port0&#45;&gt;n00000004:port0</title>
<path fill="none" stroke="black" stroke-width="2" d="M395.5,-558C395.5,-546.39 392.92,-541.22 391.46,-533.23"/>
<polygon fill="black" stroke="black" stroke-width="2" points="395.1,-534.68 390.76,-525.02 388.13,-535.28 395.1,-534.68"/>
</g>
</g>
</svg>
