<?xml version="1.0" encoding="UTF-8" standalone="no"?>
<!DOCTYPE svg PUBLIC "-//W3C//DTD SVG 1.1//EN"
 "http://www.w3.org/Graphics/SVG/1.1/DTD/svg11.dtd">
<!-- Generated by graphviz version 7.0.2 (0)
 -->
<!-- Title: srp_initiator Pages: 1 -->
<svg width="867pt" height="849pt"
 viewBox="0.00 0.00 866.61 849.18" xmlns="http://www.w3.org/2000/svg" xmlns:xlink="http://www.w3.org/1999/xlink">
<g id="graph0" class="graph" transform="scale(1 1) rotate(0) translate(4 845.18)">
<title>srp_initiator</title>
<polygon fill="white" stroke="none" points="-4,4 -4,-845.18 862.61,-845.18 862.61,4 -4,4"/>
<!-- running -->
<g id="node1" class="node">
<title>running</title>
<ellipse fill="none" stroke="black" cx="261.61" cy="-571.63" rx="61.54" ry="61.54"/>
<ellipse fill="none" stroke="black" cx="261.61" cy="-571.63" rx="65.54" ry="65.54"/>
<text text-anchor="middle" x="261.61" y="-590.43" font-family="Times,serif" font-size="14.00">running;</text>
<text text-anchor="middle" x="261.61" y="-575.43" font-family="Times,serif" font-size="14.00">reconnect</text>
<text text-anchor="middle" x="261.61" y="-560.43" font-family="Times,serif" font-size="14.00">timer</text>
<text text-anchor="middle" x="261.61" y="-545.43" font-family="Times,serif" font-size="14.00">stopped</text>
</g>
<!-- lost -->
<g id="node2" class="node">
<title>lost</title>
<ellipse fill="none" stroke="black" cx="249.61" cy="-31.95" rx="27.9" ry="27.9"/>
<ellipse fill="none" stroke="black" cx="249.61" cy="-31.95" rx="31.9" ry="31.9"/>
<text text-anchor="middle" x="249.61" y="-28.25" font-family="Times,serif" font-size="14.00">lost</text>
</g>
<!-- running&#45;&gt;lost -->
<g id="edge11" class="edge">
<title>running&#45;&gt;lost</title>
<path fill="none" stroke="black" d="M195.83,-566.74C140.82,-559.71 65.05,-540.41 24.61,-488.11 -22.65,-426.98 13.72,-392.03 10.61,-314.82 9.54,-288.17 0.06,-279.31 10.61,-254.82 54.89,-152.05 110.8,-157.16 193.61,-81.9 201.18,-75.02 209.42,-67.71 217.2,-60.9"/>
<polygon fill="black" stroke="black" points="219.35,-63.67 224.58,-54.46 214.75,-58.39 219.35,-63.67"/>
<text text-anchor="middle" x="95.11" y="-281.12" font-family="Times,serif" font-size="14.00">srp_stop_rport_timers()</text>
</g>
<!-- running_rta -->
<g id="node3" class="node">
<title>running_rta</title>
<ellipse fill="none" stroke="black" cx="465.61" cy="-779.67" rx="61.54" ry="61.54"/>
<text text-anchor="middle" x="465.61" y="-798.47" font-family="Times,serif" font-size="14.00">running;</text>
<text text-anchor="middle" x="465.61" y="-783.47" font-family="Times,serif" font-size="14.00">reconnect</text>
<text text-anchor="middle" x="465.61" y="-768.47" font-family="Times,serif" font-size="14.00">timer</text>
<text text-anchor="middle" x="465.61" y="-753.47" font-family="Times,serif" font-size="14.00">active</text>
</g>
<!-- running&#45;&gt;running_rta -->
<g id="edge1" class="edge">
<title>running&#45;&gt;running_rta</title>
<path fill="none" stroke="black" d="M325.89,-585.72C365.83,-597.24 414.87,-618.17 443.61,-655.15 454.96,-669.75 461.2,-688.24 464.47,-706.45"/>
<polygon fill="black" stroke="black" points="460.99,-706.83 465.92,-716.21 467.91,-705.81 460.99,-706.83"/>
<text text-anchor="middle" x="553.11" y="-688.95" font-family="Times,serif" font-size="14.00">fast_io_fail_tmo = off and</text>
<text text-anchor="middle" x="553.11" y="-673.95" font-family="Times,serif" font-size="14.00">dev_loss_tmo = off;</text>
<text text-anchor="middle" x="553.11" y="-658.95" font-family="Times,serif" font-size="14.00">srp_start_tl_fail_timers()</text>
</g>
<!-- blocked -->
<g id="node4" class="node">
<title>blocked</title>
<ellipse fill="none" stroke="black" cx="199.61" cy="-378.96" rx="46.29" ry="46.29"/>
<text text-anchor="middle" x="199.61" y="-375.26" font-family="Times,serif" font-size="14.00">blocked</text>
</g>
<!-- running&#45;&gt;blocked -->
<g id="edge3" class="edge">
<title>running&#45;&gt;blocked</title>
<path fill="none" stroke="black" d="M195.94,-566.18C143.21,-558.75 72.28,-539.19 36.61,-488.11 25.16,-471.71 25.31,-459.61 36.61,-443.11 60.16,-408.74 105.33,-393.07 142.16,-385.93"/>
<polygon fill="black" stroke="black" points="142.56,-389.42 151.8,-384.24 141.35,-382.52 142.56,-389.42"/>
<text text-anchor="middle" x="124.11" y="-476.91" font-family="Times,serif" font-size="14.00">fast_io_fail_tmo &gt;= 0 or</text>
<text text-anchor="middle" x="124.11" y="-461.91" font-family="Times,serif" font-size="14.00">dev_loss_tmo &gt;= 0;</text>
<text text-anchor="middle" x="124.11" y="-446.91" font-family="Times,serif" font-size="14.00">srp_start_tl_fail_timers()</text>
</g>
<!-- failfast -->
<g id="node5" class="node">
<title>failfast</title>
<ellipse fill="none" stroke="black" cx="416.61" cy="-190.86" rx="45.92" ry="45.92"/>
<text text-anchor="middle" x="416.61" y="-194.66" font-family="Times,serif" font-size="14.00">fail I/O</text>
<text text-anchor="middle" x="416.61" y="-179.66" font-family="Times,serif" font-size="14.00">fast</text>
</g>
<!-- running&#45;&gt;failfast -->
<g id="edge4" class="edge">
<title>running&#45;&gt;failfast</title>
<path fill="none" stroke="black" d="M306.42,-523.63C314.91,-512.65 322.92,-500.52 328.61,-488.11 357.86,-424.37 336.53,-400.01 356.61,-332.82 365.79,-302.11 379.62,-269.08 391.69,-242.71"/>
<polygon fill="black" stroke="black" points="394.72,-244.51 395.75,-233.96 388.37,-241.56 394.72,-244.51"/>
<text text-anchor="middle" x="447.11" y="-390.26" font-family="Times,serif" font-size="14.00">fast_io_fail_tmo = off and</text>
<text text-anchor="middle" x="447.11" y="-375.26" font-family="Times,serif" font-size="14.00">dev_loss_tmo = off;</text>
<text text-anchor="middle" x="447.11" y="-360.26" font-family="Times,serif" font-size="14.00">reconnecting failed</text>
</g>
<!-- running_rta&#45;&gt;running -->
<g id="edge2" class="edge">
<title>running_rta&#45;&gt;running</title>
<path fill="none" stroke="black" d="M403.91,-773.61C355.49,-766.02 291.03,-747.12 258.61,-700.15 247.99,-684.76 244.7,-665.64 245.06,-646.94"/>
<polygon fill="black" stroke="black" points="248.54,-647.39 245.61,-637.2 241.55,-646.99 248.54,-647.39"/>
<text text-anchor="middle" x="349.11" y="-688.95" font-family="Times,serif" font-size="14.00">fast_io_fail_tmo = off and</text>
<text text-anchor="middle" x="349.11" y="-673.95" font-family="Times,serif" font-size="14.00">dev_loss_tmo = off;</text>
<text text-anchor="middle" x="349.11" y="-658.95" font-family="Times,serif" font-size="14.00">reconnecting succeeded</text>
</g>
<!-- running_rta&#45;&gt;lost -->
<g id="edge12" class="edge">
<title>running_rta&#45;&gt;lost</title>
<path fill="none" stroke="black" d="M525.97,-766.21C565.54,-755.12 615.68,-735.06 647.61,-700.15 687.88,-656.12 689.61,-632.3 689.61,-572.63 689.61,-572.63 689.61,-572.63 689.61,-189.86 689.61,-100.73 603.59,-114.42 520.61,-81.9 443.89,-51.82 347.64,-40.06 292.93,-35.58"/>
<polygon fill="black" stroke="black" points="293.33,-32.1 283.09,-34.82 292.79,-39.08 293.33,-32.1"/>
<text text-anchor="middle" x="774.11" y="-375.26" font-family="Times,serif" font-size="14.00">srp_stop_rport_timers()</text>
</g>
<!-- blocked&#45;&gt;running -->
<g id="edge8" class="edge">
<title>blocked&#45;&gt;running</title>
<path fill="none" stroke="black" d="M213.63,-423.39C220.01,-443.14 227.68,-466.81 234.61,-488.11 235.67,-491.37 236.76,-494.71 237.86,-498.08"/>
<polygon fill="black" stroke="black" points="234.49,-499.04 240.92,-507.47 241.15,-496.87 234.49,-499.04"/>
<text text-anchor="middle" x="281.61" y="-469.41" font-family="Times,serif" font-size="14.00">reconnecting</text>
<text text-anchor="middle" x="281.61" y="-454.41" font-family="Times,serif" font-size="14.00">succeeded</text>
</g>
<!-- blocked&#45;&gt;lost -->
<g id="edge6" class="edge">
<title>blocked&#45;&gt;lost</title>
<path fill="none" stroke="black" d="M191.35,-333C184.22,-285.53 177.26,-208.86 192.61,-144.9 199.16,-117.62 213.51,-89.49 226.18,-68.25"/>
<polygon fill="black" stroke="black" points="229,-70.35 231.24,-60 223.03,-66.69 229,-70.35"/>
<text text-anchor="middle" x="277.11" y="-202.16" font-family="Times,serif" font-size="14.00">dev_loss_tmo</text>
<text text-anchor="middle" x="277.11" y="-187.16" font-family="Times,serif" font-size="14.00">expired or</text>
<text text-anchor="middle" x="277.11" y="-172.16" font-family="Times,serif" font-size="14.00">srp_stop_rport_timers()</text>
</g>
<!-- blocked&#45;&gt;failfast -->
<g id="edge5" class="edge">
<title>blocked&#45;&gt;failfast</title>
<path fill="none" stroke="black" d="M200.67,-332.21C202.39,-301.77 206.75,-265.5 217.61,-254.82 239.81,-232.98 327.75,-248.54 356.61,-236.82 362.26,-234.52 367.86,-231.56 373.23,-228.25"/>
<polygon fill="black" stroke="black" points="374.97,-231.29 381.35,-222.83 371.09,-225.47 374.97,-231.29"/>
<text text-anchor="middle" x="273.11" y="-303.62" font-family="Times,serif" font-size="14.00">fast_io_fail_tmo</text>
<text text-anchor="middle" x="273.11" y="-288.62" font-family="Times,serif" font-size="14.00">expired or</text>
<text text-anchor="middle" x="273.11" y="-273.62" font-family="Times,serif" font-size="14.00">reconnecting</text>
<text text-anchor="middle" x="273.11" y="-258.62" font-family="Times,serif" font-size="14.00">failed</text>
</g>
<!-- failfast&#45;&gt;running -->
<g id="edge10" class="edge">
<title>failfast&#45;&gt;running</title>
<path fill="none" stroke="black" d="M451.44,-220.87C500.81,-265.63 580.61,-353.82 537.61,-425.11 494.28,-496.95 402.35,-535.12 336.5,-554.08"/>
<polygon fill="black" stroke="black" points="335.91,-550.61 327.21,-556.66 337.78,-557.35 335.91,-550.61"/>
<text text-anchor="middle" x="596.61" y="-382.76" font-family="Times,serif" font-size="14.00">reconnecting</text>
<text text-anchor="middle" x="596.61" y="-367.76" font-family="Times,serif" font-size="14.00">succeeded</text>
</g>
<!-- failfast&#45;&gt;lost -->
<g id="edge7" class="edge">
<title>failfast&#45;&gt;lost</title>
<path fill="none" stroke="black" d="M383.62,-158.86C353.68,-130.73 309.88,-89.57 280.59,-62.05"/>
<polygon fill="black" stroke="black" points="283.15,-59.66 273.47,-55.36 278.36,-64.76 283.15,-59.66"/>
<text text-anchor="middle" x="432.11" y="-115.7" font-family="Times,serif" font-size="14.00">dev_loss_tmo</text>
<text text-anchor="middle" x="432.11" y="-100.7" font-family="Times,serif" font-size="14.00">expired or</text>
<text text-anchor="middle" x="432.11" y="-85.7" font-family="Times,serif" font-size="14.00">srp_stop_rport_timers()</text>
</g>
<!-- failfast&#45;&gt;failfast -->
<g id="edge9" class="edge">
<title>failfast&#45;&gt;failfast</title>
<path fill="none" stroke="black" d="M459.96,-206.95C471.67,-206.1 480.57,-200.74 480.57,-190.86 480.57,-184.37 476.74,-179.84 470.79,-177.24"/>
<polygon fill="black" stroke="black" points="471.96,-173.92 461.43,-175.1 470.4,-180.74 471.96,-173.92"/>
<text text-anchor="middle" x="527.57" y="-194.66" font-family="Times,serif" font-size="14.00">reconnecting</text>
<text text-anchor="middle" x="527.57" y="-179.66" font-family="Times,serif" font-size="14.00">failed</text>
</g>
</g>
</svg>
