<?xml version="1.0" encoding="UTF-8" standalone="no"?>
<!DOCTYPE svg PUBLIC "-//W3C//DTD SVG 1.1//EN"
 "http://www.w3.org/Graphics/SVG/1.1/DTD/svg11.dtd">
<!-- Generated by graphviz version 7.0.2 (0)
 -->
<!-- Title: T Pages: 1 -->
<svg width="567pt" height="459pt"
 viewBox="0.00 0.00 567.28 459.00" xmlns="http://www.w3.org/2000/svg" xmlns:xlink="http://www.w3.org/1999/xlink">
<g id="graph0" class="graph" transform="scale(1 1) rotate(0) translate(4 455)">
<title>T</title>
<polygon fill="white" stroke="none" points="-4,4 -4,-455 563.28,-455 563.28,4 -4,4"/>
<g id="clust1" class="cluster">
<title>cluster_driver</title>
<polygon fill="grey" stroke="black" points="274,-319 274,-443 504,-443 504,-319 274,-319"/>
</g>
<g id="clust3" class="cluster">
<title>cluster_topology</title>
<polygon fill="none" stroke="black" points="8,-8 8,-371 266,-371 266,-8 8,-8"/>
<text text-anchor="middle" x="137" y="-15.8" font-family="Times,serif" font-size="14.00">Topology Manager</text>
</g>
<!-- driver -->
<g id="node1" class="node">
<title>driver</title>
<polygon fill="lightblue" stroke="black" points="439.5,-435 338.5,-435 338.5,-399 439.5,-399 439.5,-435"/>
<text text-anchor="middle" x="389" y="-413.3" font-family="Times,serif" font-size="14.00">DRM driver</text>
</g>
<!-- payload1 -->
<g id="node2" class="node">
<title>payload1</title>
<polygon fill="lightblue" stroke="black" points="380,-363 282,-363 282,-327 380,-327 380,-363"/>
<text text-anchor="middle" x="331" y="-341.3" font-family="Times,serif" font-size="14.00">Payload #1</text>
</g>
<!-- driver&#45;&gt;payload1 -->
<g id="edge1" class="edge">
<title>driver&#45;&gt;payload1</title>
<path fill="none" stroke="black" d="M374.66,-398.7C365.67,-387.85 354.13,-373.92 345.17,-363.1"/>
</g>
<!-- payload2 -->
<g id="node3" class="node">
<title>payload2</title>
<polygon fill="lightblue" stroke="black" points="496,-363 398,-363 398,-327 496,-327 496,-363"/>
<text text-anchor="middle" x="447" y="-341.3" font-family="Times,serif" font-size="14.00">Payload #2</text>
</g>
<!-- driver&#45;&gt;payload2 -->
<g id="edge2" class="edge">
<title>driver&#45;&gt;payload2</title>
<path fill="none" stroke="black" d="M403.34,-398.7C412.33,-387.85 423.87,-373.92 432.83,-363.1"/>
</g>
<!-- port1 -->
<g id="node4" class="node">
<title>port1</title>
<ellipse fill="none" stroke="black" cx="202" cy="-273" rx="46.59" ry="18"/>
<text text-anchor="middle" x="202" y="-269.3" font-family="Times,serif" font-size="14.00">Port #1</text>
</g>
<!-- driver&#45;&gt;port1 -->
<g id="edge3" class="edge">
<title>driver&#45;&gt;port1</title>
<path fill="none" stroke="black" stroke-dasharray="5,2" d="M338.19,-414.36C272.11,-411.04 162.14,-401.03 137,-371 122.16,-353.28 126.27,-339.47 137,-319 142.6,-308.31 152.02,-299.66 161.97,-292.9"/>
<polygon fill="black" stroke="black" points="163.6,-296.01 170.28,-287.79 159.93,-290.05 163.6,-296.01"/>
</g>
<!-- port2 -->
<g id="node5" class="node">
<title>port2</title>
<ellipse fill="none" stroke="black" cx="80" cy="-273" rx="46.59" ry="18"/>
<text text-anchor="middle" x="80" y="-269.3" font-family="Times,serif" font-size="14.00">Port #2</text>
</g>
<!-- driver&#45;&gt;port2 -->
<g id="edge4" class="edge">
<title>driver&#45;&gt;port2</title>
<path fill="none" stroke="black" stroke-dasharray="5,2" d="M338.28,-413.08C270.68,-408.24 155.78,-396.47 123,-371 101.55,-354.33 90.54,-324.67 85.06,-302.52"/>
<polygon fill="black" stroke="black" points="88.51,-301.92 82.94,-292.91 81.68,-303.42 88.51,-301.92"/>
</g>
<!-- port3 -->
<g id="node6" class="node">
<title>port3</title>
<ellipse fill="none" stroke="black" cx="193" cy="-129" rx="46.59" ry="18"/>
<text text-anchor="middle" x="193" y="-125.3" font-family="Times,serif" font-size="14.00">Port #3</text>
</g>
<!-- driver&#45;&gt;port3 -->
<g id="edge5" class="edge">
<title>driver&#45;&gt;port3:e</title>
<path fill="none" stroke="black" stroke-dasharray="5,2" d="M439.89,-415.29C473.6,-411.83 515.61,-401.16 538,-371 568.74,-329.61 563.06,-300.05 538,-255 470.13,-133 388.8,-129.12 252.22,-129"/>
<polygon fill="black" stroke="black" points="252.51,-125.5 242.51,-129 252.51,-132.5 252.51,-125.5"/>
</g>
<!-- port4 -->
<g id="node7" class="node">
<title>port4</title>
<ellipse fill="none" stroke="black" cx="72" cy="-129" rx="46.59" ry="18"/>
<text text-anchor="middle" x="72" y="-125.3" font-family="Times,serif" font-size="14.00">Port #4</text>
</g>
<!-- driver&#45;&gt;port4 -->
<g id="edge6" class="edge">
<title>driver&#45;&gt;port4</title>
<path fill="none" stroke="black" stroke-dasharray="5,2" d="M439.73,-409.58C463.73,-403.71 490.29,-392.48 505,-371 518.06,-351.93 516.6,-338.99 505,-319 443.85,-213.63 379.58,-229.57 267,-183 260.1,-180.15 176.12,-157.64 120.64,-142.89"/>
<polygon fill="black" stroke="black" points="121.64,-139.53 111.08,-140.35 119.84,-146.3 121.64,-139.53"/>
</g>
<!-- payload1&#45;&gt;port1 -->
<g id="edge7" class="edge">
<title>payload1:s&#45;&gt;port1:e</title>
<path fill="none" stroke="black" stroke-dasharray="5,2" d="M331,-326C331,-286.84 299.54,-275.06 261.45,-273.26"/>
<polygon fill="black" stroke="black" points="261.59,-269.76 251.51,-273.03 261.43,-276.76 261.59,-269.76"/>
</g>
<!-- payload2&#45;&gt;port3 -->
<g id="edge8" class="edge">
<title>payload2:s&#45;&gt;port3:e</title>
<path fill="none" stroke="black" stroke-dasharray="5,2" d="M447,-326C447,-203.15 372.41,-133.31 252.37,-129.19"/>
<polygon fill="black" stroke="black" points="252.57,-125.7 242.51,-129.03 252.45,-132.69 252.57,-125.7"/>
</g>
<!-- mstb2 -->
<g id="node9" class="node">
<title>mstb2</title>
<ellipse fill="palegreen" stroke="black" cx="202" cy="-201" rx="55.79" ry="18"/>
<text text-anchor="middle" x="202" y="-197.3" font-family="Times,serif" font-size="14.00">MSTB #2</text>
</g>
<!-- port1&#45;&gt;mstb2 -->
<g id="edge11" class="edge">
<title>port1&#45;&gt;mstb2</title>
<path fill="none" stroke="black" d="M196.08,-254.7C195.33,-247.41 195.09,-238.73 195.35,-230.54"/>
<polygon fill="black" stroke="black" points="198.84,-230.82 196.01,-220.61 191.86,-230.36 198.84,-230.82"/>
</g>
<!-- port1&#45;&gt;mstb2 -->
<g id="edge18" class="edge">
<title>port1&#45;&gt;mstb2</title>
<path fill="none" stroke="black" stroke-dasharray="5,2" d="M208.65,-243.24C208.91,-235.04 208.66,-226.37 207.9,-219.1"/>
<polygon fill="black" stroke="black" points="205.16,-242.98 208.01,-253.19 212.15,-243.43 205.16,-242.98"/>
</g>
<!-- mstb3 -->
<g id="node10" class="node">
<title>mstb3</title>
<ellipse fill="palegreen" stroke="black" cx="72" cy="-201" rx="55.79" ry="18"/>
<text text-anchor="middle" x="72" y="-197.3" font-family="Times,serif" font-size="14.00">MSTB #3</text>
</g>
<!-- port2&#45;&gt;mstb3 -->
<g id="edge12" class="edge">
<title>port2&#45;&gt;mstb3</title>
<path fill="none" stroke="black" d="M72.19,-255.05C70.56,-247.68 69.29,-238.84 68.61,-230.51"/>
<polygon fill="black" stroke="black" points="72.12,-230.6 68.14,-220.79 65.13,-230.95 72.12,-230.6"/>
</g>
<!-- port2&#45;&gt;mstb3 -->
<g id="edge19" class="edge">
<title>port2&#45;&gt;mstb3</title>
<path fill="none" stroke="black" stroke-dasharray="5,2" d="M83.37,-243.24C82.69,-235.04 81.44,-226.37 79.85,-219.1"/>
<polygon fill="black" stroke="black" points="79.87,-243.37 83.86,-253.18 86.86,-243.02 79.87,-243.37"/>
</g>
<!-- mstb4 -->
<g id="node11" class="node">
<title>mstb4</title>
<ellipse fill="palegreen" stroke="black" cx="193" cy="-57" rx="55.79" ry="18"/>
<text text-anchor="middle" x="193" y="-53.3" font-family="Times,serif" font-size="14.00">MSTB #4</text>
</g>
<!-- port3&#45;&gt;mstb4 -->
<g id="edge15" class="edge">
<title>port3&#45;&gt;mstb4</title>
<path fill="none" stroke="black" d="M187.08,-110.7C186.33,-103.41 186.09,-94.73 186.35,-86.54"/>
<polygon fill="black" stroke="black" points="189.84,-86.82 187.01,-76.61 182.86,-86.36 189.84,-86.82"/>
</g>
<!-- port3&#45;&gt;mstb4 -->
<g id="edge22" class="edge">
<title>port3&#45;&gt;mstb4</title>
<path fill="none" stroke="black" stroke-dasharray="5,2" d="M199.65,-99.24C199.91,-91.04 199.66,-82.37 198.9,-75.1"/>
<polygon fill="black" stroke="black" points="196.16,-98.98 199.01,-109.19 203.15,-99.43 196.16,-98.98"/>
</g>
<!-- mstb1 -->
<g id="node8" class="node">
<title>mstb1</title>
<ellipse fill="palegreen" stroke="black" cx="202" cy="-345" rx="55.79" ry="18"/>
<text text-anchor="middle" x="202" y="-341.3" font-family="Times,serif" font-size="14.00">MSTB #1</text>
</g>
<!-- mstb1&#45;&gt;port1 -->
<g id="edge9" class="edge">
<title>mstb1&#45;&gt;port1</title>
<path fill="none" stroke="black" d="M196.08,-326.7C195.33,-319.41 195.09,-310.73 195.35,-302.54"/>
<polygon fill="black" stroke="black" points="198.84,-302.82 196.01,-292.61 191.86,-302.36 198.84,-302.82"/>
</g>
<!-- mstb1&#45;&gt;port1 -->
<g id="edge16" class="edge">
<title>mstb1&#45;&gt;port1</title>
<path fill="none" stroke="black" stroke-dasharray="5,2" d="M208.65,-315.24C208.91,-307.04 208.66,-298.37 207.9,-291.1"/>
<polygon fill="black" stroke="black" points="205.16,-314.98 208.01,-325.19 212.15,-315.43 205.16,-314.98"/>
</g>
<!-- mstb1&#45;&gt;port2 -->
<g id="edge10" class="edge">
<title>mstb1&#45;&gt;port2</title>
<path fill="none" stroke="black" d="M171.45,-329.67C152.86,-319.74 129.32,-306.37 110.72,-295.22"/>
<polygon fill="black" stroke="black" points="112.61,-292.27 102.24,-290.07 108.97,-298.25 112.61,-292.27"/>
</g>
<!-- mstb1&#45;&gt;port2 -->
<g id="edge17" class="edge">
<title>mstb1&#45;&gt;port2</title>
<path fill="none" stroke="black" stroke-dasharray="5,2" d="M170.36,-322.23C151.35,-310.86 127.45,-297.31 108.92,-287.47"/>
<polygon fill="black" stroke="black" points="168.42,-325.14 178.78,-327.33 172.04,-319.16 168.42,-325.14"/>
</g>
<!-- mstb3&#45;&gt;port3 -->
<g id="edge13" class="edge">
<title>mstb3&#45;&gt;port3</title>
<path fill="none" stroke="black" d="M93.7,-184.12C110.54,-173.67 134.15,-159.96 154.18,-148.95"/>
<polygon fill="black" stroke="black" points="155.82,-152.04 162.94,-144.19 152.48,-145.88 155.82,-152.04"/>
</g>
<!-- mstb3&#45;&gt;port3 -->
<g id="edge20" class="edge">
<title>mstb3&#45;&gt;port3</title>
<path fill="none" stroke="black" stroke-dasharray="5,2" d="M112.72,-180.01C132.61,-169.03 155.63,-155.62 171.99,-145.46"/>
<polygon fill="black" stroke="black" points="111.09,-176.91 103.99,-184.77 114.45,-183.05 111.09,-176.91"/>
</g>
<!-- mstb3&#45;&gt;port4 -->
<g id="edge14" class="edge">
<title>mstb3&#45;&gt;port4</title>
<path fill="none" stroke="black" d="M66.08,-182.7C65.33,-175.41 65.09,-166.73 65.35,-158.54"/>
<polygon fill="black" stroke="black" points="68.84,-158.82 66.01,-148.61 61.86,-158.36 68.84,-158.82"/>
</g>
<!-- mstb3&#45;&gt;port4 -->
<g id="edge21" class="edge">
<title>mstb3&#45;&gt;port4</title>
<path fill="none" stroke="black" stroke-dasharray="5,2" d="M78.65,-171.24C78.91,-163.04 78.66,-154.37 77.9,-147.1"/>
<polygon fill="black" stroke="black" points="75.16,-170.98 78.01,-181.19 82.15,-171.43 75.16,-170.98"/>
</g>
</g>
</svg>
