<?xml version="1.0" encoding="UTF-8" standalone="no"?>
<!DOCTYPE svg PUBLIC "-//W3C//DTD SVG 1.1//EN"
 "http://www.w3.org/Graphics/SVG/1.1/DTD/svg11.dtd">
<!-- Generated by graphviz version 7.0.2 (0)
 -->
<!-- Title: T Pages: 1 -->
<svg width="567pt" height="459pt"
 viewBox="0.00 0.00 567.31 459.00" xmlns="http://www.w3.org/2000/svg" xmlns:xlink="http://www.w3.org/1999/xlink">
<g id="graph0" class="graph" transform="scale(1 1) rotate(0) translate(4 455)">
<title>T</title>
<polygon fill="white" stroke="none" points="-4,4 -4,-455 563.31,-455 563.31,4 -4,4"/>
<g id="clust1" class="cluster">
<title>cluster_driver</title>
<polygon fill="grey" stroke="black" points="274,-319 274,-443 504,-443 504,-319 274,-319"/>
</g>
<g id="clust2" class="cluster">
<title>cluster_topology</title>
<polygon fill="none" stroke="black" points="8,-8 8,-371 266,-371 266,-8 8,-8"/>
<text text-anchor="middle" x="137" y="-15.8" font-family="Times,serif" font-size="14.00">Topology Manager</text>
</g>
<!-- driver -->
<g id="node1" class="node">
<title>driver</title>
<polygon fill="lightblue" stroke="black" points="439.5,-435 338.5,-435 338.5,-399 439.5,-399 439.5,-435"/>
<text text-anchor="middle" x="389" y="-413.3" font-family="Times,serif" font-size="14.00">DRM driver</text>
</g>
<!-- payload1 -->
<g id="node2" class="node">
<title>payload1</title>
<polygon fill="lightblue" stroke="black" points="380,-363 282,-363 282,-327 380,-327 380,-363"/>
<text text-anchor="middle" x="331" y="-341.3" font-family="Times,serif" font-size="14.00">Payload #1</text>
</g>
<!-- driver&#45;&gt;payload1 -->
<g id="edge1" class="edge">
<title>driver&#45;&gt;payload1</title>
<path fill="none" stroke="black" d="M374.66,-398.7C365.67,-387.85 354.13,-373.92 345.17,-363.1"/>
</g>
<!-- payload2 -->
<g id="node3" class="node">
<title>payload2</title>
<polygon fill="lightblue" stroke="black" stroke-width="3" points="496,-363 398,-363 398,-327 496,-327 496,-363"/>
<text text-anchor="middle" x="447" y="-341.3" font-family="Times,serif" font-size="14.00">Payload #2</text>
</g>
<!-- driver&#45;&gt;payload2 -->
<g id="edge2" class="edge">
<title>driver&#45;&gt;payload2</title>
<path fill="none" stroke="black" stroke-width="3" d="M403.34,-398.7C412.06,-388.17 423.18,-374.75 432.02,-364.08"/>
</g>
<!-- port1 -->
<g id="node4" class="node">
<title>port1</title>
<ellipse fill="none" stroke="black" cx="202" cy="-273" rx="46.59" ry="18"/>
<text text-anchor="middle" x="202" y="-269.3" font-family="Times,serif" font-size="14.00">Port #1</text>
</g>
<!-- driver&#45;&gt;port1 -->
<g id="edge3" class="edge">
<title>driver&#45;&gt;port1</title>
<path fill="none" stroke="black" stroke-dasharray="5,2" d="M338.19,-414.36C272.11,-411.04 162.14,-401.03 137,-371 122.16,-353.28 126.27,-339.47 137,-319 142.6,-308.31 152.02,-299.66 161.97,-292.9"/>
<polygon fill="black" stroke="black" points="163.6,-296.01 170.28,-287.79 159.93,-290.05 163.6,-296.01"/>
</g>
<!-- port2 -->
<g id="node5" class="node">
<title>port2</title>
<ellipse fill="none" stroke="black" stroke-width="5" cx="80" cy="-273" rx="46.59" ry="18"/>
<text text-anchor="middle" x="80" y="-269.3" font-family="Times,serif" font-size="14.00">Port #2</text>
</g>
<!-- driver&#45;&gt;port2 -->
<g id="edge4" class="edge">
<title>driver&#45;&gt;port2</title>
<path fill="none" stroke="black" stroke-dasharray="5,2" d="M338.28,-413.08C270.68,-408.24 155.78,-396.47 123,-371 102.16,-354.81 91.18,-326.36 85.55,-304.45"/>
<polygon fill="black" stroke="black" points="88.99,-303.81 83.34,-294.85 82.17,-305.38 88.99,-303.81"/>
</g>
<!-- port3 -->
<g id="node6" class="node">
<title>port3</title>
<ellipse fill="none" stroke="black" stroke-width="3" cx="193" cy="-129" rx="46.59" ry="18"/>
<text text-anchor="middle" x="193" y="-125.3" font-family="Times,serif" font-size="14.00">Port #3</text>
</g>
<!-- driver&#45;&gt;port3 -->
<g id="edge5" class="edge">
<title>driver&#45;&gt;port3:e</title>
<path fill="none" stroke="black" stroke-dasharray="5,2" d="M439.89,-415.29C473.6,-411.83 515.61,-401.16 538,-371 568.74,-329.61 563.15,-300.01 538,-255 470.09,-133.48 389.36,-129.15 253.19,-129"/>
<polygon fill="black" stroke="black" points="253.52,-125.5 243.51,-129 253.51,-132.5 253.52,-125.5"/>
</g>
<!-- port4 -->
<g id="node7" class="node">
<title>port4</title>
<ellipse fill="grey" stroke="black" cx="72" cy="-129" rx="46.59" ry="18"/>
<text text-anchor="middle" x="72" y="-125.3" font-family="Times,serif" font-size="14.00">Port #4</text>
</g>
<!-- driver&#45;&gt;port4 -->
<g id="edge6" class="edge">
<title>driver&#45;&gt;port4</title>
<path fill="none" stroke="grey" stroke-dasharray="5,2" d="M439.73,-409.58C463.73,-403.71 490.29,-392.48 505,-371 518.06,-351.93 516.6,-338.99 505,-319 443.85,-213.63 379.58,-229.57 267,-183 260.1,-180.15 176.12,-157.64 120.64,-142.89"/>
<polygon fill="grey" stroke="grey" points="121.64,-139.53 111.08,-140.35 119.84,-146.3 121.64,-139.53"/>
</g>
<!-- payload1&#45;&gt;port1 -->
<g id="edge7" class="edge">
<title>payload1:s&#45;&gt;port1:e</title>
<path fill="none" stroke="black" stroke-dasharray="5,2" d="M331,-326C331,-286.84 299.54,-275.06 261.45,-273.26"/>
<polygon fill="black" stroke="black" points="261.59,-269.76 251.51,-273.03 261.43,-276.76 261.59,-269.76"/>
</g>
<!-- payload2&#45;&gt;port3 -->
<g id="edge8" class="edge">
<title>payload2:s&#45;&gt;port3:e</title>
<path fill="none" stroke="black" stroke-width="3" stroke-dasharray="5,2" d="M447,-326C447,-204.45 374.24,-134.46 256.23,-129.31"/>
<polygon fill="black" stroke="black" stroke-width="3" points="256.61,-125.81 246.54,-129.1 256.46,-132.81 256.61,-125.81"/>
</g>
<!-- mstb2 -->
<g id="node9" class="node">
<title>mstb2</title>
<ellipse fill="palegreen" stroke="black" cx="202" cy="-201" rx="55.79" ry="18"/>
<text text-anchor="middle" x="202" y="-197.3" font-family="Times,serif" font-size="14.00">MSTB #2</text>
</g>
<!-- port1&#45;&gt;mstb2 -->
<g id="edge11" class="edge">
<title>port1&#45;&gt;mstb2</title>
<path fill="none" stroke="black" d="M196.08,-254.7C195.33,-247.41 195.09,-238.73 195.35,-230.54"/>
<polygon fill="black" stroke="black" points="198.84,-230.82 196.01,-220.61 191.86,-230.36 198.84,-230.82"/>
</g>
<!-- port1&#45;&gt;mstb2 -->
<g id="edge18" class="edge">
<title>port1&#45;&gt;mstb2</title>
<path fill="none" stroke="black" stroke-dasharray="5,2" d="M208.65,-243.24C208.91,-235.04 208.66,-226.37 207.9,-219.1"/>
<polygon fill="black" stroke="black" points="205.16,-242.98 208.01,-253.19 212.15,-243.43 205.16,-242.98"/>
</g>
<!-- mstb3 -->
<g id="node10" class="node">
<title>mstb3</title>
<ellipse fill="palegreen" stroke="black" stroke-width="3" cx="72" cy="-201" rx="55.79" ry="18"/>
<text text-anchor="middle" x="72" y="-197.3" font-family="Times,serif" font-size="14.00">MSTB #3</text>
</g>
<!-- port2&#45;&gt;mstb3 -->
<g id="edge12" class="edge">
<title>port2&#45;&gt;mstb3</title>
<path fill="none" stroke="grey" d="M71.72,-252.87C70.38,-246.26 69.32,-238.68 68.69,-231.44"/>
<polygon fill="grey" stroke="grey" points="72.2,-231.45 68.16,-221.65 65.21,-231.83 72.2,-231.45"/>
</g>
<!-- port2&#45;&gt;mstb3 -->
<g id="edge19" class="edge">
<title>port2&#45;&gt;mstb3</title>
<path fill="none" stroke="black" stroke-width="3" stroke-dasharray="5,2" d="M82.92,-238.57C82.25,-232.21 81.26,-225.79 80.07,-220.14"/>
<polygon fill="black" stroke="black" stroke-width="3" points="79.42,-238.61 83.59,-248.34 86.4,-238.13 79.42,-238.61"/>
</g>
<!-- mstb4 -->
<g id="node11" class="node">
<title>mstb4</title>
<ellipse fill="grey" stroke="black" cx="193" cy="-57" rx="55.79" ry="18"/>
<text text-anchor="middle" x="193" y="-53.3" font-family="Times,serif" font-size="14.00">MSTB #4</text>
</g>
<!-- port3&#45;&gt;mstb4 -->
<g id="edge15" class="edge">
<title>port3&#45;&gt;mstb4</title>
<path fill="none" stroke="grey" d="M187.01,-109.97C186.32,-102.87 186.1,-94.54 186.35,-86.65"/>
<polygon fill="grey" stroke="grey" points="189.84,-86.96 186.99,-76.75 182.85,-86.5 189.84,-86.96"/>
</g>
<!-- port3&#45;&gt;mstb4 -->
<g id="edge22" class="edge">
<title>port3&#45;&gt;mstb4</title>
<path fill="none" stroke="grey" stroke-dasharray="5,2" d="M199.67,-98.75C199.9,-90.75 199.64,-82.33 198.91,-75.24"/>
<polygon fill="grey" stroke="grey" points="196.19,-98.27 199.08,-108.46 203.18,-98.69 196.19,-98.27"/>
</g>
<!-- mstb1 -->
<g id="node8" class="node">
<title>mstb1</title>
<ellipse fill="palegreen" stroke="black" cx="202" cy="-345" rx="55.79" ry="18"/>
<text text-anchor="middle" x="202" y="-341.3" font-family="Times,serif" font-size="14.00">MSTB #1</text>
</g>
<!-- mstb1&#45;&gt;port1 -->
<g id="edge9" class="edge">
<title>mstb1&#45;&gt;port1</title>
<path fill="none" stroke="black" d="M196.08,-326.7C195.33,-319.41 195.09,-310.73 195.35,-302.54"/>
<polygon fill="black" stroke="black" points="198.84,-302.82 196.01,-292.61 191.86,-302.36 198.84,-302.82"/>
</g>
<!-- mstb1&#45;&gt;port1 -->
<g id="edge16" class="edge">
<title>mstb1&#45;&gt;port1</title>
<path fill="none" stroke="black" stroke-dasharray="5,2" d="M208.65,-315.24C208.91,-307.04 208.66,-298.37 207.9,-291.1"/>
<polygon fill="black" stroke="black" points="205.16,-314.98 208.01,-325.19 212.15,-315.43 205.16,-314.98"/>
</g>
<!-- mstb1&#45;&gt;port2 -->
<g id="edge10" class="edge">
<title>mstb1&#45;&gt;port2</title>
<path fill="none" stroke="black" d="M171.45,-329.67C153.62,-320.15 131.23,-307.45 113.02,-296.59"/>
<polygon fill="black" stroke="black" points="115.05,-293.73 104.68,-291.56 111.43,-299.72 115.05,-293.73"/>
</g>
<!-- mstb1&#45;&gt;port2 -->
<g id="edge17" class="edge">
<title>mstb1&#45;&gt;port2</title>
<path fill="none" stroke="black" stroke-dasharray="5,2" d="M170.44,-322.28C152.16,-311.34 129.32,-298.37 111.1,-288.63"/>
<polygon fill="black" stroke="black" points="168.42,-325.14 178.78,-327.33 172.04,-319.16 168.42,-325.14"/>
</g>
<!-- mstb3&#45;&gt;port3 -->
<g id="edge13" class="edge">
<title>mstb3&#45;&gt;port3</title>
<path fill="none" stroke="grey" d="M95.12,-183.23C111.57,-173.08 133.93,-160.1 153.18,-149.49"/>
<polygon fill="grey" stroke="grey" points="154.77,-152.62 161.88,-144.76 151.42,-146.47 154.77,-152.62"/>
</g>
<!-- mstb3&#45;&gt;port3 -->
<g id="edge20" class="edge">
<title>mstb3&#45;&gt;port3</title>
<path fill="none" stroke="black" stroke-width="3" stroke-dasharray="5,2" d="M116.62,-177.85C135.11,-167.56 155.69,-155.55 170.9,-146.13"/>
<polygon fill="black" stroke="black" stroke-width="3" points="115,-174.75 107.91,-182.63 118.36,-180.88 115,-174.75"/>
</g>
<!-- mstb3&#45;&gt;port4 -->
<g id="edge14" class="edge">
<title>mstb3&#45;&gt;port4</title>
<path fill="none" stroke="grey" d="M65.98,-181.61C65.31,-174.51 65.1,-166.22 65.36,-158.39"/>
<polygon fill="grey" stroke="grey" points="68.84,-158.79 66.01,-148.58 61.85,-158.32 68.84,-158.79"/>
</g>
<!-- mstb3&#45;&gt;port4 -->
<g id="edge21" class="edge">
<title>mstb3&#45;&gt;port4</title>
<path fill="none" stroke="grey" stroke-dasharray="5,2" d="M78.69,-170.13C78.89,-162.25 78.62,-154.01 77.89,-147.07"/>
<polygon fill="grey" stroke="grey" points="75.19,-169.91 78.11,-180.1 82.18,-170.32 75.19,-169.91"/>
</g>
</g>
</svg>
