<?xml version="1.0" encoding="UTF-8" standalone="no"?>
<!DOCTYPE svg PUBLIC "-//W3C//DTD SVG 1.1//EN"
 "http://www.w3.org/Graphics/SVG/1.1/DTD/svg11.dtd">
<!-- Generated by graphviz version 7.0.2 (0)
 -->
<!-- Title: board Pages: 1 -->
<svg width="1047pt" height="409pt"
 viewBox="0.00 0.00 1047.00 409.00" xmlns="http://www.w3.org/2000/svg" xmlns:xlink="http://www.w3.org/1999/xlink">
<g id="graph0" class="graph" transform="scale(1 1) rotate(0) translate(4 405)">
<title>board</title>
<polygon fill="white" stroke="none" points="-4,4 -4,-405 1043,-405 1043,4 -4,4"/>
<!-- n00000001 -->
<g id="node1" class="node">
<title>n00000001</title>
<path fill="green" stroke="black" d="M160,-316.5C160,-316.5 273,-316.5 273,-316.5 279,-316.5 285,-322.5 285,-328.5 285,-328.5 285,-388.5 285,-388.5 285,-394.5 279,-400.5 273,-400.5 273,-400.5 160,-400.5 160,-400.5 154,-400.5 148,-394.5 148,-388.5 148,-388.5 148,-328.5 148,-328.5 148,-322.5 154,-316.5 160,-316.5"/>
<text text-anchor="middle" x="216.5" y="-385.3" font-family="Times,serif" font-size="14.00"> </text>
<polyline fill="none" stroke="black" points="148,-377.5 285,-377.5"/>
<text text-anchor="middle" x="216.5" y="-362.3" font-family="Times,serif" font-size="14.00">Sensor A</text>
<text text-anchor="middle" x="216.5" y="-347.3" font-family="Times,serif" font-size="14.00">/dev/v4l&#45;subdev0</text>
<polyline fill="none" stroke="black" points="148,-339.5 285,-339.5"/>
<text text-anchor="middle" x="216.5" y="-324.3" font-family="Times,serif" font-size="14.00">0</text>
</g>
<!-- n00000005 -->
<g id="node2" class="node">
<title>n00000005</title>
<path fill="green" stroke="black" d="M12,-195.5C12,-195.5 125,-195.5 125,-195.5 131,-195.5 137,-201.5 137,-207.5 137,-207.5 137,-267.5 137,-267.5 137,-273.5 131,-279.5 125,-279.5 125,-279.5 12,-279.5 12,-279.5 6,-279.5 0,-273.5 0,-267.5 0,-267.5 0,-207.5 0,-207.5 0,-201.5 6,-195.5 12,-195.5"/>
<text text-anchor="middle" x="68.5" y="-264.3" font-family="Times,serif" font-size="14.00">0</text>
<polyline fill="none" stroke="black" points="0,-256.5 137,-256.5"/>
<text text-anchor="middle" x="68.5" y="-241.3" font-family="Times,serif" font-size="14.00">Debayer A</text>
<text text-anchor="middle" x="68.5" y="-226.3" font-family="Times,serif" font-size="14.00">/dev/v4l&#45;subdev2</text>
<polyline fill="none" stroke="black" points="0,-218.5 137,-218.5"/>
<text text-anchor="middle" x="68.5" y="-203.3" font-family="Times,serif" font-size="14.00">1</text>
</g>
<!-- n00000001&#45;&gt;n00000005 -->
<g id="edge1" class="edge">
<title>n00000001:port0&#45;&gt;n00000005:port0</title>
<path fill="none" stroke="black" stroke-width="2" d="M146.5,-327.5C136.78,-327.5 144.16,-295.68 143.52,-278.78"/>
<polygon fill="black" stroke="black" stroke-width="2" points="147.36,-278.67 139.83,-271.22 141.08,-281.74 147.36,-278.67"/>
</g>
<!-- n0000000b -->
<g id="node3" class="node">
<title>n0000000b</title>
<polygon fill="yellow" stroke="black" points="278,-256.5 155,-256.5 155,-218.5 278,-218.5 278,-256.5"/>
<text text-anchor="middle" x="216.5" y="-241.3" font-family="Times,serif" font-size="14.00">Raw Capture 0</text>
<text text-anchor="middle" x="216.5" y="-226.3" font-family="Times,serif" font-size="14.00">/dev/video0</text>
</g>
<!-- n00000001&#45;&gt;n0000000b -->
<g id="edge2" class="edge">
<title>n00000001:port0&#45;&gt;n0000000b</title>
<path fill="none" stroke="black" stroke-width="2" d="M216.5,-316C216.5,-300.23 216.5,-282.66 216.5,-268.24"/>
<polygon fill="black" stroke="black" stroke-width="2" points="220,-270 216.5,-260 213,-270 220,-270"/>
</g>
<!-- n00000002 -->
<g id="node4" class="node">
<title>n00000002</title>
<path fill="green" stroke="black" d="M308,-195.5C308,-195.5 421,-195.5 421,-195.5 427,-195.5 433,-201.5 433,-207.5 433,-207.5 433,-267.5 433,-267.5 433,-273.5 427,-279.5 421,-279.5 421,-279.5 308,-279.5 308,-279.5 302,-279.5 296,-273.5 296,-267.5 296,-267.5 296,-207.5 296,-207.5 296,-201.5 302,-195.5 308,-195.5"/>
<text text-anchor="middle" x="364.5" y="-264.3" font-family="Times,serif" font-size="14.00"> </text>
<polyline fill="none" stroke="black" points="296,-256.5 433,-256.5"/>
<text text-anchor="middle" x="364.5" y="-241.3" font-family="Times,serif" font-size="14.00">Lens A</text>
<text text-anchor="middle" x="364.5" y="-226.3" font-family="Times,serif" font-size="14.00">/dev/v4l&#45;subdev5</text>
<polyline fill="none" stroke="black" points="296,-218.5 433,-218.5"/>
<text text-anchor="middle" x="364.5" y="-203.3" font-family="Times,serif" font-size="14.00"> </text>
</g>
<!-- n00000001&#45;&gt;n00000002 -->
<g id="edge3" class="edge">
<title>n00000001&#45;&gt;n00000002</title>
<path fill="none" stroke="black" d="M267.43,-316.55C279.48,-306.86 292.43,-296.45 304.82,-286.49"/>
<polygon fill="black" stroke="black" points="306.94,-289.27 312.54,-280.28 302.56,-283.81 306.94,-289.27"/>
</g>
<!-- n00000015 -->
<g id="node9" class="node">
<title>n00000015</title>
<path fill="green" stroke="black" d="M463,-74.5C463,-74.5 576,-74.5 576,-74.5 582,-74.5 588,-80.5 588,-86.5 588,-86.5 588,-146.5 588,-146.5 588,-152.5 582,-158.5 576,-158.5 576,-158.5 463,-158.5 463,-158.5 457,-158.5 451,-152.5 451,-146.5 451,-146.5 451,-86.5 451,-86.5 451,-80.5 457,-74.5 463,-74.5"/>
<text text-anchor="middle" x="519.5" y="-143.3" font-family="Times,serif" font-size="14.00">0</text>
<polyline fill="none" stroke="black" points="451,-135.5 588,-135.5"/>
<text text-anchor="middle" x="519.5" y="-120.3" font-family="Times,serif" font-size="14.00">Scaler</text>
<text text-anchor="middle" x="519.5" y="-105.3" font-family="Times,serif" font-size="14.00">/dev/v4l&#45;subdev5</text>
<polyline fill="none" stroke="black" points="451,-97.5 588,-97.5"/>
<text text-anchor="middle" x="519.5" y="-82.3" font-family="Times,serif" font-size="14.00">1</text>
</g>
<!-- n00000005&#45;&gt;n00000015 -->
<g id="edge7" class="edge">
<title>n00000005:port1&#45;&gt;n00000015:port0</title>
<path fill="none" stroke="black" d="M138.5,-206.5C144.48,-206.5 140.53,-198.33 145.5,-195 199.45,-158.92 363.28,-148.54 438.26,-147.58"/>
<polygon fill="black" stroke="black" points="438.01,-151.08 447.99,-147.51 437.96,-144.08 438.01,-151.08"/>
</g>
<!-- n00000003 -->
<g id="node5" class="node">
<title>n00000003</title>
<path fill="green" stroke="black" d="M611,-316.5C611,-316.5 724,-316.5 724,-316.5 730,-316.5 736,-322.5 736,-328.5 736,-328.5 736,-388.5 736,-388.5 736,-394.5 730,-400.5 724,-400.5 724,-400.5 611,-400.5 611,-400.5 605,-400.5 599,-394.5 599,-388.5 599,-388.5 599,-328.5 599,-328.5 599,-322.5 605,-316.5 611,-316.5"/>
<text text-anchor="middle" x="667.5" y="-385.3" font-family="Times,serif" font-size="14.00"> </text>
<polyline fill="none" stroke="black" points="599,-377.5 736,-377.5"/>
<text text-anchor="middle" x="667.5" y="-362.3" font-family="Times,serif" font-size="14.00">Sensor B</text>
<text text-anchor="middle" x="667.5" y="-347.3" font-family="Times,serif" font-size="14.00">/dev/v4l&#45;subdev1</text>
<polyline fill="none" stroke="black" points="599,-339.5 736,-339.5"/>
<text text-anchor="middle" x="667.5" y="-324.3" font-family="Times,serif" font-size="14.00">0</text>
</g>
<!-- n00000008 -->
<g id="node6" class="node">
<title>n00000008</title>
<path fill="green" stroke="black" d="M463,-195.5C463,-195.5 576,-195.5 576,-195.5 582,-195.5 588,-201.5 588,-207.5 588,-207.5 588,-267.5 588,-267.5 588,-273.5 582,-279.5 576,-279.5 576,-279.5 463,-279.5 463,-279.5 457,-279.5 451,-273.5 451,-267.5 451,-267.5 451,-207.5 451,-207.5 451,-201.5 457,-195.5 463,-195.5"/>
<text text-anchor="middle" x="519.5" y="-264.3" font-family="Times,serif" font-size="14.00">0</text>
<polyline fill="none" stroke="black" points="451,-256.5 588,-256.5"/>
<text text-anchor="middle" x="519.5" y="-241.3" font-family="Times,serif" font-size="14.00">Debayer B</text>
<text text-anchor="middle" x="519.5" y="-226.3" font-family="Times,serif" font-size="14.00">/dev/v4l&#45;subdev3</text>
<polyline fill="none" stroke="black" points="451,-218.5 588,-218.5"/>
<text text-anchor="middle" x="519.5" y="-203.3" font-family="Times,serif" font-size="14.00">1</text>
</g>
<!-- n00000003&#45;&gt;n00000008 -->
<g id="edge4" class="edge">
<title>n00000003:port0&#45;&gt;n00000008:port0</title>
<path fill="none" stroke="black" stroke-width="2" d="M597.5,-327.5C587.78,-327.5 595.16,-295.68 594.52,-278.78"/>
<polygon fill="black" stroke="black" stroke-width="2" points="598.36,-278.67 590.83,-271.22 592.08,-281.74 598.36,-278.67"/>
</g>
<!-- n0000000f -->
<g id="node7" class="node">
<title>n0000000f</title>
<polygon fill="yellow" stroke="black" points="729,-256.5 606,-256.5 606,-218.5 729,-218.5 729,-256.5"/>
<text text-anchor="middle" x="667.5" y="-241.3" font-family="Times,serif" font-size="14.00">Raw Capture 1</text>
<text text-anchor="middle" x="667.5" y="-226.3" font-family="Times,serif" font-size="14.00">/dev/video1</text>
</g>
<!-- n00000003&#45;&gt;n0000000f -->
<g id="edge5" class="edge">
<title>n00000003:port0&#45;&gt;n0000000f</title>
<path fill="none" stroke="black" stroke-width="2" d="M667.5,-316C667.5,-300.23 667.5,-282.66 667.5,-268.24"/>
<polygon fill="black" stroke="black" stroke-width="2" points="671,-270 667.5,-260 664,-270 671,-270"/>
</g>
<!-- n00000004 -->
<g id="node8" class="node">
<title>n00000004</title>
<path fill="green" stroke="black" d="M759,-195.5C759,-195.5 872,-195.5 872,-195.5 878,-195.5 884,-201.5 884,-207.5 884,-207.5 884,-267.5 884,-267.5 884,-273.5 878,-279.5 872,-279.5 872,-279.5 759,-279.5 759,-279.5 753,-279.5 747,-273.5 747,-267.5 747,-267.5 747,-207.5 747,-207.5 747,-201.5 753,-195.5 759,-195.5"/>
<text text-anchor="middle" x="815.5" y="-264.3" font-family="Times,serif" font-size="14.00"> </text>
<polyline fill="none" stroke="black" points="747,-256.5 884,-256.5"/>
<text text-anchor="middle" x="815.5" y="-241.3" font-family="Times,serif" font-size="14.00">Lens B</text>
<text text-anchor="middle" x="815.5" y="-226.3" font-family="Times,serif" font-size="14.00">/dev/v4l&#45;subdev6</text>
<polyline fill="none" stroke="black" points="747,-218.5 884,-218.5"/>
<text text-anchor="middle" x="815.5" y="-203.3" font-family="Times,serif" font-size="14.00"> </text>
</g>
<!-- n00000003&#45;&gt;n00000004 -->
<g id="edge6" class="edge">
<title>n00000003&#45;&gt;n00000004</title>
<path fill="none" stroke="black" d="M718.43,-316.55C730.48,-306.86 743.43,-296.45 755.82,-286.49"/>
<polygon fill="black" stroke="black" points="757.94,-289.27 763.54,-280.28 753.56,-283.81 757.94,-289.27"/>
</g>
<!-- n00000008&#45;&gt;n00000015 -->
<g id="edge8" class="edge">
<title>n00000008:port1&#45;&gt;n00000015:port0</title>
<path fill="none" stroke="black" stroke-dasharray="5,2" d="M519.5,-195C519.5,-183.62 519.5,-178.32 519.5,-170.45"/>
<polygon fill="black" stroke="black" points="523,-170.51 519.5,-160.51 516,-170.51 523,-170.51"/>
</g>
<!-- n00000018 -->
<g id="node11" class="node">
<title>n00000018</title>
<polygon fill="yellow" stroke="black" points="592.5,-38 446.5,-38 446.5,0 592.5,0 592.5,-38"/>
<text text-anchor="middle" x="519.5" y="-22.8" font-family="Times,serif" font-size="14.00">RGB/YUV Capture</text>
<text text-anchor="middle" x="519.5" y="-7.8" font-family="Times,serif" font-size="14.00">/dev/video2</text>
</g>
<!-- n00000015&#45;&gt;n00000018 -->
<g id="edge10" class="edge">
<title>n00000015:port1&#45;&gt;n00000018</title>
<path fill="none" stroke="black" stroke-width="2" d="M519.5,-74C519.5,-66.16 519.5,-57.67 519.5,-49.8"/>
<polygon fill="black" stroke="black" stroke-width="2" points="523,-51.52 519.5,-41.52 516,-51.52 523,-51.52"/>
</g>
<!-- n00000013 -->
<g id="node10" class="node">
<title>n00000013</title>
<path fill="green" stroke="black" d="M914,-195.5C914,-195.5 1027,-195.5 1027,-195.5 1033,-195.5 1039,-201.5 1039,-207.5 1039,-207.5 1039,-267.5 1039,-267.5 1039,-273.5 1033,-279.5 1027,-279.5 1027,-279.5 914,-279.5 914,-279.5 908,-279.5 902,-273.5 902,-267.5 902,-267.5 902,-207.5 902,-207.5 902,-201.5 908,-195.5 914,-195.5"/>
<text text-anchor="middle" x="970.5" y="-264.3" font-family="Times,serif" font-size="14.00"> </text>
<polyline fill="none" stroke="black" points="902,-256.5 1039,-256.5"/>
<text text-anchor="middle" x="970.5" y="-241.3" font-family="Times,serif" font-size="14.00">RGB/YUV Input</text>
<text text-anchor="middle" x="970.5" y="-226.3" font-family="Times,serif" font-size="14.00">/dev/v4l&#45;subdev4</text>
<polyline fill="none" stroke="black" points="902,-218.5 1039,-218.5"/>
<text text-anchor="middle" x="970.5" y="-203.3" font-family="Times,serif" font-size="14.00">0</text>
</g>
<!-- n00000013&#45;&gt;n00000015 -->
<g id="edge9" class="edge">
<title>n00000013:port0&#45;&gt;n00000015:port0</title>
<path fill="none" stroke="black" stroke-dasharray="5,2" d="M900.5,-206.5C894.52,-206.5 898.47,-198.33 893.5,-195 839.55,-158.92 675.72,-148.54 600.74,-147.58"/>
<polygon fill="black" stroke="black" points="601.04,-144.08 591.01,-147.51 600.99,-151.08 601.04,-144.08"/>
</g>
</g>
</svg>
